<svg width="115" height="40" viewBox="0 0 115 40" fill="none" xmlns="http://www.w3.org/2000/svg">
<path d="M0 0H115V32C115 36.4183 111.418 40 107 40H0V0Z" fill="#F7DE6F"/>
<path d="M18.132 6.552C18.236 6.552 18.32 6.592 18.384 6.672C18.456 6.744 18.492 6.824 18.492 6.912C18.492 6.952 18.484 6.992 18.468 7.032C18.46 7.064 18.444 7.1 18.42 7.14L15.6 11.016L15.744 10.548V14.64C15.744 14.736 15.708 14.82 15.636 14.892C15.564 14.964 15.476 15 15.372 15C15.268 15 15.18 14.964 15.108 14.892C15.044 14.82 15.012 14.736 15.012 14.64V10.632L15.072 10.92L12.324 7.164C12.292 7.124 12.268 7.084 12.252 7.044C12.236 6.996 12.228 6.952 12.228 6.912C12.228 6.808 12.268 6.724 12.348 6.66C12.436 6.588 12.524 6.552 12.612 6.552C12.732 6.552 12.832 6.608 12.912 6.72L15.492 10.236L15.312 10.212L17.82 6.72C17.9 6.608 18.004 6.552 18.132 6.552ZM24.8709 11.928C24.8709 12.536 24.7389 13.084 24.4749 13.572C24.2109 14.052 23.8509 14.432 23.3949 14.712C22.9389 14.984 22.4189 15.12 21.8349 15.12C21.2669 15.12 20.7509 14.984 20.2869 14.712C19.8309 14.432 19.4669 14.052 19.1949 13.572C18.9309 13.084 18.7989 12.536 18.7989 11.928C18.7989 11.312 18.9309 10.764 19.1949 10.284C19.4669 9.804 19.8309 9.424 20.2869 9.144C20.7509 8.864 21.2669 8.724 21.8349 8.724C22.4189 8.724 22.9389 8.864 23.3949 9.144C23.8509 9.424 24.2109 9.804 24.4749 10.284C24.7389 10.764 24.8709 11.312 24.8709 11.928ZM24.1509 11.928C24.1509 11.44 24.0509 11.008 23.8509 10.632C23.6509 10.248 23.3749 9.948 23.0229 9.732C22.6789 9.508 22.2829 9.396 21.8349 9.396C21.4029 9.396 21.0109 9.508 20.6589 9.732C20.3069 9.948 20.0269 10.248 19.8189 10.632C19.6189 11.008 19.5189 11.44 19.5189 11.928C19.5189 12.416 19.6189 12.848 19.8189 13.224C20.0269 13.6 20.3069 13.9 20.6589 14.124C21.0109 14.34 21.4029 14.448 21.8349 14.448C22.2829 14.448 22.6789 14.34 23.0229 14.124C23.3749 13.9 23.6509 13.6 23.8509 13.224C24.0509 12.848 24.1509 12.416 24.1509 11.928ZM30.9851 8.904C31.0891 8.904 31.1731 8.94 31.2371 9.012C31.3091 9.084 31.3451 9.168 31.3451 9.264V12.648C31.3451 13.44 31.1211 14.044 30.6731 14.46C30.2251 14.876 29.6211 15.084 28.8611 15.084C28.1091 15.084 27.5091 14.876 27.0611 14.46C26.6211 14.044 26.4011 13.44 26.4011 12.648V9.264C26.4011 9.168 26.4331 9.084 26.4971 9.012C26.5691 8.94 26.6571 8.904 26.7611 8.904C26.8651 8.904 26.9491 8.94 27.0131 9.012C27.0851 9.084 27.1211 9.168 27.1211 9.264V12.648C27.1211 13.224 27.2731 13.664 27.5771 13.968C27.8891 14.264 28.3171 14.412 28.8611 14.412C29.4131 14.412 29.8451 14.264 30.1571 13.968C30.4691 13.664 30.6251 13.224 30.6251 12.648V9.264C30.6251 9.168 30.6571 9.084 30.7211 9.012C30.7851 8.94 30.8731 8.904 30.9851 8.904ZM33.5932 15C33.4812 15 33.3932 14.964 33.3292 14.892C33.2652 14.82 33.2332 14.736 33.2332 14.64V9.264C33.2332 9.168 33.2652 9.084 33.3292 9.012C33.4012 8.94 33.4892 8.904 33.5932 8.904C33.6972 8.904 33.7812 8.94 33.8452 9.012C33.9172 9.084 33.9532 9.168 33.9532 9.264V11.064L33.7732 11.1C33.7972 10.82 33.8652 10.544 33.9772 10.272C34.0972 9.992 34.2572 9.736 34.4572 9.504C34.6572 9.272 34.8932 9.084 35.1652 8.94C35.4452 8.796 35.7572 8.724 36.1012 8.724C36.2452 8.724 36.3852 8.756 36.5212 8.82C36.6572 8.876 36.7252 8.972 36.7252 9.108C36.7252 9.228 36.6932 9.32 36.6292 9.384C36.5652 9.448 36.4892 9.48 36.4012 9.48C36.3292 9.48 36.2492 9.46 36.1612 9.42C36.0812 9.38 35.9732 9.36 35.8372 9.36C35.6132 9.36 35.3892 9.428 35.1652 9.564C34.9412 9.692 34.7372 9.868 34.5532 10.092C34.3692 10.316 34.2212 10.568 34.1092 10.848C34.0052 11.12 33.9532 11.396 33.9532 11.676V14.64C33.9532 14.736 33.9172 14.82 33.8452 14.892C33.7732 14.964 33.6892 15 33.5932 15ZM47.4436 7.224C47.5396 7.288 47.5956 7.372 47.6116 7.476C47.6276 7.572 47.6036 7.668 47.5396 7.764C47.4836 7.836 47.4116 7.876 47.3236 7.884C47.2356 7.892 47.1516 7.876 47.0716 7.836C46.7676 7.636 46.4396 7.48 46.0876 7.368C45.7436 7.256 45.3716 7.2 44.9716 7.2C44.4836 7.2 44.0276 7.288 43.6036 7.464C43.1876 7.632 42.8236 7.88 42.5116 8.208C42.1996 8.528 41.9556 8.908 41.7796 9.348C41.6116 9.788 41.5276 10.272 41.5276 10.8C41.5276 11.344 41.6156 11.84 41.7916 12.288C41.9676 12.728 42.2116 13.108 42.5236 13.428C42.8436 13.748 43.2116 13.992 43.6276 14.16C44.0436 14.328 44.4916 14.412 44.9716 14.412C45.3636 14.412 45.7316 14.356 46.0756 14.244C46.4276 14.132 46.7556 13.98 47.0596 13.788C47.1396 13.74 47.2236 13.724 47.3116 13.74C47.4076 13.748 47.4836 13.792 47.5396 13.872C47.6116 13.96 47.6356 14.056 47.6116 14.16C47.5956 14.256 47.5436 14.332 47.4556 14.388C47.2556 14.516 47.0196 14.636 46.7476 14.748C46.4756 14.86 46.1876 14.948 45.8836 15.012C45.5796 15.084 45.2756 15.12 44.9716 15.12C44.3956 15.12 43.8556 15.016 43.3516 14.808C42.8476 14.6 42.3996 14.308 42.0076 13.932C41.6156 13.548 41.3076 13.092 41.0836 12.564C40.8676 12.036 40.7596 11.448 40.7596 10.8C40.7596 10.176 40.8676 9.604 41.0836 9.084C41.2996 8.556 41.5996 8.1 41.9836 7.716C42.3676 7.332 42.8156 7.032 43.3276 6.816C43.8396 6.6 44.3876 6.492 44.9716 6.492C45.4276 6.492 45.8676 6.556 46.2916 6.684C46.7156 6.812 47.0996 6.992 47.4436 7.224ZM53.9994 8.868C54.1034 8.868 54.1874 8.904 54.2514 8.976C54.3234 9.048 54.3594 9.136 54.3594 9.24V14.64C54.3594 14.736 54.3234 14.82 54.2514 14.892C54.1794 14.964 54.0954 15 53.9994 15C53.8954 15 53.8074 14.964 53.7354 14.892C53.6714 14.82 53.6394 14.736 53.6394 14.64V13.212L53.8434 13.116C53.8434 13.34 53.7794 13.568 53.6514 13.8C53.5314 14.032 53.3634 14.248 53.1474 14.448C52.9314 14.648 52.6754 14.812 52.3794 14.94C52.0914 15.06 51.7794 15.12 51.4434 15.12C50.8994 15.12 50.4114 14.98 49.9794 14.7C49.5554 14.42 49.2194 14.036 48.9714 13.548C48.7314 13.06 48.6114 12.512 48.6114 11.904C48.6114 11.28 48.7354 10.732 48.9834 10.26C49.2314 9.78 49.5674 9.404 49.9914 9.132C50.4154 8.86 50.8954 8.724 51.4314 8.724C51.7754 8.724 52.0954 8.784 52.3914 8.904C52.6954 9.024 52.9594 9.188 53.1834 9.396C53.4074 9.604 53.5794 9.844 53.6994 10.116C53.8274 10.38 53.8914 10.656 53.8914 10.944L53.6394 10.764V9.24C53.6394 9.136 53.6714 9.048 53.7354 8.976C53.8074 8.904 53.8954 8.868 53.9994 8.868ZM51.5034 14.448C51.9274 14.448 52.3034 14.34 52.6314 14.124C52.9594 13.9 53.2154 13.596 53.3994 13.212C53.5914 12.82 53.6874 12.384 53.6874 11.904C53.6874 11.432 53.5914 11.008 53.3994 10.632C53.2154 10.256 52.9594 9.956 52.6314 9.732C52.3034 9.508 51.9274 9.396 51.5034 9.396C51.0874 9.396 50.7114 9.504 50.3754 9.72C50.0474 9.936 49.7874 10.232 49.5954 10.608C49.4114 10.984 49.3194 11.416 49.3194 11.904C49.3194 12.384 49.4114 12.82 49.5954 13.212C49.7874 13.596 50.0474 13.9 50.3754 14.124C50.7034 14.34 51.0794 14.448 51.5034 14.448ZM55.9008 14.028C55.8368 13.932 55.8048 13.84 55.8048 13.752C55.8128 13.656 55.8648 13.58 55.9608 13.524C56.0248 13.468 56.0968 13.444 56.1768 13.452C56.2648 13.46 56.3448 13.5 56.4168 13.572C56.6328 13.852 56.8928 14.08 57.1968 14.256C57.5088 14.424 57.8768 14.508 58.3008 14.508C58.5248 14.508 58.7448 14.472 58.9608 14.4C59.1848 14.32 59.3688 14.204 59.5128 14.052C59.6568 13.892 59.7288 13.692 59.7288 13.452C59.7288 13.204 59.6568 13.004 59.5128 12.852C59.3688 12.7 59.1808 12.58 58.9488 12.492C58.7248 12.404 58.4848 12.328 58.2288 12.264C57.9568 12.192 57.6928 12.112 57.4368 12.024C57.1808 11.928 56.9528 11.812 56.7528 11.676C56.5608 11.532 56.4048 11.36 56.2848 11.16C56.1648 10.96 56.1048 10.716 56.1048 10.428C56.1048 10.092 56.1968 9.796 56.3808 9.54C56.5648 9.284 56.8128 9.084 57.1248 8.94C57.4448 8.796 57.8048 8.724 58.2048 8.724C58.4048 8.724 58.6208 8.752 58.8528 8.808C59.0848 8.856 59.3128 8.94 59.5368 9.06C59.7608 9.18 59.9608 9.344 60.1368 9.552C60.2088 9.624 60.2448 9.708 60.2448 9.804C60.2448 9.892 60.2048 9.972 60.1248 10.044C60.0608 10.092 59.9848 10.116 59.8968 10.116C59.8168 10.116 59.7488 10.084 59.6928 10.02C59.5008 9.804 59.2728 9.64 59.0088 9.528C58.7448 9.416 58.4608 9.36 58.1568 9.36C57.9248 9.36 57.7048 9.4 57.4968 9.48C57.2968 9.552 57.1288 9.664 56.9928 9.816C56.8568 9.968 56.7888 10.168 56.7888 10.416C56.8048 10.648 56.8848 10.836 57.0288 10.98C57.1808 11.124 57.3768 11.244 57.6168 11.34C57.8648 11.436 58.1408 11.524 58.4448 11.604C58.7008 11.668 58.9448 11.744 59.1768 11.832C59.4168 11.92 59.6248 12.032 59.8008 12.168C59.9848 12.296 60.1288 12.46 60.2328 12.66C60.3448 12.86 60.4008 13.112 60.4008 13.416C60.4008 13.768 60.3008 14.072 60.1008 14.328C59.9088 14.584 59.6488 14.78 59.3208 14.916C58.9928 15.052 58.6288 15.12 58.2288 15.12C57.7968 15.12 57.3768 15.036 56.9688 14.868C56.5688 14.7 56.2128 14.42 55.9008 14.028ZM64.6698 8.82C65.1738 8.82 65.5818 8.928 65.8938 9.144C66.2058 9.36 66.4338 9.652 66.5778 10.02C66.7298 10.388 66.8058 10.796 66.8058 11.244V14.64C66.8058 14.736 66.7698 14.82 66.6978 14.892C66.6258 14.964 66.5418 15 66.4458 15C66.3338 15 66.2458 14.964 66.1818 14.892C66.1178 14.82 66.0858 14.736 66.0858 14.64V11.244C66.0858 10.916 66.0338 10.62 65.9298 10.356C65.8338 10.092 65.6738 9.884 65.4498 9.732C65.2258 9.572 64.9258 9.492 64.5498 9.492C64.2138 9.492 63.8938 9.572 63.5898 9.732C63.2938 9.884 63.0538 10.092 62.8698 10.356C62.6858 10.62 62.5938 10.916 62.5938 11.244V14.64C62.5938 14.736 62.5578 14.82 62.4858 14.892C62.4138 14.964 62.3298 15 62.2338 15C62.1218 15 62.0338 14.964 61.9698 14.892C61.9058 14.82 61.8738 14.736 61.8738 14.64V6.48C61.8738 6.384 61.9058 6.3 61.9698 6.228C62.0418 6.156 62.1298 6.12 62.2338 6.12C62.3378 6.12 62.4218 6.156 62.4858 6.228C62.5578 6.3 62.5938 6.384 62.5938 6.48V10.368L62.3178 10.788C62.3338 10.54 62.4098 10.3 62.5458 10.068C62.6898 9.828 62.8738 9.616 63.0978 9.432C63.3218 9.24 63.5698 9.092 63.8418 8.988C64.1138 8.876 64.3898 8.82 64.6698 8.82ZM71.6101 8.724C72.1541 8.724 72.6341 8.86 73.0501 9.132C73.4741 9.404 73.8101 9.78 74.0581 10.26C74.3061 10.732 74.4301 11.28 74.4301 11.904C74.4301 12.512 74.3061 13.06 74.0581 13.548C73.8101 14.036 73.4741 14.42 73.0501 14.7C72.6261 14.98 72.1501 15.12 71.6221 15.12C71.3421 15.12 71.0741 15.076 70.8181 14.988C70.5701 14.9 70.3421 14.784 70.1341 14.64C69.9261 14.488 69.7421 14.312 69.5821 14.112C69.4221 13.912 69.2941 13.696 69.1981 13.464L69.4141 13.308V14.664C69.4141 14.768 69.3781 14.856 69.3061 14.928C69.2421 14.992 69.1581 15.024 69.0541 15.024C68.9501 15.024 68.8621 14.992 68.7901 14.928C68.7261 14.856 68.6941 14.768 68.6941 14.664V6.492C68.6941 6.388 68.7261 6.304 68.7901 6.24C68.8541 6.168 68.9421 6.132 69.0541 6.132C69.1581 6.132 69.2421 6.168 69.3061 6.24C69.3781 6.304 69.4141 6.388 69.4141 6.492V10.512L69.2461 10.416C69.3261 10.168 69.4421 9.944 69.5941 9.744C69.7541 9.536 69.9381 9.356 70.1461 9.204C70.3541 9.052 70.5821 8.936 70.8301 8.856C71.0781 8.768 71.3381 8.724 71.6101 8.724ZM71.5501 9.396C71.1181 9.396 70.7381 9.504 70.4101 9.72C70.0821 9.936 69.8221 10.232 69.6301 10.608C69.4461 10.984 69.3541 11.416 69.3541 11.904C69.3541 12.384 69.4461 12.82 69.6301 13.212C69.8221 13.596 70.0821 13.9 70.4101 14.124C70.7381 14.34 71.1181 14.448 71.5501 14.448C71.9741 14.448 72.3461 14.336 72.6661 14.112C72.9941 13.888 73.2541 13.584 73.4461 13.2C73.6381 12.808 73.7341 12.376 73.7341 11.904C73.7341 11.416 73.6381 10.984 73.4461 10.608C73.2541 10.232 72.9941 9.936 72.6661 9.72C72.3461 9.504 71.9741 9.396 71.5501 9.396ZM80.9994 8.868C81.1034 8.868 81.1874 8.904 81.2514 8.976C81.3234 9.048 81.3594 9.136 81.3594 9.24V14.64C81.3594 14.736 81.3234 14.82 81.2514 14.892C81.1794 14.964 81.0954 15 80.9994 15C80.8954 15 80.8074 14.964 80.7354 14.892C80.6714 14.82 80.6394 14.736 80.6394 14.64V13.212L80.8434 13.116C80.8434 13.34 80.7794 13.568 80.6514 13.8C80.5314 14.032 80.3634 14.248 80.1474 14.448C79.9314 14.648 79.6754 14.812 79.3794 14.94C79.0914 15.06 78.7794 15.12 78.4434 15.12C77.8994 15.12 77.4114 14.98 76.9794 14.7C76.5554 14.42 76.2194 14.036 75.9714 13.548C75.7314 13.06 75.6114 12.512 75.6114 11.904C75.6114 11.28 75.7354 10.732 75.9834 10.26C76.2314 9.78 76.5674 9.404 76.9914 9.132C77.4154 8.86 77.8954 8.724 78.4314 8.724C78.7754 8.724 79.0954 8.784 79.3914 8.904C79.6954 9.024 79.9594 9.188 80.1834 9.396C80.4074 9.604 80.5794 9.844 80.6994 10.116C80.8274 10.38 80.8914 10.656 80.8914 10.944L80.6394 10.764V9.24C80.6394 9.136 80.6714 9.048 80.7354 8.976C80.8074 8.904 80.8954 8.868 80.9994 8.868ZM78.5034 14.448C78.9274 14.448 79.3034 14.34 79.6314 14.124C79.9594 13.9 80.2154 13.596 80.3994 13.212C80.5914 12.82 80.6874 12.384 80.6874 11.904C80.6874 11.432 80.5914 11.008 80.3994 10.632C80.2154 10.256 79.9594 9.956 79.6314 9.732C79.3034 9.508 78.9274 9.396 78.5034 9.396C78.0874 9.396 77.7114 9.504 77.3754 9.72C77.0474 9.936 76.7874 10.232 76.5954 10.608C76.4114 10.984 76.3194 11.416 76.3194 11.904C76.3194 12.384 76.4114 12.82 76.5954 13.212C76.7874 13.596 77.0474 13.9 77.3754 14.124C77.7034 14.34 78.0794 14.448 78.5034 14.448ZM85.9488 8.724C86.3328 8.724 86.6848 8.768 87.0048 8.856C87.3248 8.936 87.5808 9.048 87.7728 9.192C87.9728 9.336 88.0728 9.492 88.0728 9.66C88.0728 9.74 88.0448 9.82 87.9888 9.9C87.9328 9.972 87.8568 10.008 87.7608 10.008C87.6648 10.008 87.5848 9.984 87.5208 9.936C87.4648 9.888 87.4048 9.832 87.3408 9.768C87.2848 9.704 87.2008 9.644 87.0888 9.588C86.9848 9.54 86.8368 9.496 86.6448 9.456C86.4528 9.416 86.2328 9.396 85.9848 9.396C85.5368 9.396 85.1328 9.508 84.7728 9.732C84.4128 9.956 84.1288 10.26 83.9208 10.644C83.7128 11.02 83.6088 11.444 83.6088 11.916C83.6088 12.396 83.7088 12.828 83.9088 13.212C84.1088 13.596 84.3848 13.9 84.7368 14.124C85.0888 14.34 85.5008 14.448 85.9728 14.448C86.2928 14.448 86.5408 14.42 86.7168 14.364C86.8928 14.308 87.0448 14.244 87.1728 14.172C87.3248 14.084 87.4328 14 87.4968 13.92C87.5688 13.832 87.6608 13.788 87.7728 13.788C87.8768 13.788 87.9528 13.82 88.0008 13.884C88.0568 13.94 88.0848 14.016 88.0848 14.112C88.0848 14.24 87.9888 14.384 87.7968 14.544C87.6128 14.696 87.3568 14.832 87.0288 14.952C86.7008 15.064 86.3248 15.12 85.9008 15.12C85.3008 15.12 84.7728 14.98 84.3168 14.7C83.8688 14.42 83.5168 14.04 83.2608 13.56C83.0128 13.072 82.8888 12.524 82.8888 11.916C82.8888 11.332 83.0168 10.8 83.2728 10.32C83.5288 9.84 83.8848 9.456 84.3408 9.168C84.8048 8.872 85.3408 8.724 85.9488 8.724ZM89.8917 15C89.7877 15 89.6997 14.964 89.6277 14.892C89.5637 14.82 89.5317 14.736 89.5317 14.64V6.48C89.5317 6.384 89.5637 6.3 89.6277 6.228C89.6997 6.156 89.7877 6.12 89.8917 6.12C89.9957 6.12 90.0797 6.156 90.1437 6.228C90.2157 6.3 90.2517 6.384 90.2517 6.48V14.64C90.2517 14.736 90.2157 14.82 90.1437 14.892C90.0797 14.964 89.9957 15 89.8917 15ZM93.9717 8.844C94.0597 8.844 94.1397 8.884 94.2117 8.964C94.2837 9.036 94.3197 9.116 94.3197 9.204C94.3197 9.308 94.2757 9.4 94.1877 9.48L90.1557 12.912L90.1197 12.06L93.7197 8.964C93.7917 8.884 93.8757 8.844 93.9717 8.844ZM94.0677 15C93.9637 15 93.8757 14.956 93.8037 14.868L91.0677 11.964L91.6077 11.472L94.3197 14.364C94.3917 14.444 94.4277 14.536 94.4277 14.64C94.4277 14.752 94.3837 14.84 94.2957 14.904C94.2077 14.968 94.1317 15 94.0677 15Z" fill="#070706"/>
<path d="M35.6 33.12C35.04 33.12 34.536 33.052 34.088 32.916C33.64 32.772 33.212 32.524 32.804 32.172C32.7 32.084 32.62 31.984 32.564 31.872C32.508 31.76 32.48 31.648 32.48 31.536C32.48 31.352 32.544 31.192 32.672 31.056C32.808 30.912 32.976 30.84 33.176 30.84C33.328 30.84 33.464 30.888 33.584 30.984C33.888 31.232 34.188 31.42 34.484 31.548C34.788 31.676 35.16 31.74 35.6 31.74C35.896 31.74 36.168 31.696 36.416 31.608C36.664 31.512 36.864 31.388 37.016 31.236C37.168 31.076 37.244 30.896 37.244 30.696C37.244 30.456 37.172 30.252 37.028 30.084C36.884 29.916 36.664 29.776 36.368 29.664C36.072 29.544 35.696 29.452 35.24 29.388C34.808 29.324 34.428 29.228 34.1 29.1C33.772 28.964 33.496 28.796 33.272 28.596C33.056 28.388 32.892 28.148 32.78 27.876C32.668 27.596 32.612 27.284 32.612 26.94C32.612 26.42 32.744 25.976 33.008 25.608C33.28 25.24 33.644 24.96 34.1 24.768C34.556 24.576 35.06 24.48 35.612 24.48C36.132 24.48 36.612 24.56 37.052 24.72C37.5 24.872 37.864 25.068 38.144 25.308C38.376 25.492 38.492 25.704 38.492 25.944C38.492 26.12 38.424 26.28 38.288 26.424C38.152 26.568 37.992 26.64 37.808 26.64C37.688 26.64 37.58 26.604 37.484 26.532C37.356 26.42 37.184 26.316 36.968 26.22C36.752 26.116 36.524 26.032 36.284 25.968C36.044 25.896 35.82 25.86 35.612 25.86C35.268 25.86 34.976 25.904 34.736 25.992C34.504 26.08 34.328 26.2 34.208 26.352C34.088 26.504 34.028 26.68 34.028 26.88C34.028 27.12 34.096 27.32 34.232 27.48C34.376 27.632 34.58 27.756 34.844 27.852C35.108 27.94 35.424 28.02 35.792 28.092C36.272 28.18 36.692 28.284 37.052 28.404C37.42 28.524 37.724 28.68 37.964 28.872C38.204 29.056 38.384 29.292 38.504 29.58C38.624 29.86 38.684 30.204 38.684 30.612C38.684 31.132 38.54 31.58 38.252 31.956C37.964 32.332 37.584 32.62 37.112 32.82C36.648 33.02 36.144 33.12 35.6 33.12ZM43.1442 26.484L40.5522 32.58C40.4962 32.732 40.4082 32.852 40.2882 32.94C40.1762 33.02 40.0522 33.06 39.9162 33.06C39.7002 33.06 39.5402 33 39.4362 32.88C39.3322 32.76 39.2802 32.612 39.2802 32.436C39.2802 32.364 39.2922 32.288 39.3162 32.208L42.3042 25.032C42.3682 24.872 42.4642 24.748 42.5922 24.66C42.7282 24.572 42.8722 24.536 43.0242 24.552C43.1682 24.552 43.3002 24.596 43.4202 24.684C43.5482 24.764 43.6402 24.88 43.6962 25.032L46.6482 32.064C46.6882 32.168 46.7082 32.264 46.7082 32.352C46.7082 32.568 46.6362 32.74 46.4922 32.868C46.3562 32.996 46.2042 33.06 46.0362 33.06C45.8922 33.06 45.7602 33.016 45.6402 32.928C45.5282 32.84 45.4402 32.72 45.3762 32.568L42.7962 26.556L43.1442 26.484ZM40.9242 31.116L41.5842 29.736H44.8242L45.0522 31.116H40.9242ZM48.5882 33C48.3642 33 48.1642 32.932 47.9882 32.796C47.8122 32.652 47.7242 32.476 47.7242 32.268V25.332C47.7242 25.124 47.7922 24.952 47.9282 24.816C48.0722 24.672 48.2482 24.6 48.4562 24.6H51.9122C52.3282 24.6 52.7162 24.712 53.0762 24.936C53.4442 25.152 53.7402 25.456 53.9642 25.848C54.1882 26.232 54.3002 26.676 54.3002 27.18C54.3002 27.484 54.2362 27.78 54.1082 28.068C53.9882 28.356 53.8202 28.616 53.6042 28.848C53.3962 29.08 53.1602 29.26 52.8962 29.388L52.9082 29.112C53.1322 29.232 53.3162 29.376 53.4602 29.544C53.6122 29.704 53.7282 29.88 53.8082 30.072C53.8962 30.256 53.9482 30.456 53.9642 30.672C53.9962 30.872 54.0162 31.048 54.0242 31.2C54.0402 31.352 54.0642 31.48 54.0962 31.584C54.1362 31.688 54.2082 31.768 54.3122 31.824C54.4882 31.928 54.5962 32.08 54.6362 32.28C54.6842 32.472 54.6402 32.644 54.5042 32.796C54.4162 32.9 54.3042 32.968 54.1682 33C54.0322 33.024 53.8962 33.024 53.7602 33C53.6242 32.968 53.5122 32.928 53.4242 32.88C53.2882 32.8 53.1522 32.684 53.0162 32.532C52.8802 32.372 52.7682 32.16 52.6802 31.896C52.6002 31.632 52.5602 31.292 52.5602 30.876C52.5602 30.74 52.5362 30.616 52.4882 30.504C52.4402 30.384 52.3722 30.284 52.2842 30.204C52.1962 30.116 52.0842 30.052 51.9482 30.012C51.8122 29.964 51.6522 29.94 51.4682 29.94H49.0442L49.2242 29.664V32.268C49.2242 32.476 49.1682 32.652 49.0562 32.796C48.9442 32.932 48.7882 33 48.5882 33ZM49.0562 28.704H51.8522C51.9962 28.704 52.1362 28.64 52.2722 28.512C52.4082 28.376 52.5202 28.196 52.6082 27.972C52.6962 27.74 52.7402 27.488 52.7402 27.216C52.7402 26.864 52.6442 26.572 52.4522 26.34C52.2682 26.1 52.0682 25.98 51.8522 25.98H49.0802L49.2242 25.596V28.992L49.0562 28.704ZM61.2818 33C61.0578 33 60.8738 32.932 60.7298 32.796C60.5858 32.652 60.5138 32.476 60.5138 32.268V26.22L60.6818 26.484L59.8058 27.132C59.6938 27.22 59.5538 27.264 59.3858 27.264C59.1938 27.264 59.0258 27.192 58.8818 27.048C58.7378 26.904 58.6658 26.732 58.6658 26.532C58.6658 26.276 58.7898 26.068 59.0378 25.908L60.7658 24.756C60.8458 24.7 60.9338 24.66 61.0298 24.636C61.1338 24.612 61.2298 24.6 61.3178 24.6C61.5498 24.6 61.7338 24.672 61.8698 24.816C62.0058 24.952 62.0738 25.124 62.0738 25.332V32.268C62.0738 32.476 61.9978 32.652 61.8458 32.796C61.7018 32.932 61.5138 33 61.2818 33ZM68.5858 31.68C68.7778 31.68 68.9378 31.744 69.0658 31.872C69.1938 32 69.2578 32.16 69.2578 32.352C69.2578 32.536 69.1938 32.692 69.0658 32.82C68.9378 32.94 68.7778 33 68.5858 33H64.5058C64.2978 33 64.1338 32.936 64.0138 32.808C63.8938 32.68 63.8338 32.516 63.8338 32.316C63.8338 32.116 63.9058 31.94 64.0498 31.788L66.6658 28.992C66.9618 28.672 67.1938 28.344 67.3618 28.008C67.5378 27.672 67.6258 27.38 67.6258 27.132C67.6258 26.732 67.5098 26.412 67.2778 26.172C67.0458 25.924 66.7378 25.8 66.3538 25.8C66.2018 25.8 66.0458 25.836 65.8858 25.908C65.7258 25.98 65.5698 26.08 65.4178 26.208C65.2738 26.336 65.1378 26.484 65.0098 26.652C64.9138 26.78 64.8178 26.86 64.7218 26.892C64.6258 26.924 64.5378 26.94 64.4578 26.94C64.2818 26.94 64.1178 26.876 63.9658 26.748C63.8218 26.612 63.7498 26.456 63.7498 26.28C63.7498 26.144 63.7938 26.012 63.8818 25.884C63.9778 25.756 64.0938 25.624 64.2298 25.488C64.4298 25.288 64.6538 25.112 64.9018 24.96C65.1498 24.808 65.4058 24.692 65.6698 24.612C65.9338 24.524 66.1898 24.48 66.4378 24.48C66.9738 24.48 67.4378 24.588 67.8298 24.804C68.2298 25.012 68.5378 25.312 68.7538 25.704C68.9698 26.088 69.0778 26.544 69.0778 27.072C69.0778 27.512 68.9458 28.004 68.6818 28.548C68.4258 29.084 68.0778 29.588 67.6378 30.06L66.0178 31.788L65.8858 31.68H68.5858ZM74.5899 33C74.3899 33 74.2219 32.932 74.0859 32.796C73.9499 32.652 73.8819 32.476 73.8819 32.268V26.628L74.1339 26.688L71.8179 29.556L71.7579 29.4H76.0059C76.1979 29.4 76.3579 29.464 76.4859 29.592C76.6139 29.72 76.6779 29.88 76.6779 30.072C76.6779 30.256 76.6139 30.412 76.4859 30.54C76.3579 30.66 76.1979 30.72 76.0059 30.72H70.7619C70.5939 30.72 70.4299 30.652 70.2699 30.516C70.1179 30.38 70.0419 30.212 70.0419 30.012C70.0419 29.836 70.1019 29.676 70.2219 29.532L74.0139 24.888C74.0779 24.8 74.1619 24.732 74.2659 24.684C74.3699 24.628 74.4859 24.6 74.6139 24.6C74.8219 24.6 74.9899 24.672 75.1179 24.816C75.2539 24.952 75.3219 25.124 75.3219 25.332V32.268C75.3219 32.476 75.2499 32.652 75.1059 32.796C74.9699 32.932 74.7979 33 74.5899 33ZM79.5806 32.904C79.5806 33.168 79.5046 33.432 79.3526 33.696C79.2086 33.968 79.0166 34.192 78.7766 34.368C78.5446 34.552 78.2966 34.644 78.0326 34.644C77.9446 34.644 77.8486 34.608 77.7446 34.536C77.6486 34.464 77.6006 34.34 77.6006 34.164C77.6006 33.98 77.6566 33.868 77.7686 33.828C77.8886 33.796 77.9886 33.76 78.0686 33.72C78.1726 33.664 78.2526 33.596 78.3086 33.516C78.3726 33.444 78.4046 33.352 78.4046 33.24C78.4046 33.152 78.3606 33.072 78.2726 33C78.1926 32.936 78.0846 32.904 77.9486 32.904C77.9006 32.904 77.8446 32.912 77.7806 32.928C77.7166 32.936 77.6606 32.956 77.6126 32.988C77.5326 32.948 77.4606 32.9 77.3966 32.844C77.3406 32.78 77.3126 32.68 77.3126 32.544C77.3126 32.296 77.4246 32.084 77.6486 31.908C77.8806 31.724 78.1486 31.632 78.4526 31.632C78.7966 31.632 79.0686 31.748 79.2686 31.98C79.4766 32.212 79.5806 32.52 79.5806 32.904ZM83.9653 33.12C83.2773 33.12 82.6933 32.94 82.2133 32.58C81.7413 32.212 81.3813 31.704 81.1333 31.056C80.8853 30.4 80.7613 29.648 80.7613 28.8C80.7613 27.944 80.8853 27.192 81.1333 26.544C81.3813 25.896 81.7413 25.392 82.2133 25.032C82.6933 24.664 83.2773 24.48 83.9653 24.48C84.6533 24.48 85.2333 24.664 85.7053 25.032C86.1853 25.392 86.5493 25.896 86.7973 26.544C87.0453 27.192 87.1693 27.944 87.1693 28.8C87.1693 29.648 87.0453 30.4 86.7973 31.056C86.5493 31.704 86.1853 32.212 85.7053 32.58C85.2333 32.94 84.6533 33.12 83.9653 33.12ZM83.9653 31.68C84.3013 31.68 84.5893 31.576 84.8293 31.368C85.0773 31.152 85.2693 30.832 85.4053 30.408C85.5413 29.976 85.6093 29.44 85.6093 28.8C85.6093 28.152 85.5413 27.616 85.4053 27.192C85.2693 26.768 85.0773 26.452 84.8293 26.244C84.5893 26.028 84.3013 25.92 83.9653 25.92C83.6373 25.92 83.3493 26.028 83.1013 26.244C82.8533 26.452 82.6613 26.768 82.5253 27.192C82.3893 27.616 82.3213 28.152 82.3213 28.8C82.3213 29.44 82.3893 29.976 82.5253 30.408C82.6613 30.832 82.8533 31.152 83.1013 31.368C83.3493 31.576 83.6373 31.68 83.9653 31.68ZM91.3363 33.12C90.6483 33.12 90.0643 32.94 89.5843 32.58C89.1123 32.212 88.7523 31.704 88.5043 31.056C88.2563 30.4 88.1323 29.648 88.1323 28.8C88.1323 27.944 88.2563 27.192 88.5043 26.544C88.7523 25.896 89.1123 25.392 89.5843 25.032C90.0643 24.664 90.6483 24.48 91.3363 24.48C92.0243 24.48 92.6043 24.664 93.0763 25.032C93.5563 25.392 93.9203 25.896 94.1683 26.544C94.4163 27.192 94.5403 27.944 94.5403 28.8C94.5403 29.648 94.4163 30.4 94.1683 31.056C93.9203 31.704 93.5563 32.212 93.0763 32.58C92.6043 32.94 92.0243 33.12 91.3363 33.12ZM91.3363 31.68C91.6723 31.68 91.9603 31.576 92.2003 31.368C92.4483 31.152 92.6403 30.832 92.7763 30.408C92.9123 29.976 92.9803 29.44 92.9803 28.8C92.9803 28.152 92.9123 27.616 92.7763 27.192C92.6403 26.768 92.4483 26.452 92.2003 26.244C91.9603 26.028 91.6723 25.92 91.3363 25.92C91.0083 25.92 90.7203 26.028 90.4723 26.244C90.2243 26.452 90.0323 26.768 89.8963 27.192C89.7603 27.616 89.6923 28.152 89.6923 28.8C89.6923 29.44 89.7603 29.976 89.8963 30.408C90.0323 30.832 90.2243 31.152 90.4723 31.368C90.7203 31.576 91.0083 31.68 91.3363 31.68Z" fill="#070706"/>
<path d="M15 32.1167V33V23V32.1167ZM15 34C14.7444 34 14.5139 33.9 14.3083 33.7C14.1028 33.5 14 33.2667 14 33V23C14 22.7444 14.1028 22.5139 14.3083 22.3083C14.5139 22.1028 14.7444 22 15 22H25C25.2667 22 25.5 22.1028 25.7 22.3083C25.9 22.5139 26 22.7444 26 23V25.2333H25V23H15V33H25V30.7833H26V33C26 33.2667 25.9 33.5 25.7 33.7C25.5 33.9 25.2667 34 25 34H15ZM20.9667 31.1167C20.5889 31.1167 20.2889 31.0056 20.0667 30.7833C19.8444 30.5611 19.7333 30.2667 19.7333 29.9V26.1167C19.7333 25.7389 19.8444 25.4417 20.0667 25.225C20.2889 25.0083 20.5889 24.9 20.9667 24.9H25.4667C25.8444 24.9 26.1444 25.0083 26.3667 25.225C26.5889 25.4417 26.7 25.7389 26.7 26.1167V29.9C26.7 30.2667 26.5889 30.5611 26.3667 30.7833C26.1444 31.0056 25.8444 31.1167 25.4667 31.1167H20.9667ZM25.7 30.1167V25.9H20.7333V30.1167H25.7Z" fill="#070706"/>
<path d="M21.781 28.579C21.5207 28.3186 21.5207 27.8965 21.781 27.6362L22.7239 26.6934C22.9842 26.433 23.4063 26.433 23.6667 26.6934L24.6095 27.6362C24.8698 27.8965 24.8698 28.3186 24.6095 28.579L23.6667 29.5218C23.4063 29.7821 22.9842 29.7821 22.7239 29.5218L21.781 28.579Z" fill="#070706"/>
</svg>
