<svg width="357" height="70" viewBox="0 0 357 70" fill="none" xmlns="http://www.w3.org/2000/svg">
<path d="M15 41C13.1711 41.4117 12 42.0443 12 42.7537C12 43.9943 15.5817 45 20 45C24.4183 45 28 43.9943 28 42.7537C28 42.0443 26.8289 41.4117 25 41" stroke="#00A9A2" stroke-width="1.5" stroke-linecap="round"/>
<path d="M21.2574 40.4936C20.9201 40.8184 20.4693 41 20.0002 41C19.531 41 19.0802 40.8184 18.7429 40.4936C15.6543 37.5008 11.5152 34.1575 13.5337 29.3037C14.6251 26.6793 17.2449 25 20.0002 25C22.7554 25 25.3752 26.6793 26.4666 29.3037C28.4826 34.1514 24.3536 37.5111 21.2574 40.4936Z" stroke="#00A9A2" stroke-width="1.5"/>
<path d="M23.999 31.9796C23.9995 31.6959 23.8904 31.4112 23.6731 31.1956L20.7879 28.3266C20.5697 28.11 20.2844 28.002 19.999 28.002C19.7132 28.002 19.4274 28.11 19.2101 28.3266L16.3254 31.1947C16.1072 31.4116 15.999 31.6959 15.999 31.9801C15.999 32.2638 16.1072 32.548 16.3254 32.7646L19.2101 35.6341C19.4279 35.8501 19.7141 35.9586 19.999 35.9577C20.2844 35.9577 20.5697 35.8501 20.7879 35.6331L23.6726 32.765C23.8899 32.548 23.999 32.2634 23.999 31.9796Z" fill="#FF4300"/>
<path d="M45.264 12.2C45.9453 12.2 46.5473 12.3307 47.07 12.592C47.5927 12.844 48.0267 13.1987 48.372 13.656C48.7267 14.104 48.9927 14.6267 49.17 15.224C49.3473 15.812 49.436 16.4373 49.436 17.1C49.436 18.0053 49.2773 18.8313 48.96 19.578C48.6427 20.3153 48.176 20.9033 47.56 21.342C46.944 21.7807 46.1787 22 45.264 22H41.848C41.652 22 41.484 21.9347 41.344 21.804C41.204 21.664 41.134 21.4913 41.134 21.286V12.914C41.134 12.7087 41.204 12.5407 41.344 12.41C41.484 12.27 41.652 12.2 41.848 12.2H45.264ZM45.124 20.656C45.7867 20.656 46.3233 20.4927 46.734 20.166C47.1447 19.8393 47.4433 19.41 47.63 18.878C47.826 18.3367 47.924 17.744 47.924 17.1C47.924 16.624 47.868 16.176 47.756 15.756C47.6533 15.3267 47.4853 14.9487 47.252 14.622C47.028 14.286 46.7387 14.0247 46.384 13.838C46.0387 13.642 45.6187 13.544 45.124 13.544H42.478L42.604 13.418V20.796L42.52 20.656H45.124ZM54.5409 22.14C53.7662 22.14 53.0942 21.9813 52.5249 21.664C51.9555 21.3373 51.5122 20.894 51.1949 20.334C50.8869 19.7647 50.7329 19.116 50.7329 18.388C50.7329 17.5667 50.8962 16.8667 51.2229 16.288C51.5589 15.7 51.9929 15.252 52.5249 14.944C53.0569 14.6267 53.6215 14.468 54.2189 14.468C54.6762 14.468 55.1102 14.5613 55.5209 14.748C55.9315 14.9253 56.2955 15.1773 56.6129 15.504C56.9395 15.8213 57.1962 16.1993 57.3829 16.638C57.5695 17.0673 57.6675 17.5387 57.6769 18.052C57.6675 18.2387 57.5929 18.3927 57.4529 18.514C57.3129 18.6353 57.1495 18.696 56.9629 18.696H51.5169L51.1809 17.506H56.4449L56.1789 17.758V17.408C56.1602 17.0813 56.0529 16.7967 55.8569 16.554C55.6609 16.302 55.4182 16.1107 55.1289 15.98C54.8395 15.84 54.5362 15.77 54.2189 15.77C53.9389 15.77 53.6682 15.8167 53.4069 15.91C53.1549 15.994 52.9262 16.134 52.7209 16.33C52.5249 16.526 52.3662 16.7873 52.2449 17.114C52.1329 17.4313 52.0769 17.828 52.0769 18.304C52.0769 18.8173 52.1842 19.2653 52.3989 19.648C52.6135 20.0307 52.9029 20.3293 53.2669 20.544C53.6309 20.7493 54.0322 20.852 54.4709 20.852C54.8162 20.852 55.1009 20.8193 55.3249 20.754C55.5489 20.6793 55.7355 20.5907 55.8849 20.488C56.0342 20.3853 56.1649 20.2873 56.2769 20.194C56.4169 20.11 56.5569 20.068 56.6969 20.068C56.8649 20.068 57.0049 20.1287 57.1169 20.25C57.2289 20.362 57.2849 20.4973 57.2849 20.656C57.2849 20.8613 57.1822 21.048 56.9769 21.216C56.7249 21.4587 56.3749 21.6733 55.9269 21.86C55.4882 22.0467 55.0262 22.14 54.5409 22.14ZM60.7713 21.286C60.7713 21.4913 60.7013 21.664 60.5613 21.804C60.4306 21.9347 60.2673 22 60.0713 22C59.8753 22 59.7073 21.9347 59.5673 21.804C59.4366 21.664 59.3713 21.4913 59.3713 21.286V12.354C59.3713 12.1487 59.4413 11.9807 59.5813 11.85C59.7213 11.71 59.8893 11.64 60.0853 11.64C60.2906 11.64 60.454 11.71 60.5753 11.85C60.706 11.9807 60.7713 12.1487 60.7713 12.354V21.286ZM64.171 21.286C64.171 21.4913 64.1057 21.664 63.975 21.804C63.8443 21.9347 63.6763 22 63.471 22C63.275 22 63.107 21.9347 62.967 21.804C62.8363 21.664 62.771 21.4913 62.771 21.286V15.294C62.771 15.0887 62.8363 14.9207 62.967 14.79C63.107 14.65 63.275 14.58 63.471 14.58C63.6763 14.58 63.8443 14.65 63.975 14.79C64.1057 14.9207 64.171 15.0887 64.171 15.294V21.286ZM63.457 13.656C63.1863 13.656 62.9903 13.6093 62.869 13.516C62.7477 13.4133 62.687 13.2453 62.687 13.012V12.788C62.687 12.5547 62.7523 12.3913 62.883 12.298C63.0137 12.2047 63.2097 12.158 63.471 12.158C63.751 12.158 63.9517 12.2093 64.073 12.312C64.1943 12.4053 64.255 12.564 64.255 12.788V13.012C64.255 13.2547 64.1897 13.4227 64.059 13.516C63.9377 13.6093 63.737 13.656 63.457 13.656ZM66.2222 14.566C66.3622 14.566 66.4929 14.6033 66.6142 14.678C66.7449 14.7527 66.8382 14.8647 66.8942 15.014L69.0922 20.096L68.8262 20.222L71.0522 15.028C71.1829 14.72 71.3929 14.5707 71.6822 14.58C71.8689 14.58 72.0229 14.6407 72.1442 14.762C72.2749 14.874 72.3402 15.0233 72.3402 15.21C72.3402 15.266 72.3309 15.3267 72.3122 15.392C72.2936 15.448 72.2702 15.504 72.2422 15.56L69.5822 21.552C69.4609 21.832 69.2602 21.9813 68.9802 22C68.8402 22.0187 68.7002 21.9907 68.5602 21.916C68.4296 21.832 68.3269 21.7107 68.2522 21.552L65.6062 15.56C65.5876 15.5227 65.5689 15.476 65.5502 15.42C65.5316 15.3547 65.5222 15.28 65.5222 15.196C65.5222 15.056 65.5829 14.916 65.7042 14.776C65.8349 14.636 66.0076 14.566 66.2222 14.566ZM77.1268 22.14C76.3521 22.14 75.6801 21.9813 75.1108 21.664C74.5415 21.3373 74.0981 20.894 73.7808 20.334C73.4728 19.7647 73.3188 19.116 73.3188 18.388C73.3188 17.5667 73.4821 16.8667 73.8088 16.288C74.1448 15.7 74.5788 15.252 75.1108 14.944C75.6428 14.6267 76.2075 14.468 76.8048 14.468C77.2621 14.468 77.6961 14.5613 78.1068 14.748C78.5175 14.9253 78.8815 15.1773 79.1988 15.504C79.5255 15.8213 79.7821 16.1993 79.9688 16.638C80.1555 17.0673 80.2535 17.5387 80.2628 18.052C80.2535 18.2387 80.1788 18.3927 80.0388 18.514C79.8988 18.6353 79.7355 18.696 79.5488 18.696H74.1028L73.7668 17.506H79.0308L78.7648 17.758V17.408C78.7461 17.0813 78.6388 16.7967 78.4428 16.554C78.2468 16.302 78.0041 16.1107 77.7148 15.98C77.4255 15.84 77.1221 15.77 76.8048 15.77C76.5248 15.77 76.2541 15.8167 75.9928 15.91C75.7408 15.994 75.5121 16.134 75.3068 16.33C75.1108 16.526 74.9521 16.7873 74.8308 17.114C74.7188 17.4313 74.6628 17.828 74.6628 18.304C74.6628 18.8173 74.7701 19.2653 74.9848 19.648C75.1995 20.0307 75.4888 20.3293 75.8528 20.544C76.2168 20.7493 76.6181 20.852 77.0568 20.852C77.4021 20.852 77.6868 20.8193 77.9108 20.754C78.1348 20.6793 78.3215 20.5907 78.4708 20.488C78.6201 20.3853 78.7508 20.2873 78.8628 20.194C79.0028 20.11 79.1428 20.068 79.2828 20.068C79.4508 20.068 79.5908 20.1287 79.7028 20.25C79.8148 20.362 79.8708 20.4973 79.8708 20.656C79.8708 20.8613 79.7681 21.048 79.5628 21.216C79.3108 21.4587 78.9608 21.6733 78.5128 21.86C78.0741 22.0467 77.6121 22.14 77.1268 22.14ZM82.5452 22C82.3399 22 82.1719 21.9347 82.0412 21.804C81.9106 21.664 81.8452 21.4913 81.8452 21.286V15.35C81.8452 15.1447 81.9106 14.9767 82.0412 14.846C82.1719 14.706 82.3399 14.636 82.5452 14.636C82.7412 14.636 82.9046 14.706 83.0352 14.846C83.1752 14.9767 83.2452 15.1447 83.2452 15.35V16.918L83.1052 16.316C83.1799 16.0547 83.2919 15.812 83.4412 15.588C83.5999 15.364 83.7866 15.168 84.0012 15C84.2159 14.832 84.4539 14.7013 84.7152 14.608C84.9859 14.5147 85.2659 14.468 85.5552 14.468C85.7979 14.468 86.0079 14.5333 86.1852 14.664C86.3626 14.7947 86.4512 14.958 86.4512 15.154C86.4512 15.406 86.3859 15.5927 86.2552 15.714C86.1246 15.826 85.9799 15.882 85.8212 15.882C85.6812 15.882 85.5459 15.854 85.4152 15.798C85.2846 15.7327 85.1306 15.7 84.9532 15.7C84.7572 15.7 84.5566 15.7513 84.3512 15.854C84.1459 15.9567 83.9592 16.1107 83.7912 16.316C83.6232 16.512 83.4879 16.7453 83.3852 17.016C83.2919 17.2867 83.2452 17.59 83.2452 17.926V21.286C83.2452 21.4913 83.1752 21.664 83.0352 21.804C82.9046 21.9347 82.7412 22 82.5452 22ZM93.1708 14.58C93.3761 14.58 93.5441 14.65 93.6748 14.79C93.8055 14.9207 93.8708 15.0887 93.8708 15.294V21.314C93.8708 22.1353 93.7121 22.8027 93.3948 23.316C93.0868 23.8293 92.6668 24.2027 92.1348 24.436C91.6121 24.6787 91.0195 24.8 90.3568 24.8C90.0208 24.8 89.6848 24.7673 89.3488 24.702C89.0128 24.646 88.7375 24.562 88.5228 24.45C88.2988 24.3473 88.1401 24.2213 88.0468 24.072C87.9535 23.9227 87.9395 23.7593 88.0048 23.582C88.0701 23.358 88.1821 23.204 88.3408 23.12C88.4995 23.0453 88.6628 23.0407 88.8308 23.106C88.9895 23.1713 89.1995 23.2553 89.4608 23.358C89.7221 23.4607 90.0208 23.512 90.3568 23.512C90.8141 23.512 91.2015 23.4373 91.5188 23.288C91.8361 23.1387 92.0741 22.9053 92.2328 22.588C92.4008 22.2707 92.4848 21.86 92.4848 21.356V20.39L92.7088 20.726C92.5595 21.034 92.3635 21.2907 92.1208 21.496C91.8781 21.7013 91.5888 21.86 91.2528 21.972C90.9261 22.084 90.5621 22.14 90.1608 22.14C89.6475 22.14 89.2041 22.028 88.8308 21.804C88.4668 21.5707 88.1868 21.2533 87.9908 20.852C87.7948 20.4413 87.6968 19.9747 87.6968 19.452V15.294C87.6968 15.0887 87.7621 14.9207 87.8928 14.79C88.0235 14.65 88.1915 14.58 88.3968 14.58C88.5928 14.58 88.7561 14.65 88.8868 14.79C89.0268 14.9207 89.0968 15.0887 89.0968 15.294V19.074C89.0968 19.69 89.2321 20.1427 89.5028 20.432C89.7735 20.712 90.1748 20.852 90.7068 20.852C91.0615 20.852 91.3695 20.7773 91.6308 20.628C91.8921 20.4787 92.0975 20.2733 92.2468 20.012C92.3961 19.7413 92.4708 19.4287 92.4708 19.074V15.294C92.4708 15.0887 92.5361 14.9207 92.6668 14.79C92.8068 14.65 92.9748 14.58 93.1708 14.58ZM99.63 14.72H102.92C103.107 14.72 103.261 14.7853 103.382 14.916C103.513 15.0373 103.578 15.1913 103.578 15.378C103.578 15.5553 103.513 15.7047 103.382 15.826C103.261 15.9473 103.107 16.008 102.92 16.008H99.63C99.4434 16.008 99.2847 15.9473 99.154 15.826C99.0327 15.6953 98.972 15.5413 98.972 15.364C98.972 15.1773 99.0327 15.0233 99.154 14.902C99.2847 14.7807 99.4434 14.72 99.63 14.72ZM101.1 12.9C101.305 12.9 101.473 12.97 101.604 13.11C101.735 13.2407 101.8 13.4087 101.8 13.614V20.11C101.8 20.278 101.828 20.4133 101.884 20.516C101.94 20.6187 102.015 20.6887 102.108 20.726C102.211 20.7633 102.313 20.782 102.416 20.782C102.519 20.782 102.607 20.7633 102.682 20.726C102.766 20.6887 102.864 20.67 102.976 20.67C103.088 20.67 103.191 20.7213 103.284 20.824C103.377 20.9267 103.424 21.0667 103.424 21.244C103.424 21.468 103.303 21.65 103.06 21.79C102.817 21.93 102.556 22 102.276 22C102.117 22 101.931 21.986 101.716 21.958C101.501 21.93 101.291 21.86 101.086 21.748C100.89 21.636 100.727 21.4587 100.596 21.216C100.465 20.964 100.4 20.614 100.4 20.166V13.614C100.4 13.4087 100.465 13.2407 100.596 13.11C100.736 12.97 100.904 12.9 101.1 12.9ZM112.116 18.318C112.116 19.0647 111.953 19.7273 111.626 20.306C111.299 20.8753 110.856 21.3233 110.296 21.65C109.736 21.9767 109.106 22.14 108.406 22.14C107.706 22.14 107.076 21.9767 106.516 21.65C105.956 21.3233 105.508 20.8753 105.172 20.306C104.845 19.7273 104.682 19.0647 104.682 18.318C104.682 17.562 104.845 16.8993 105.172 16.33C105.508 15.7513 105.956 15.2987 106.516 14.972C107.076 14.636 107.706 14.468 108.406 14.468C109.106 14.468 109.736 14.636 110.296 14.972C110.856 15.2987 111.299 15.7513 111.626 16.33C111.953 16.8993 112.116 17.562 112.116 18.318ZM110.716 18.318C110.716 17.8047 110.613 17.3613 110.408 16.988C110.203 16.6053 109.923 16.3067 109.568 16.092C109.223 15.868 108.835 15.756 108.406 15.756C107.977 15.756 107.585 15.868 107.23 16.092C106.875 16.3067 106.595 16.6053 106.39 16.988C106.185 17.3613 106.082 17.8047 106.082 18.318C106.082 18.8127 106.185 19.2513 106.39 19.634C106.595 20.0167 106.875 20.3153 107.23 20.53C107.585 20.7447 107.977 20.852 108.406 20.852C108.835 20.852 109.223 20.7447 109.568 20.53C109.923 20.3153 110.203 20.0167 110.408 19.634C110.613 19.2513 110.716 18.8127 110.716 18.318ZM114.359 16.4C114.125 16.4 113.943 16.3393 113.813 16.218C113.691 16.0873 113.631 15.9053 113.631 15.672V15.406C113.631 15.1727 113.691 14.9907 113.813 14.86C113.943 14.7293 114.125 14.664 114.359 14.664H114.513C114.746 14.664 114.923 14.7293 115.045 14.86C115.166 14.9907 115.227 15.1727 115.227 15.406V15.672C115.227 15.9053 115.166 16.0873 115.045 16.218C114.923 16.3393 114.746 16.4 114.513 16.4H114.359ZM114.359 22C114.125 22 113.943 21.9347 113.813 21.804C113.691 21.6733 113.631 21.4913 113.631 21.258V21.006C113.631 20.7633 113.691 20.5813 113.813 20.46C113.943 20.3293 114.125 20.264 114.359 20.264H114.513C114.746 20.264 114.923 20.3293 115.045 20.46C115.166 20.5813 115.227 20.7633 115.227 21.006V21.258C115.227 21.4913 115.166 21.6733 115.045 21.804C114.923 21.9347 114.746 22 114.513 22H114.359Z" fill="#111111" fill-opacity="0.6"/>
<path d="M44.144 40.14C43.472 40.14 42.8747 40.0467 42.352 39.86C41.8293 39.6733 41.33 39.3653 40.854 38.936C40.7513 38.8613 40.672 38.7727 40.616 38.67C40.5693 38.558 40.546 38.446 40.546 38.334C40.546 38.1567 40.6113 37.998 40.742 37.858C40.8727 37.718 41.036 37.648 41.232 37.648C41.3813 37.648 41.5213 37.6993 41.652 37.802C42.0067 38.1287 42.3753 38.376 42.758 38.544C43.15 38.712 43.6073 38.796 44.13 38.796C44.5033 38.796 44.844 38.7353 45.152 38.614C45.4693 38.4927 45.7213 38.3293 45.908 38.124C46.0947 37.9187 46.188 37.6807 46.188 37.41C46.188 37.074 46.09 36.7987 45.894 36.584C45.7073 36.36 45.432 36.178 45.068 36.038C44.7133 35.8887 44.284 35.7627 43.78 35.66C43.3133 35.576 42.8933 35.4593 42.52 35.31C42.156 35.1607 41.8433 34.974 41.582 34.75C41.3207 34.5167 41.12 34.2413 40.98 33.924C40.84 33.6067 40.77 33.238 40.77 32.818C40.77 32.2487 40.9193 31.7587 41.218 31.348C41.5167 30.9373 41.9227 30.62 42.436 30.396C42.9493 30.172 43.528 30.06 44.172 30.06C44.76 30.06 45.3107 30.1533 45.824 30.34C46.3373 30.5173 46.7527 30.76 47.07 31.068C47.294 31.264 47.406 31.474 47.406 31.698C47.406 31.866 47.336 32.0247 47.196 32.174C47.0653 32.314 46.9113 32.384 46.734 32.384C46.6033 32.384 46.4913 32.3467 46.398 32.272C46.2487 32.1133 46.048 31.9733 45.796 31.852C45.544 31.7213 45.2733 31.614 44.984 31.53C44.704 31.446 44.4333 31.404 44.172 31.404C43.752 31.404 43.3927 31.4647 43.094 31.586C42.7953 31.698 42.5667 31.8567 42.408 32.062C42.2493 32.258 42.17 32.4913 42.17 32.762C42.17 33.0793 42.2587 33.3407 42.436 33.546C42.6227 33.7513 42.8793 33.9193 43.206 34.05C43.5327 34.1713 43.906 34.2833 44.326 34.386C44.8393 34.498 45.2967 34.624 45.698 34.764C46.1087 34.904 46.454 35.086 46.734 35.31C47.014 35.5247 47.2287 35.7953 47.378 36.122C47.5273 36.4487 47.602 36.8547 47.602 37.34C47.602 37.9 47.4433 38.39 47.126 38.81C46.8087 39.23 46.3887 39.5567 45.866 39.79C45.3527 40.0233 44.7787 40.14 44.144 40.14ZM54.6575 32.636C54.8535 32.636 55.0168 32.706 55.1475 32.846C55.2875 32.9767 55.3575 33.1447 55.3575 33.35V37.032C55.3575 38.0027 55.0868 38.7633 54.5455 39.314C54.0041 39.8553 53.2388 40.126 52.2495 40.126C51.2695 40.126 50.5088 39.8553 49.9675 39.314C49.4355 38.7633 49.1695 38.0027 49.1695 37.032V33.35C49.1695 33.1447 49.2348 32.9767 49.3655 32.846C49.4961 32.706 49.6641 32.636 49.8695 32.636C50.0655 32.636 50.2288 32.706 50.3595 32.846C50.4995 32.9767 50.5695 33.1447 50.5695 33.35V37.032C50.5695 37.6387 50.7095 38.0913 50.9895 38.39C51.2788 38.6887 51.6988 38.838 52.2495 38.838C52.8095 38.838 53.2341 38.6887 53.5235 38.39C53.8128 38.0913 53.9575 37.6387 53.9575 37.032V33.35C53.9575 33.1447 54.0228 32.9767 54.1535 32.846C54.2841 32.706 54.4521 32.636 54.6575 32.636ZM58.8162 39.286C58.8162 39.4913 58.7462 39.664 58.6062 39.804C58.4756 39.9347 58.3122 40 58.1162 40C57.9202 40 57.7522 39.9347 57.6122 39.804C57.4816 39.664 57.4162 39.4913 57.4162 39.286V30.354C57.4162 30.1487 57.4862 29.9807 57.6262 29.85C57.7662 29.71 57.9342 29.64 58.1302 29.64C58.3356 29.64 58.4989 29.71 58.6202 29.85C58.7509 29.9807 58.8162 30.1487 58.8162 30.354V39.286ZM66.9339 32.524C67.1393 32.524 67.3073 32.594 67.4379 32.734C67.5686 32.8647 67.6339 33.0327 67.6339 33.238V39.286C67.6339 39.4913 67.5686 39.664 67.4379 39.804C67.3073 39.9347 67.1393 40 66.9339 40C66.7379 40 66.5699 39.9347 66.4299 39.804C66.2993 39.664 66.2339 39.4913 66.2339 39.286V38.278L66.5279 38.32C66.5279 38.488 66.4579 38.6747 66.3179 38.88C66.1873 39.0853 66.0053 39.286 65.7719 39.482C65.5386 39.6687 65.2633 39.8273 64.9459 39.958C64.6286 40.0793 64.2879 40.14 63.9239 40.14C63.2799 40.14 62.7013 39.9767 62.1879 39.65C61.6746 39.314 61.2686 38.8567 60.9699 38.278C60.6713 37.6993 60.5219 37.0413 60.5219 36.304C60.5219 35.548 60.6713 34.8853 60.9699 34.316C61.2686 33.7373 61.6699 33.2847 62.1739 32.958C62.6873 32.6313 63.2566 32.468 63.8819 32.468C64.2833 32.468 64.6519 32.5333 64.9879 32.664C65.3333 32.7947 65.6319 32.9627 65.8839 33.168C66.1359 33.3733 66.3273 33.5927 66.4579 33.826C66.5979 34.05 66.6679 34.2647 66.6679 34.47L66.2339 34.512V33.238C66.2339 33.042 66.2993 32.874 66.4299 32.734C66.5699 32.594 66.7379 32.524 66.9339 32.524ZM64.0779 38.852C64.5166 38.852 64.9039 38.74 65.2399 38.516C65.5759 38.292 65.8373 37.9887 66.0239 37.606C66.2106 37.214 66.3039 36.78 66.3039 36.304C66.3039 35.8187 66.2106 35.3847 66.0239 35.002C65.8373 34.6193 65.5759 34.316 65.2399 34.092C64.9039 33.868 64.5166 33.756 64.0779 33.756C63.6486 33.756 63.2659 33.868 62.9299 34.092C62.6033 34.316 62.3419 34.6193 62.1459 35.002C61.9593 35.3847 61.8659 35.8187 61.8659 36.304C61.8659 36.78 61.9593 37.214 62.1459 37.606C62.3419 37.9887 62.6033 38.292 62.9299 38.516C63.2659 38.74 63.6486 38.852 64.0779 38.852ZM70.9112 39.286C70.9112 39.4913 70.8459 39.664 70.7152 39.804C70.5846 39.9347 70.4166 40 70.2112 40C70.0152 40 69.8472 39.9347 69.7072 39.804C69.5766 39.664 69.5112 39.4913 69.5112 39.286V33.294C69.5112 33.0887 69.5766 32.9207 69.7072 32.79C69.8472 32.65 70.0152 32.58 70.2112 32.58C70.4166 32.58 70.5846 32.65 70.7152 32.79C70.8459 32.9207 70.9112 33.0887 70.9112 33.294V39.286ZM70.1972 31.656C69.9266 31.656 69.7306 31.6093 69.6092 31.516C69.4879 31.4133 69.4272 31.2453 69.4272 31.012V30.788C69.4272 30.5547 69.4926 30.3913 69.6232 30.298C69.7539 30.2047 69.9499 30.158 70.2112 30.158C70.4912 30.158 70.6919 30.2093 70.8132 30.312C70.9346 30.4053 70.9952 30.564 70.9952 30.788V31.012C70.9952 31.2547 70.9299 31.4227 70.7992 31.516C70.6779 31.6093 70.4772 31.656 70.1972 31.656ZM76.4905 32.51C77.1811 32.51 77.7131 32.6827 78.0865 33.028C78.4598 33.364 78.7071 33.8213 78.8285 34.4L78.6045 34.33L78.7025 34.106C78.8238 33.8633 79.0058 33.6207 79.2485 33.378C79.5005 33.126 79.7991 32.9207 80.1445 32.762C80.4898 32.594 80.8585 32.51 81.2505 32.51C81.8945 32.51 82.3938 32.65 82.7485 32.93C83.1031 33.2007 83.3505 33.5693 83.4905 34.036C83.6305 34.4933 83.7005 35.0067 83.7005 35.576V39.286C83.7005 39.4913 83.6351 39.664 83.5045 39.804C83.3738 39.9347 83.2058 40 83.0005 40C82.8045 40 82.6365 39.9347 82.4965 39.804C82.3658 39.664 82.3005 39.4913 82.3005 39.286V35.59C82.3005 35.2633 82.2538 34.9647 82.1605 34.694C82.0765 34.4233 81.9225 34.2087 81.6985 34.05C81.4838 33.882 81.1851 33.798 80.8025 33.798C80.4385 33.798 80.1118 33.882 79.8225 34.05C79.5425 34.2087 79.3231 34.4233 79.1645 34.694C79.0058 34.9647 78.9265 35.2633 78.9265 35.59V39.286C78.9265 39.4913 78.8611 39.664 78.7305 39.804C78.5998 39.9347 78.4318 40 78.2265 40C78.0211 40 77.8531 39.9347 77.7225 39.804C77.5918 39.664 77.5265 39.4913 77.5265 39.286V35.576C77.5265 35.2493 77.4798 34.9507 77.3865 34.68C77.3025 34.4093 77.1531 34.1947 76.9385 34.036C76.7238 33.8773 76.4251 33.798 76.0425 33.798C75.6785 33.798 75.3565 33.8773 75.0765 34.036C74.7965 34.1947 74.5771 34.4093 74.4185 34.68C74.2691 34.9507 74.1945 35.2493 74.1945 35.576V39.286C74.1945 39.4913 74.1245 39.664 73.9845 39.804C73.8538 39.9347 73.6905 40 73.4945 40C73.2891 40 73.1211 39.9347 72.9905 39.804C72.8598 39.664 72.7945 39.4913 72.7945 39.286V33.35C72.7945 33.1447 72.8598 32.9767 72.9905 32.846C73.1211 32.706 73.2891 32.636 73.4945 32.636C73.6905 32.636 73.8538 32.706 73.9845 32.846C74.1245 32.9767 74.1945 33.1447 74.1945 33.35V34.176L73.9285 34.33C73.9938 34.1247 74.1011 33.9147 74.2505 33.7C74.3998 33.4853 74.5865 33.2893 74.8105 33.112C75.0438 32.9347 75.3005 32.79 75.5805 32.678C75.8605 32.566 76.1638 32.51 76.4905 32.51ZM91.6937 32.524C91.899 32.524 92.067 32.594 92.1977 32.734C92.3284 32.8647 92.3937 33.0327 92.3937 33.238V39.286C92.3937 39.4913 92.3284 39.664 92.1977 39.804C92.067 39.9347 91.899 40 91.6937 40C91.4977 40 91.3297 39.9347 91.1897 39.804C91.059 39.664 90.9937 39.4913 90.9937 39.286V38.278L91.2877 38.32C91.2877 38.488 91.2177 38.6747 91.0777 38.88C90.947 39.0853 90.765 39.286 90.5317 39.482C90.2984 39.6687 90.023 39.8273 89.7057 39.958C89.3884 40.0793 89.0477 40.14 88.6837 40.14C88.0397 40.14 87.461 39.9767 86.9477 39.65C86.4344 39.314 86.0284 38.8567 85.7297 38.278C85.431 37.6993 85.2817 37.0413 85.2817 36.304C85.2817 35.548 85.431 34.8853 85.7297 34.316C86.0284 33.7373 86.4297 33.2847 86.9337 32.958C87.447 32.6313 88.0164 32.468 88.6417 32.468C89.043 32.468 89.4117 32.5333 89.7477 32.664C90.093 32.7947 90.3917 32.9627 90.6437 33.168C90.8957 33.3733 91.087 33.5927 91.2177 33.826C91.3577 34.05 91.4277 34.2647 91.4277 34.47L90.9937 34.512V33.238C90.9937 33.042 91.059 32.874 91.1897 32.734C91.3297 32.594 91.4977 32.524 91.6937 32.524ZM88.8377 38.852C89.2764 38.852 89.6637 38.74 89.9997 38.516C90.3357 38.292 90.597 37.9887 90.7837 37.606C90.9704 37.214 91.0637 36.78 91.0637 36.304C91.0637 35.8187 90.9704 35.3847 90.7837 35.002C90.597 34.6193 90.3357 34.316 89.9997 34.092C89.6637 33.868 89.2764 33.756 88.8377 33.756C88.4084 33.756 88.0257 33.868 87.6897 34.092C87.363 34.316 87.1017 34.6193 86.9057 35.002C86.719 35.3847 86.6257 35.8187 86.6257 36.304C86.6257 36.78 86.719 37.214 86.9057 37.606C87.1017 37.9887 87.363 38.292 87.6897 38.516C88.0257 38.74 88.4084 38.852 88.8377 38.852ZM98.149 32.468C98.8117 32.468 99.325 32.608 99.689 32.888C100.053 33.1587 100.305 33.5273 100.445 33.994C100.594 34.4513 100.669 34.9647 100.669 35.534V39.286C100.669 39.4913 100.599 39.664 100.459 39.804C100.328 39.9347 100.165 40 99.969 40C99.7637 40 99.5957 39.9347 99.465 39.804C99.3343 39.664 99.269 39.4913 99.269 39.286V35.548C99.269 35.212 99.2223 34.9133 99.129 34.652C99.0357 34.3813 98.8723 34.1667 98.639 34.008C98.415 33.84 98.0977 33.756 97.687 33.756C97.3043 33.756 96.9683 33.84 96.679 34.008C96.3897 34.1667 96.161 34.3813 95.993 34.652C95.8343 34.9133 95.755 35.212 95.755 35.548V39.286C95.755 39.4913 95.685 39.664 95.545 39.804C95.4143 39.9347 95.251 40 95.055 40C94.8497 40 94.6817 39.9347 94.551 39.804C94.4203 39.664 94.355 39.4913 94.355 39.286V33.35C94.355 33.1447 94.4203 32.9767 94.551 32.846C94.6817 32.706 94.8497 32.636 95.055 32.636C95.251 32.636 95.4143 32.706 95.545 32.846C95.685 32.9767 95.755 33.1447 95.755 33.35V34.134L95.503 34.274C95.5683 34.0687 95.6803 33.8633 95.839 33.658C96.007 33.4433 96.2077 33.2473 96.441 33.07C96.6743 32.8833 96.9357 32.7387 97.225 32.636C97.5143 32.524 97.8223 32.468 98.149 32.468ZM103.929 39.286C103.929 39.4913 103.863 39.664 103.733 39.804C103.602 39.9347 103.434 40 103.229 40C103.033 40 102.865 39.9347 102.725 39.804C102.594 39.664 102.529 39.4913 102.529 39.286V33.294C102.529 33.0887 102.594 32.9207 102.725 32.79C102.865 32.65 103.033 32.58 103.229 32.58C103.434 32.58 103.602 32.65 103.733 32.79C103.863 32.9207 103.929 33.0887 103.929 33.294V39.286ZM103.215 31.656C102.944 31.656 102.748 31.6093 102.627 31.516C102.505 31.4133 102.445 31.2453 102.445 31.012V30.788C102.445 30.5547 102.51 30.3913 102.641 30.298C102.771 30.2047 102.967 30.158 103.229 30.158C103.509 30.158 103.709 30.2093 103.831 30.312C103.952 30.4053 104.013 30.564 104.013 30.788V31.012C104.013 31.2547 103.947 31.4227 103.817 31.516C103.695 31.6093 103.495 31.656 103.215 31.656ZM111.286 32.58C111.491 32.58 111.659 32.65 111.79 32.79C111.921 32.9207 111.986 33.0887 111.986 33.294V39.314C111.986 40.1353 111.827 40.8027 111.51 41.316C111.202 41.8293 110.782 42.2027 110.25 42.436C109.727 42.6787 109.135 42.8 108.472 42.8C108.136 42.8 107.8 42.7673 107.464 42.702C107.128 42.646 106.853 42.562 106.638 42.45C106.414 42.3473 106.255 42.2213 106.162 42.072C106.069 41.9227 106.055 41.7593 106.12 41.582C106.185 41.358 106.297 41.204 106.456 41.12C106.615 41.0453 106.778 41.0407 106.946 41.106C107.105 41.1713 107.315 41.2553 107.576 41.358C107.837 41.4607 108.136 41.512 108.472 41.512C108.929 41.512 109.317 41.4373 109.634 41.288C109.951 41.1387 110.189 40.9053 110.348 40.588C110.516 40.2707 110.6 39.86 110.6 39.356V38.39L110.824 38.726C110.675 39.034 110.479 39.2907 110.236 39.496C109.993 39.7013 109.704 39.86 109.368 39.972C109.041 40.084 108.677 40.14 108.276 40.14C107.763 40.14 107.319 40.028 106.946 39.804C106.582 39.5707 106.302 39.2533 106.106 38.852C105.91 38.4413 105.812 37.9747 105.812 37.452V33.294C105.812 33.0887 105.877 32.9207 106.008 32.79C106.139 32.65 106.307 32.58 106.512 32.58C106.708 32.58 106.871 32.65 107.002 32.79C107.142 32.9207 107.212 33.0887 107.212 33.294V37.074C107.212 37.69 107.347 38.1427 107.618 38.432C107.889 38.712 108.29 38.852 108.822 38.852C109.177 38.852 109.485 38.7773 109.746 38.628C110.007 38.4787 110.213 38.2733 110.362 38.012C110.511 37.7413 110.586 37.4287 110.586 37.074V33.294C110.586 33.0887 110.651 32.9207 110.782 32.79C110.922 32.65 111.09 32.58 111.286 32.58ZM119.981 32.524C120.186 32.524 120.354 32.594 120.485 32.734C120.615 32.8647 120.681 33.0327 120.681 33.238V39.286C120.681 39.4913 120.615 39.664 120.485 39.804C120.354 39.9347 120.186 40 119.981 40C119.785 40 119.617 39.9347 119.477 39.804C119.346 39.664 119.281 39.4913 119.281 39.286V38.278L119.575 38.32C119.575 38.488 119.505 38.6747 119.365 38.88C119.234 39.0853 119.052 39.286 118.819 39.482C118.585 39.6687 118.31 39.8273 117.993 39.958C117.675 40.0793 117.335 40.14 116.971 40.14C116.327 40.14 115.748 39.9767 115.235 39.65C114.721 39.314 114.315 38.8567 114.017 38.278C113.718 37.6993 113.569 37.0413 113.569 36.304C113.569 35.548 113.718 34.8853 114.017 34.316C114.315 33.7373 114.717 33.2847 115.221 32.958C115.734 32.6313 116.303 32.468 116.929 32.468C117.33 32.468 117.699 32.5333 118.035 32.664C118.38 32.7947 118.679 32.9627 118.931 33.168C119.183 33.3733 119.374 33.5927 119.505 33.826C119.645 34.05 119.715 34.2647 119.715 34.47L119.281 34.512V33.238C119.281 33.042 119.346 32.874 119.477 32.734C119.617 32.594 119.785 32.524 119.981 32.524ZM117.125 38.852C117.563 38.852 117.951 38.74 118.287 38.516C118.623 38.292 118.884 37.9887 119.071 37.606C119.257 37.214 119.351 36.78 119.351 36.304C119.351 35.8187 119.257 35.3847 119.071 35.002C118.884 34.6193 118.623 34.316 118.287 34.092C117.951 33.868 117.563 33.756 117.125 33.756C116.695 33.756 116.313 33.868 115.977 34.092C115.65 34.316 115.389 34.6193 115.193 35.002C115.006 35.3847 114.913 35.8187 114.913 36.304C114.913 36.78 115.006 37.214 115.193 37.606C115.389 37.9887 115.65 38.292 115.977 38.516C116.313 38.74 116.695 38.852 117.125 38.852ZM126.352 32.51C126.996 32.51 127.495 32.65 127.85 32.93C128.205 33.2007 128.452 33.5693 128.592 34.036C128.741 34.5027 128.816 35.016 128.816 35.576V39.286C128.816 39.4913 128.746 39.664 128.606 39.804C128.475 39.9347 128.312 40 128.116 40C127.911 40 127.743 39.9347 127.612 39.804C127.481 39.664 127.416 39.4913 127.416 39.286V35.576C127.416 35.2493 127.369 34.9507 127.276 34.68C127.192 34.4093 127.038 34.1947 126.814 34.036C126.599 33.8773 126.296 33.798 125.904 33.798C125.54 33.798 125.213 33.8773 124.924 34.036C124.644 34.1947 124.425 34.4093 124.266 34.68C124.117 34.9507 124.042 35.2493 124.042 35.576V39.286C124.042 39.4913 123.972 39.664 123.832 39.804C123.701 39.9347 123.538 40 123.342 40C123.137 40 122.969 39.9347 122.838 39.804C122.707 39.664 122.642 39.4913 122.642 39.286V30.354C122.642 30.1487 122.707 29.9807 122.838 29.85C122.969 29.71 123.137 29.64 123.342 29.64C123.538 29.64 123.701 29.71 123.832 29.85C123.972 29.9807 124.042 30.1487 124.042 30.354V34.176L123.79 34.316C123.855 34.1107 123.963 33.9007 124.112 33.686C124.271 33.4713 124.462 33.2753 124.686 33.098C124.919 32.9207 125.176 32.7807 125.456 32.678C125.736 32.566 126.035 32.51 126.352 32.51ZM138.944 30.2C139.625 30.2 140.227 30.3307 140.75 30.592C141.272 30.844 141.706 31.1987 142.052 31.656C142.406 32.104 142.672 32.6267 142.85 33.224C143.027 33.812 143.116 34.4373 143.116 35.1C143.116 36.0053 142.957 36.8313 142.64 37.578C142.322 38.3153 141.856 38.9033 141.24 39.342C140.624 39.7807 139.858 40 138.944 40H135.528C135.332 40 135.164 39.9347 135.024 39.804C134.884 39.664 134.814 39.4913 134.814 39.286V30.914C134.814 30.7087 134.884 30.5407 135.024 30.41C135.164 30.27 135.332 30.2 135.528 30.2H138.944ZM138.804 38.656C139.466 38.656 140.003 38.4927 140.414 38.166C140.824 37.8393 141.123 37.41 141.31 36.878C141.506 36.3367 141.604 35.744 141.604 35.1C141.604 34.624 141.548 34.176 141.436 33.756C141.333 33.3267 141.165 32.9487 140.932 32.622C140.708 32.286 140.418 32.0247 140.064 31.838C139.718 31.642 139.298 31.544 138.804 31.544H136.158L136.284 31.418V38.796L136.2 38.656H138.804ZM145.997 39.286C145.997 39.4913 145.932 39.664 145.801 39.804C145.671 39.9347 145.503 40 145.297 40C145.101 40 144.933 39.9347 144.793 39.804C144.663 39.664 144.597 39.4913 144.597 39.286V33.294C144.597 33.0887 144.663 32.9207 144.793 32.79C144.933 32.65 145.101 32.58 145.297 32.58C145.503 32.58 145.671 32.65 145.801 32.79C145.932 32.9207 145.997 33.0887 145.997 33.294V39.286ZM145.283 31.656C145.013 31.656 144.817 31.6093 144.695 31.516C144.574 31.4133 144.513 31.2453 144.513 31.012V30.788C144.513 30.5547 144.579 30.3913 144.709 30.298C144.84 30.2047 145.036 30.158 145.297 30.158C145.577 30.158 145.778 30.2093 145.899 30.312C146.021 30.4053 146.081 30.564 146.081 30.788V31.012C146.081 31.2547 146.016 31.4227 145.885 31.516C145.764 31.6093 145.563 31.656 145.283 31.656ZM147.446 38.852C147.362 38.7213 147.325 38.572 147.334 38.404C147.344 38.2267 147.442 38.0773 147.628 37.956C147.759 37.872 147.894 37.8393 148.034 37.858C148.184 37.8673 148.324 37.9373 148.454 38.068C148.716 38.3573 149.005 38.586 149.322 38.754C149.649 38.922 150.041 39.006 150.498 39.006C150.685 38.9967 150.876 38.9687 151.072 38.922C151.268 38.866 151.436 38.7727 151.576 38.642C151.716 38.502 151.786 38.3013 151.786 38.04C151.786 37.8067 151.712 37.62 151.562 37.48C151.413 37.34 151.217 37.228 150.974 37.144C150.732 37.0507 150.47 36.9667 150.19 36.892C149.892 36.808 149.588 36.7147 149.28 36.612C148.982 36.5093 148.711 36.3787 148.468 36.22C148.226 36.052 148.025 35.8373 147.866 35.576C147.717 35.3147 147.642 34.9927 147.642 34.61C147.642 34.1713 147.764 33.7933 148.006 33.476C148.258 33.1587 148.58 32.9113 148.972 32.734C149.374 32.5567 149.808 32.468 150.274 32.468C150.545 32.468 150.83 32.5053 151.128 32.58C151.427 32.6453 151.716 32.7527 151.996 32.902C152.276 33.0513 152.519 33.2473 152.724 33.49C152.818 33.6113 152.869 33.756 152.878 33.924C152.897 34.092 152.822 34.2413 152.654 34.372C152.542 34.4653 152.407 34.5073 152.248 34.498C152.09 34.4887 151.959 34.4373 151.856 34.344C151.679 34.12 151.45 33.9473 151.17 33.826C150.89 33.6953 150.573 33.63 150.218 33.63C150.041 33.63 149.854 33.658 149.658 33.714C149.472 33.7607 149.313 33.8493 149.182 33.98C149.052 34.1107 148.986 34.302 148.986 34.554C148.986 34.7873 149.061 34.974 149.21 35.114C149.369 35.254 149.574 35.3707 149.826 35.464C150.078 35.5573 150.354 35.6413 150.652 35.716C150.942 35.7907 151.226 35.8793 151.506 35.982C151.796 36.0847 152.052 36.22 152.276 36.388C152.51 36.5467 152.696 36.7567 152.836 37.018C152.986 37.27 153.06 37.592 153.06 37.984C153.06 38.4413 152.925 38.8333 152.654 39.16C152.393 39.4773 152.057 39.72 151.646 39.888C151.245 40.056 150.82 40.14 150.372 40.14C149.84 40.14 149.308 40.0467 148.776 39.86C148.254 39.664 147.81 39.328 147.446 38.852ZM154.468 32.72H157.758C157.945 32.72 158.099 32.7853 158.22 32.916C158.351 33.0373 158.416 33.1913 158.416 33.378C158.416 33.5553 158.351 33.7047 158.22 33.826C158.099 33.9473 157.945 34.008 157.758 34.008H154.468C154.281 34.008 154.123 33.9473 153.992 33.826C153.871 33.6953 153.81 33.5413 153.81 33.364C153.81 33.1773 153.871 33.0233 153.992 32.902C154.123 32.7807 154.281 32.72 154.468 32.72ZM155.938 30.9C156.143 30.9 156.311 30.97 156.442 31.11C156.573 31.2407 156.638 31.4087 156.638 31.614V38.11C156.638 38.278 156.666 38.4133 156.722 38.516C156.778 38.6187 156.853 38.6887 156.946 38.726C157.049 38.7633 157.151 38.782 157.254 38.782C157.357 38.782 157.445 38.7633 157.52 38.726C157.604 38.6887 157.702 38.67 157.814 38.67C157.926 38.67 158.029 38.7213 158.122 38.824C158.215 38.9267 158.262 39.0667 158.262 39.244C158.262 39.468 158.141 39.65 157.898 39.79C157.655 39.93 157.394 40 157.114 40C156.955 40 156.769 39.986 156.554 39.958C156.339 39.93 156.129 39.86 155.924 39.748C155.728 39.636 155.565 39.4587 155.434 39.216C155.303 38.964 155.238 38.614 155.238 38.166V31.614C155.238 31.4087 155.303 31.2407 155.434 31.11C155.574 30.97 155.742 30.9 155.938 30.9ZM161.758 39.958C161.758 40.2473 161.674 40.5367 161.506 40.826C161.338 41.1153 161.128 41.3533 160.876 41.54C160.624 41.736 160.358 41.834 160.078 41.834C159.985 41.834 159.887 41.7967 159.784 41.722C159.691 41.6567 159.644 41.5307 159.644 41.344C159.644 41.1573 159.7 41.0453 159.812 41.008C159.934 40.98 160.05 40.938 160.162 40.882C160.293 40.8167 160.396 40.7327 160.47 40.63C160.545 40.5367 160.582 40.4247 160.582 40.294C160.582 40.182 160.536 40.0887 160.442 40.014C160.358 39.9393 160.246 39.902 160.106 39.902C160.05 39.902 159.985 39.9113 159.91 39.93C159.845 39.9393 159.784 39.9627 159.728 40C159.644 39.9533 159.574 39.8973 159.518 39.832C159.462 39.7667 159.434 39.6687 159.434 39.538C159.444 39.2953 159.56 39.0853 159.784 38.908C160.018 38.7213 160.284 38.628 160.582 38.628C160.937 38.628 161.222 38.754 161.436 39.006C161.651 39.258 161.758 39.5753 161.758 39.958ZM171.703 40C171.507 40 171.344 39.9347 171.213 39.804C171.083 39.664 171.017 39.4913 171.017 39.286V32.16L171.269 32.244L168.245 36.108L168.175 35.926H173.271C173.458 35.926 173.612 35.9913 173.733 36.122C173.864 36.2433 173.929 36.3973 173.929 36.584C173.929 36.7613 173.864 36.9107 173.733 37.032C173.612 37.1533 173.458 37.214 173.271 37.214H167.209C167.041 37.214 166.883 37.1487 166.733 37.018C166.584 36.878 166.509 36.7147 166.509 36.528C166.509 36.3507 166.57 36.192 166.691 36.052L171.143 30.48C171.209 30.3867 171.293 30.3167 171.395 30.27C171.498 30.2233 171.605 30.2 171.717 30.2C171.923 30.2 172.091 30.27 172.221 30.41C172.352 30.5407 172.417 30.7087 172.417 30.914V39.286C172.417 39.4913 172.347 39.664 172.207 39.804C172.067 39.9347 171.899 40 171.703 40ZM177.686 40.098C177.322 40.098 176.944 40.042 176.552 39.93C176.169 39.818 175.843 39.65 175.572 39.426C175.469 39.342 175.39 39.2347 175.334 39.104C175.278 38.9733 175.25 38.8473 175.25 38.726C175.25 38.5953 175.306 38.4693 175.418 38.348C175.539 38.2173 175.703 38.152 175.908 38.152C176.057 38.152 176.23 38.2267 176.426 38.376C176.613 38.4973 176.809 38.6 177.014 38.684C177.229 38.768 177.448 38.81 177.672 38.81C178.157 38.81 178.577 38.7213 178.932 38.544C179.287 38.3667 179.557 38.1193 179.744 37.802C179.94 37.4753 180.038 37.0973 180.038 36.668C180.038 36.2667 179.949 35.926 179.772 35.646C179.595 35.3567 179.352 35.1327 179.044 34.974C178.745 34.8153 178.409 34.736 178.036 34.736C177.728 34.736 177.457 34.7873 177.224 34.89C176.991 34.9833 176.781 35.0813 176.594 35.184C176.407 35.2773 176.235 35.324 176.076 35.324C175.833 35.324 175.651 35.2727 175.53 35.17C175.409 35.058 175.329 34.9273 175.292 34.778C175.264 34.6193 175.259 34.4747 175.278 34.344L175.768 30.83C175.796 30.6713 175.871 30.5407 175.992 30.438C176.123 30.326 176.281 30.27 176.468 30.27H180.57C180.757 30.27 180.911 30.3353 181.032 30.466C181.163 30.5873 181.228 30.7413 181.228 30.928C181.228 31.1147 181.163 31.2687 181.032 31.39C180.911 31.5113 180.757 31.572 180.57 31.572H176.818L176.972 31.446L176.524 34.456L176.314 34.036C176.398 33.9427 176.538 33.854 176.734 33.77C176.939 33.6767 177.168 33.602 177.42 33.546C177.681 33.4807 177.943 33.448 178.204 33.448C178.82 33.448 179.371 33.588 179.856 33.868C180.351 34.1387 180.738 34.5167 181.018 35.002C181.298 35.4873 181.438 36.038 181.438 36.654C181.438 37.3447 181.284 37.9513 180.976 38.474C180.668 38.9873 180.234 39.3887 179.674 39.678C179.114 39.958 178.451 40.098 177.686 40.098ZM185.616 40.098C185.252 40.098 184.874 40.042 184.482 39.93C184.099 39.818 183.772 39.65 183.502 39.426C183.399 39.342 183.32 39.2347 183.264 39.104C183.208 38.9733 183.18 38.8473 183.18 38.726C183.18 38.5953 183.236 38.4693 183.348 38.348C183.469 38.2173 183.632 38.152 183.838 38.152C183.987 38.152 184.16 38.2267 184.356 38.376C184.542 38.4973 184.738 38.6 184.944 38.684C185.158 38.768 185.378 38.81 185.602 38.81C186.087 38.81 186.507 38.7213 186.862 38.544C187.216 38.3667 187.487 38.1193 187.674 37.802C187.87 37.4753 187.968 37.0973 187.968 36.668C187.968 36.2667 187.879 35.926 187.702 35.646C187.524 35.3567 187.282 35.1327 186.974 34.974C186.675 34.8153 186.339 34.736 185.966 34.736C185.658 34.736 185.387 34.7873 185.154 34.89C184.92 34.9833 184.71 35.0813 184.524 35.184C184.337 35.2773 184.164 35.324 184.006 35.324C183.763 35.324 183.581 35.2727 183.46 35.17C183.338 35.058 183.259 34.9273 183.222 34.778C183.194 34.6193 183.189 34.4747 183.208 34.344L183.698 30.83C183.726 30.6713 183.8 30.5407 183.922 30.438C184.052 30.326 184.211 30.27 184.398 30.27H188.5C188.686 30.27 188.84 30.3353 188.962 30.466C189.092 30.5873 189.158 30.7413 189.158 30.928C189.158 31.1147 189.092 31.2687 188.962 31.39C188.84 31.5113 188.686 31.572 188.5 31.572H184.748L184.902 31.446L184.454 34.456L184.244 34.036C184.328 33.9427 184.468 33.854 184.664 33.77C184.869 33.6767 185.098 33.602 185.35 33.546C185.611 33.4807 185.872 33.448 186.134 33.448C186.75 33.448 187.3 33.588 187.786 33.868C188.28 34.1387 188.668 34.5167 188.948 35.002C189.228 35.4873 189.368 36.038 189.368 36.654C189.368 37.3447 189.214 37.9513 188.906 38.474C188.598 38.9873 188.164 39.3887 187.604 39.678C187.044 39.958 186.381 40.098 185.616 40.098ZM196.07 40C195.846 40 195.65 39.9347 195.482 39.804C195.314 39.664 195.23 39.4913 195.23 39.286V30.914C195.23 30.7087 195.3 30.5407 195.44 30.41C195.58 30.27 195.748 30.2 195.944 30.2H199.892C200.396 30.2 200.858 30.326 201.278 30.578C201.698 30.8207 202.034 31.1613 202.286 31.6C202.547 32.0293 202.678 32.524 202.678 33.084C202.678 33.4573 202.603 33.8167 202.454 34.162C202.304 34.498 202.104 34.7967 201.852 35.058C201.6 35.3193 201.315 35.5153 200.998 35.646L200.844 35.38C201.133 35.4827 201.385 35.632 201.6 35.828C201.814 36.0147 201.982 36.2387 202.104 36.5C202.234 36.752 202.304 37.0413 202.314 37.368C202.342 37.6573 202.365 37.9 202.384 38.096C202.412 38.2827 202.449 38.4367 202.496 38.558C202.542 38.6793 202.626 38.7727 202.748 38.838C202.916 38.9313 203.018 39.0713 203.056 39.258C203.102 39.4447 203.065 39.6127 202.944 39.762C202.86 39.874 202.752 39.9487 202.622 39.986C202.5 40.014 202.374 40.0187 202.244 40C202.113 39.972 202.001 39.9347 201.908 39.888C201.758 39.7947 201.604 39.664 201.446 39.496C201.296 39.3187 201.175 39.076 201.082 38.768C200.988 38.46 200.942 38.054 200.942 37.55C200.942 37.3167 200.904 37.116 200.83 36.948C200.755 36.78 200.652 36.6447 200.522 36.542C200.391 36.43 200.237 36.3507 200.06 36.304C199.882 36.248 199.686 36.22 199.472 36.22H196.504L196.7 35.94V39.286C196.7 39.4913 196.644 39.664 196.532 39.804C196.42 39.9347 196.266 40 196.07 40ZM196.518 35.002H199.864C200.078 34.9927 200.284 34.9087 200.48 34.75C200.685 34.582 200.848 34.358 200.97 34.078C201.1 33.798 201.166 33.4807 201.166 33.126C201.166 32.678 201.03 32.3047 200.76 32.006C200.498 31.698 200.186 31.544 199.822 31.544H196.546L196.7 31.18V35.296L196.518 35.002ZM205.921 39.286C205.921 39.4913 205.856 39.664 205.725 39.804C205.594 39.9347 205.426 40 205.221 40C205.025 40 204.857 39.9347 204.717 39.804C204.586 39.664 204.521 39.4913 204.521 39.286V33.294C204.521 33.0887 204.586 32.9207 204.717 32.79C204.857 32.65 205.025 32.58 205.221 32.58C205.426 32.58 205.594 32.65 205.725 32.79C205.856 32.9207 205.921 33.0887 205.921 33.294V39.286ZM205.207 31.656C204.936 31.656 204.74 31.6093 204.619 31.516C204.498 31.4133 204.437 31.2453 204.437 31.012V30.788C204.437 30.5547 204.502 30.3913 204.633 30.298C204.764 30.2047 204.96 30.158 205.221 30.158C205.501 30.158 205.702 30.2093 205.823 30.312C205.944 30.4053 206.005 30.564 206.005 30.788V31.012C206.005 31.2547 205.94 31.4227 205.809 31.516C205.688 31.6093 205.487 31.656 205.207 31.656ZM213.278 32.58C213.484 32.58 213.652 32.65 213.782 32.79C213.913 32.9207 213.978 33.0887 213.978 33.294V39.314C213.978 40.1353 213.82 40.8027 213.502 41.316C213.194 41.8293 212.774 42.2027 212.242 42.436C211.72 42.6787 211.127 42.8 210.464 42.8C210.128 42.8 209.792 42.7673 209.456 42.702C209.12 42.646 208.845 42.562 208.63 42.45C208.406 42.3473 208.248 42.2213 208.154 42.072C208.061 41.9227 208.047 41.7593 208.112 41.582C208.178 41.358 208.29 41.204 208.448 41.12C208.607 41.0453 208.77 41.0407 208.938 41.106C209.097 41.1713 209.307 41.2553 209.568 41.358C209.83 41.4607 210.128 41.512 210.464 41.512C210.922 41.512 211.309 41.4373 211.626 41.288C211.944 41.1387 212.182 40.9053 212.34 40.588C212.508 40.2707 212.592 39.86 212.592 39.356V38.39L212.816 38.726C212.667 39.034 212.471 39.2907 212.228 39.496C211.986 39.7013 211.696 39.86 211.36 39.972C211.034 40.084 210.67 40.14 210.268 40.14C209.755 40.14 209.312 40.028 208.938 39.804C208.574 39.5707 208.294 39.2533 208.098 38.852C207.902 38.4413 207.804 37.9747 207.804 37.452V33.294C207.804 33.0887 207.87 32.9207 208 32.79C208.131 32.65 208.299 32.58 208.504 32.58C208.7 32.58 208.864 32.65 208.994 32.79C209.134 32.9207 209.204 33.0887 209.204 33.294V37.074C209.204 37.69 209.34 38.1427 209.61 38.432C209.881 38.712 210.282 38.852 210.814 38.852C211.169 38.852 211.477 38.7773 211.738 38.628C212 38.4787 212.205 38.2733 212.354 38.012C212.504 37.7413 212.578 37.4287 212.578 37.074V33.294C212.578 33.0887 212.644 32.9207 212.774 32.79C212.914 32.65 213.082 32.58 213.278 32.58ZM221.973 32.524C222.178 32.524 222.346 32.594 222.477 32.734C222.608 32.8647 222.673 33.0327 222.673 33.238V39.286C222.673 39.4913 222.608 39.664 222.477 39.804C222.346 39.9347 222.178 40 221.973 40C221.777 40 221.609 39.9347 221.469 39.804C221.338 39.664 221.273 39.4913 221.273 39.286V38.278L221.567 38.32C221.567 38.488 221.497 38.6747 221.357 38.88C221.226 39.0853 221.044 39.286 220.811 39.482C220.578 39.6687 220.302 39.8273 219.985 39.958C219.668 40.0793 219.327 40.14 218.963 40.14C218.319 40.14 217.74 39.9767 217.227 39.65C216.714 39.314 216.308 38.8567 216.009 38.278C215.71 37.6993 215.561 37.0413 215.561 36.304C215.561 35.548 215.71 34.8853 216.009 34.316C216.308 33.7373 216.709 33.2847 217.213 32.958C217.726 32.6313 218.296 32.468 218.921 32.468C219.322 32.468 219.691 32.5333 220.027 32.664C220.372 32.7947 220.671 32.9627 220.923 33.168C221.175 33.3733 221.366 33.5927 221.497 33.826C221.637 34.05 221.707 34.2647 221.707 34.47L221.273 34.512V33.238C221.273 33.042 221.338 32.874 221.469 32.734C221.609 32.594 221.777 32.524 221.973 32.524ZM219.117 38.852C219.556 38.852 219.943 38.74 220.279 38.516C220.615 38.292 220.876 37.9887 221.063 37.606C221.25 37.214 221.343 36.78 221.343 36.304C221.343 35.8187 221.25 35.3847 221.063 35.002C220.876 34.6193 220.615 34.316 220.279 34.092C219.943 33.868 219.556 33.756 219.117 33.756C218.688 33.756 218.305 33.868 217.969 34.092C217.642 34.316 217.381 34.6193 217.185 35.002C216.998 35.3847 216.905 35.8187 216.905 36.304C216.905 36.78 216.998 37.214 217.185 37.606C217.381 37.9887 217.642 38.292 217.969 38.516C218.305 38.74 218.688 38.852 219.117 38.852ZM230.668 29.64C230.874 29.64 231.042 29.7053 231.172 29.836C231.303 29.9667 231.368 30.1393 231.368 30.354V39.286C231.368 39.4913 231.303 39.664 231.172 39.804C231.042 39.9347 230.874 40 230.668 40C230.472 40 230.304 39.9347 230.164 39.804C230.034 39.664 229.968 39.4913 229.968 39.286V38.278L230.262 38.292C230.262 38.46 230.192 38.6513 230.052 38.866C229.922 39.0713 229.74 39.272 229.506 39.468C229.273 39.664 228.998 39.8273 228.68 39.958C228.363 40.0793 228.022 40.14 227.658 40.14C227.014 40.14 226.436 39.9767 225.922 39.65C225.409 39.314 225.003 38.8613 224.704 38.292C224.406 37.7133 224.256 37.0507 224.256 36.304C224.256 35.5573 224.406 34.8993 224.704 34.33C225.003 33.7513 225.404 33.2987 225.908 32.972C226.422 32.636 226.991 32.468 227.616 32.468C228.008 32.468 228.372 32.5333 228.708 32.664C229.054 32.7947 229.352 32.9627 229.604 33.168C229.856 33.3733 230.052 33.5927 230.192 33.826C230.332 34.05 230.402 34.2647 230.402 34.47L229.968 34.512V30.354C229.968 30.1487 230.034 29.9807 230.164 29.85C230.304 29.71 230.472 29.64 230.668 29.64ZM227.812 38.852C228.26 38.852 228.648 38.74 228.974 38.516C229.31 38.292 229.572 37.9887 229.758 37.606C229.945 37.2233 230.038 36.7893 230.038 36.304C230.038 35.8187 229.945 35.3847 229.758 35.002C229.572 34.6193 229.31 34.316 228.974 34.092C228.638 33.868 228.251 33.756 227.812 33.756C227.383 33.756 227 33.868 226.664 34.092C226.338 34.316 226.076 34.6193 225.88 35.002C225.694 35.3847 225.6 35.8187 225.6 36.304C225.6 36.7893 225.694 37.2233 225.88 37.606C226.076 37.9887 226.338 38.292 226.664 38.516C227 38.74 227.383 38.852 227.812 38.852ZM240.39 40.14C239.718 40.14 239.121 40.0467 238.598 39.86C238.075 39.6733 237.576 39.3653 237.1 38.936C236.997 38.8613 236.918 38.7727 236.862 38.67C236.815 38.558 236.792 38.446 236.792 38.334C236.792 38.1567 236.857 37.998 236.988 37.858C237.119 37.718 237.282 37.648 237.478 37.648C237.627 37.648 237.767 37.6993 237.898 37.802C238.253 38.1287 238.621 38.376 239.004 38.544C239.396 38.712 239.853 38.796 240.376 38.796C240.749 38.796 241.09 38.7353 241.398 38.614C241.715 38.4927 241.967 38.3293 242.154 38.124C242.341 37.9187 242.434 37.6807 242.434 37.41C242.434 37.074 242.336 36.7987 242.14 36.584C241.953 36.36 241.678 36.178 241.314 36.038C240.959 35.8887 240.53 35.7627 240.026 35.66C239.559 35.576 239.139 35.4593 238.766 35.31C238.402 35.1607 238.089 34.974 237.828 34.75C237.567 34.5167 237.366 34.2413 237.226 33.924C237.086 33.6067 237.016 33.238 237.016 32.818C237.016 32.2487 237.165 31.7587 237.464 31.348C237.763 30.9373 238.169 30.62 238.682 30.396C239.195 30.172 239.774 30.06 240.418 30.06C241.006 30.06 241.557 30.1533 242.07 30.34C242.583 30.5173 242.999 30.76 243.316 31.068C243.54 31.264 243.652 31.474 243.652 31.698C243.652 31.866 243.582 32.0247 243.442 32.174C243.311 32.314 243.157 32.384 242.98 32.384C242.849 32.384 242.737 32.3467 242.644 32.272C242.495 32.1133 242.294 31.9733 242.042 31.852C241.79 31.7213 241.519 31.614 241.23 31.53C240.95 31.446 240.679 31.404 240.418 31.404C239.998 31.404 239.639 31.4647 239.34 31.586C239.041 31.698 238.813 31.8567 238.654 32.062C238.495 32.258 238.416 32.4913 238.416 32.762C238.416 33.0793 238.505 33.3407 238.682 33.546C238.869 33.7513 239.125 33.9193 239.452 34.05C239.779 34.1713 240.152 34.2833 240.572 34.386C241.085 34.498 241.543 34.624 241.944 34.764C242.355 34.904 242.7 35.086 242.98 35.31C243.26 35.5247 243.475 35.7953 243.624 36.122C243.773 36.4487 243.848 36.8547 243.848 37.34C243.848 37.9 243.689 38.39 243.372 38.81C243.055 39.23 242.635 39.5567 242.112 39.79C241.599 40.0233 241.025 40.14 240.39 40.14ZM251.45 32.524C251.655 32.524 251.823 32.594 251.954 32.734C252.084 32.8647 252.15 33.0327 252.15 33.238V39.286C252.15 39.4913 252.084 39.664 251.954 39.804C251.823 39.9347 251.655 40 251.45 40C251.254 40 251.086 39.9347 250.946 39.804C250.815 39.664 250.75 39.4913 250.75 39.286V38.278L251.044 38.32C251.044 38.488 250.974 38.6747 250.834 38.88C250.703 39.0853 250.521 39.286 250.288 39.482C250.054 39.6687 249.779 39.8273 249.462 39.958C249.144 40.0793 248.804 40.14 248.44 40.14C247.796 40.14 247.217 39.9767 246.704 39.65C246.19 39.314 245.784 38.8567 245.486 38.278C245.187 37.6993 245.038 37.0413 245.038 36.304C245.038 35.548 245.187 34.8853 245.486 34.316C245.784 33.7373 246.186 33.2847 246.69 32.958C247.203 32.6313 247.772 32.468 248.398 32.468C248.799 32.468 249.168 32.5333 249.504 32.664C249.849 32.7947 250.148 32.9627 250.4 33.168C250.652 33.3733 250.843 33.5927 250.974 33.826C251.114 34.05 251.184 34.2647 251.184 34.47L250.75 34.512V33.238C250.75 33.042 250.815 32.874 250.946 32.734C251.086 32.594 251.254 32.524 251.45 32.524ZM248.594 38.852C249.032 38.852 249.42 38.74 249.756 38.516C250.092 38.292 250.353 37.9887 250.54 37.606C250.726 37.214 250.82 36.78 250.82 36.304C250.82 35.8187 250.726 35.3847 250.54 35.002C250.353 34.6193 250.092 34.316 249.756 34.092C249.42 33.868 249.032 33.756 248.594 33.756C248.164 33.756 247.782 33.868 247.446 34.092C247.119 34.316 246.858 34.6193 246.662 35.002C246.475 35.3847 246.382 35.8187 246.382 36.304C246.382 36.78 246.475 37.214 246.662 37.606C246.858 37.9887 247.119 38.292 247.446 38.516C247.782 38.74 248.164 38.852 248.594 38.852ZM259.462 32.636C259.658 32.636 259.821 32.706 259.952 32.846C260.092 32.9767 260.162 33.1447 260.162 33.35V37.032C260.162 38.0027 259.891 38.7633 259.35 39.314C258.809 39.8553 258.043 40.126 257.054 40.126C256.074 40.126 255.313 39.8553 254.772 39.314C254.24 38.7633 253.974 38.0027 253.974 37.032V33.35C253.974 33.1447 254.039 32.9767 254.17 32.846C254.301 32.706 254.469 32.636 254.674 32.636C254.87 32.636 255.033 32.706 255.164 32.846C255.304 32.9767 255.374 33.1447 255.374 33.35V37.032C255.374 37.6387 255.514 38.0913 255.794 38.39C256.083 38.6887 256.503 38.838 257.054 38.838C257.614 38.838 258.039 38.6887 258.328 38.39C258.617 38.0913 258.762 37.6387 258.762 37.032V33.35C258.762 33.1447 258.827 32.9767 258.958 32.846C259.089 32.706 259.257 32.636 259.462 32.636ZM268.143 29.64C268.348 29.64 268.516 29.7053 268.647 29.836C268.778 29.9667 268.843 30.1393 268.843 30.354V39.286C268.843 39.4913 268.778 39.664 268.647 39.804C268.516 39.9347 268.348 40 268.143 40C267.947 40 267.779 39.9347 267.639 39.804C267.508 39.664 267.443 39.4913 267.443 39.286V38.278L267.737 38.292C267.737 38.46 267.667 38.6513 267.527 38.866C267.396 39.0713 267.214 39.272 266.981 39.468C266.748 39.664 266.472 39.8273 266.155 39.958C265.838 40.0793 265.497 40.14 265.133 40.14C264.489 40.14 263.91 39.9767 263.397 39.65C262.884 39.314 262.478 38.8613 262.179 38.292C261.88 37.7133 261.731 37.0507 261.731 36.304C261.731 35.5573 261.88 34.8993 262.179 34.33C262.478 33.7513 262.879 33.2987 263.383 32.972C263.896 32.636 264.466 32.468 265.091 32.468C265.483 32.468 265.847 32.5333 266.183 32.664C266.528 32.7947 266.827 32.9627 267.079 33.168C267.331 33.3733 267.527 33.5927 267.667 33.826C267.807 34.05 267.877 34.2647 267.877 34.47L267.443 34.512V30.354C267.443 30.1487 267.508 29.9807 267.639 29.85C267.779 29.71 267.947 29.64 268.143 29.64ZM265.287 38.852C265.735 38.852 266.122 38.74 266.449 38.516C266.785 38.292 267.046 37.9887 267.233 37.606C267.42 37.2233 267.513 36.7893 267.513 36.304C267.513 35.8187 267.42 35.3847 267.233 35.002C267.046 34.6193 266.785 34.316 266.449 34.092C266.113 33.868 265.726 33.756 265.287 33.756C264.858 33.756 264.475 33.868 264.139 34.092C263.812 34.316 263.551 34.6193 263.355 35.002C263.168 35.3847 263.075 35.8187 263.075 36.304C263.075 36.7893 263.168 37.2233 263.355 37.606C263.551 37.9887 263.812 38.292 264.139 38.516C264.475 38.74 264.858 38.852 265.287 38.852ZM271.336 39.986C271.103 39.986 270.921 39.9207 270.79 39.79C270.669 39.6593 270.608 39.4773 270.608 39.244V38.992C270.608 38.7587 270.669 38.5767 270.79 38.446C270.921 38.3153 271.103 38.25 271.336 38.25H271.49C271.724 38.25 271.901 38.3153 272.022 38.446C272.144 38.5767 272.204 38.7587 272.204 38.992V39.244C272.204 39.4773 272.144 39.6593 272.022 39.79C271.901 39.9207 271.724 39.986 271.49 39.986H271.336ZM274.494 39.986C274.261 39.986 274.079 39.9207 273.948 39.79C273.827 39.6593 273.766 39.4773 273.766 39.244V38.992C273.766 38.7587 273.827 38.5767 273.948 38.446C274.079 38.3153 274.261 38.25 274.494 38.25H274.648C274.882 38.25 275.059 38.3153 275.18 38.446C275.302 38.5767 275.362 38.7587 275.362 38.992V39.244C275.362 39.4773 275.302 39.6593 275.18 39.79C275.059 39.9207 274.882 39.986 274.648 39.986H274.494ZM277.653 39.986C277.419 39.986 277.237 39.9207 277.107 39.79C276.985 39.6593 276.925 39.4773 276.925 39.244V38.992C276.925 38.7587 276.985 38.5767 277.107 38.446C277.237 38.3153 277.419 38.25 277.653 38.25H277.807C278.04 38.25 278.217 38.3153 278.339 38.446C278.46 38.5767 278.521 38.7587 278.521 38.992V39.244C278.521 39.4773 278.46 39.6593 278.339 39.79C278.217 39.9207 278.04 39.986 277.807 39.986H277.653Z" fill="#111111"/>
<path d="M44.228 60.59C44.1067 60.59 43.9993 60.5573 43.906 60.492C43.1687 60.044 42.548 59.5027 42.044 58.868C41.5493 58.2333 41.1713 57.5333 40.91 56.768C40.658 56.0027 40.532 55.2093 40.532 54.388C40.532 53.5573 40.658 52.764 40.91 52.008C41.1713 51.252 41.554 50.5567 42.058 49.922C42.562 49.2873 43.178 48.7367 43.906 48.27C43.9993 48.2047 44.1067 48.172 44.228 48.172C44.4147 48.172 44.5593 48.242 44.662 48.382C44.7647 48.522 44.816 48.6573 44.816 48.788C44.816 48.9747 44.732 49.1333 44.564 49.264C43.9853 49.6747 43.5 50.1507 43.108 50.692C42.716 51.2333 42.422 51.8213 42.226 52.456C42.03 53.0813 41.932 53.7253 41.932 54.388C41.932 55.0507 42.0253 55.6993 42.212 56.334C42.3987 56.9687 42.688 57.5567 43.08 58.098C43.472 58.6487 43.9667 59.1153 44.564 59.498C44.732 59.6193 44.816 59.7827 44.816 59.988C44.816 60.128 44.76 60.2633 44.648 60.394C44.536 60.5247 44.396 60.59 44.228 60.59ZM46.5419 56.208C46.6166 56.208 46.6959 56.222 46.7799 56.25C46.8639 56.2687 46.9573 56.3153 47.0599 56.39C47.2279 56.5393 47.4286 56.6653 47.6619 56.768C47.9046 56.8613 48.1799 56.908 48.4879 56.908C48.8333 56.908 49.1553 56.8287 49.4539 56.67C49.7526 56.502 49.9953 56.2687 50.1819 55.97C50.3686 55.6713 50.4619 55.3167 50.4619 54.906C50.4619 54.486 50.3733 54.1453 50.1959 53.884C50.0186 53.6133 49.7899 53.4127 49.5099 53.282C49.2299 53.142 48.9359 53.072 48.6279 53.072C48.4506 53.072 48.3013 53.0907 48.1799 53.128C48.0586 53.156 47.9419 53.1887 47.8299 53.226C47.7179 53.254 47.5966 53.268 47.4659 53.268C47.2886 53.268 47.1486 53.2073 47.0459 53.086C46.9433 52.9553 46.8919 52.8013 46.8919 52.624C46.8919 52.512 46.9153 52.414 46.9619 52.33C47.0086 52.246 47.0739 52.1527 47.1579 52.05L49.7479 49.278L50.0559 49.558H46.3459C46.1593 49.558 46.0006 49.4973 45.8699 49.376C45.7486 49.2453 45.6879 49.0867 45.6879 48.9C45.6879 48.7227 45.7486 48.5733 45.8699 48.452C46.0006 48.3307 46.1593 48.27 46.3459 48.27H50.7699C51.0126 48.27 51.1899 48.34 51.3019 48.48C51.4233 48.62 51.4839 48.7833 51.4839 48.97C51.4839 49.0727 51.4559 49.1707 51.3999 49.264C51.3533 49.3573 51.2926 49.446 51.2179 49.53L48.6139 52.33L48.2639 51.952C48.3386 51.9147 48.4646 51.8773 48.6419 51.84C48.8193 51.8027 48.9639 51.784 49.0759 51.784C49.6079 51.784 50.0839 51.9193 50.5039 52.19C50.9333 52.4607 51.2646 52.8247 51.4979 53.282C51.7406 53.73 51.8619 54.2387 51.8619 54.808C51.8619 55.4893 51.7079 56.082 51.3999 56.586C51.0919 57.0807 50.6626 57.4633 50.1119 57.734C49.5706 58.0047 48.9453 58.14 48.2359 58.14C47.8813 58.14 47.5266 58.0933 47.1719 58C46.8266 57.8973 46.5279 57.7527 46.2759 57.566C46.1173 57.4727 46.0099 57.3747 45.9539 57.272C45.8979 57.16 45.8699 57.0527 45.8699 56.95C45.8699 56.7727 45.9306 56.6047 46.0519 56.446C46.1826 56.2873 46.3459 56.208 46.5419 56.208ZM56.8068 58.14C56.0228 58.14 55.3601 57.9253 54.8188 57.496C54.2774 57.0573 53.8668 56.46 53.5868 55.704C53.3161 54.9387 53.1808 54.0707 53.1808 53.1C53.1808 52.12 53.3161 51.252 53.5868 50.496C53.8668 49.7307 54.2774 49.1333 54.8188 48.704C55.3601 48.2747 56.0228 48.06 56.8068 48.06C57.5908 48.06 58.2488 48.2747 58.7808 48.704C59.3221 49.1333 59.7328 49.7307 60.0128 50.496C60.2928 51.252 60.4328 52.12 60.4328 53.1C60.4328 54.0707 60.2928 54.9387 60.0128 55.704C59.7328 56.46 59.3221 57.0573 58.7808 57.496C58.2488 57.9253 57.5908 58.14 56.8068 58.14ZM56.8068 56.726C57.2454 56.726 57.6188 56.586 57.9268 56.306C58.2441 56.026 58.4868 55.6153 58.6548 55.074C58.8321 54.5327 58.9208 53.8747 58.9208 53.1C58.9208 52.316 58.8321 51.6533 58.6548 51.112C58.4868 50.5707 58.2441 50.16 57.9268 49.88C57.6188 49.6 57.2454 49.46 56.8068 49.46C56.3681 49.46 55.9901 49.6 55.6728 49.88C55.3554 50.16 55.1128 50.5707 54.9448 51.112C54.7768 51.6533 54.6928 52.316 54.6928 53.1C54.6928 53.8747 54.7768 54.5327 54.9448 55.074C55.1128 55.6153 55.3554 56.026 55.6728 56.306C55.9901 56.586 56.3681 56.726 56.8068 56.726ZM62.5104 54.374C62.3144 54.374 62.1464 54.3087 62.0064 54.178C61.8757 54.038 61.8104 53.87 61.8104 53.674C61.8104 53.4687 61.8757 53.3053 62.0064 53.184C62.1464 53.0533 62.3144 52.988 62.5104 52.988H65.1424C65.3384 52.988 65.5064 53.058 65.6464 53.198C65.7864 53.3287 65.8564 53.4967 65.8564 53.702C65.8564 53.8887 65.7864 54.0473 65.6464 54.178C65.5064 54.3087 65.3384 54.374 65.1424 54.374H62.5104ZM71.9261 58C71.7301 58 71.5668 57.9347 71.4361 57.804C71.3055 57.664 71.2401 57.4913 71.2401 57.286V50.16L71.4921 50.244L68.4681 54.108L68.3981 53.926H73.4941C73.6808 53.926 73.8348 53.9913 73.9561 54.122C74.0868 54.2433 74.1521 54.3973 74.1521 54.584C74.1521 54.7613 74.0868 54.9107 73.9561 55.032C73.8348 55.1533 73.6808 55.214 73.4941 55.214H67.4321C67.2641 55.214 67.1055 55.1487 66.9561 55.018C66.8068 54.878 66.7321 54.7147 66.7321 54.528C66.7321 54.3507 66.7928 54.192 66.9141 54.052L71.3661 48.48C71.4315 48.3867 71.5155 48.3167 71.6181 48.27C71.7208 48.2233 71.8281 48.2 71.9401 48.2C72.1455 48.2 72.3135 48.27 72.4441 48.41C72.5748 48.5407 72.6401 48.7087 72.6401 48.914V57.286C72.6401 57.4913 72.5701 57.664 72.4301 57.804C72.2901 57.9347 72.1221 58 71.9261 58ZM77.9085 58.098C77.5445 58.098 77.1665 58.042 76.7745 57.93C76.3918 57.818 76.0652 57.65 75.7945 57.426C75.6918 57.342 75.6125 57.2347 75.5565 57.104C75.5005 56.9733 75.4725 56.8473 75.4725 56.726C75.4725 56.5953 75.5285 56.4693 75.6405 56.348C75.7618 56.2173 75.9252 56.152 76.1305 56.152C76.2798 56.152 76.4525 56.2267 76.6485 56.376C76.8352 56.4973 77.0312 56.6 77.2365 56.684C77.4512 56.768 77.6705 56.81 77.8945 56.81C78.3798 56.81 78.7998 56.7213 79.1545 56.544C79.5092 56.3667 79.7798 56.1193 79.9665 55.802C80.1625 55.4753 80.2605 55.0973 80.2605 54.668C80.2605 54.2667 80.1718 53.926 79.9945 53.646C79.8172 53.3567 79.5745 53.1327 79.2665 52.974C78.9678 52.8153 78.6318 52.736 78.2585 52.736C77.9505 52.736 77.6798 52.7873 77.4465 52.89C77.2132 52.9833 77.0032 53.0813 76.8165 53.184C76.6298 53.2773 76.4572 53.324 76.2985 53.324C76.0558 53.324 75.8738 53.2727 75.7525 53.17C75.6312 53.058 75.5518 52.9273 75.5145 52.778C75.4865 52.6193 75.4818 52.4747 75.5005 52.344L75.9905 48.83C76.0185 48.6713 76.0932 48.5407 76.2145 48.438C76.3452 48.326 76.5038 48.27 76.6905 48.27H80.7925C80.9792 48.27 81.1332 48.3353 81.2545 48.466C81.3852 48.5873 81.4505 48.7413 81.4505 48.928C81.4505 49.1147 81.3852 49.2687 81.2545 49.39C81.1332 49.5113 80.9792 49.572 80.7925 49.572H77.0405L77.1945 49.446L76.7465 52.456L76.5365 52.036C76.6205 51.9427 76.7605 51.854 76.9565 51.77C77.1618 51.6767 77.3905 51.602 77.6425 51.546C77.9038 51.4807 78.1652 51.448 78.4265 51.448C79.0425 51.448 79.5932 51.588 80.0785 51.868C80.5732 52.1387 80.9605 52.5167 81.2405 53.002C81.5205 53.4873 81.6605 54.038 81.6605 54.654C81.6605 55.3447 81.5065 55.9513 81.1985 56.474C80.8905 56.9873 80.4565 57.3887 79.8965 57.678C79.3365 57.958 78.6738 58.098 77.9085 58.098ZM91.0647 50.51C91.7553 50.51 92.2873 50.6827 92.6607 51.028C93.034 51.364 93.2813 51.8213 93.4027 52.4L93.1787 52.33L93.2767 52.106C93.398 51.8633 93.58 51.6207 93.8227 51.378C94.0747 51.126 94.3733 50.9207 94.7187 50.762C95.064 50.594 95.4327 50.51 95.8247 50.51C96.4687 50.51 96.968 50.65 97.3227 50.93C97.6773 51.2007 97.9247 51.5693 98.0647 52.036C98.2047 52.4933 98.2747 53.0067 98.2747 53.576V57.286C98.2747 57.4913 98.2093 57.664 98.0787 57.804C97.948 57.9347 97.78 58 97.5747 58C97.3787 58 97.2107 57.9347 97.0707 57.804C96.94 57.664 96.8747 57.4913 96.8747 57.286V53.59C96.8747 53.2633 96.828 52.9647 96.7347 52.694C96.6507 52.4233 96.4967 52.2087 96.2727 52.05C96.058 51.882 95.7593 51.798 95.3767 51.798C95.0127 51.798 94.686 51.882 94.3967 52.05C94.1167 52.2087 93.8973 52.4233 93.7387 52.694C93.58 52.9647 93.5007 53.2633 93.5007 53.59V57.286C93.5007 57.4913 93.4353 57.664 93.3047 57.804C93.174 57.9347 93.006 58 92.8007 58C92.5953 58 92.4273 57.9347 92.2967 57.804C92.166 57.664 92.1007 57.4913 92.1007 57.286V53.576C92.1007 53.2493 92.054 52.9507 91.9607 52.68C91.8767 52.4093 91.7273 52.1947 91.5127 52.036C91.298 51.8773 90.9993 51.798 90.6167 51.798C90.2527 51.798 89.9307 51.8773 89.6507 52.036C89.3707 52.1947 89.1513 52.4093 88.9927 52.68C88.8433 52.9507 88.7687 53.2493 88.7687 53.576V57.286C88.7687 57.4913 88.6987 57.664 88.5587 57.804C88.428 57.9347 88.2647 58 88.0687 58C87.8633 58 87.6953 57.9347 87.5647 57.804C87.434 57.664 87.3687 57.4913 87.3687 57.286V51.35C87.3687 51.1447 87.434 50.9767 87.5647 50.846C87.6953 50.706 87.8633 50.636 88.0687 50.636C88.2647 50.636 88.428 50.706 88.5587 50.846C88.6987 50.9767 88.7687 51.1447 88.7687 51.35V52.176L88.5027 52.33C88.568 52.1247 88.6753 51.9147 88.8247 51.7C88.974 51.4853 89.1607 51.2893 89.3847 51.112C89.618 50.9347 89.8747 50.79 90.1547 50.678C90.4347 50.566 90.738 50.51 91.0647 50.51ZM101.55 57.286C101.55 57.4913 101.485 57.664 101.354 57.804C101.223 57.9347 101.055 58 100.85 58C100.654 58 100.486 57.9347 100.346 57.804C100.215 57.664 100.15 57.4913 100.15 57.286V51.294C100.15 51.0887 100.215 50.9207 100.346 50.79C100.486 50.65 100.654 50.58 100.85 50.58C101.055 50.58 101.223 50.65 101.354 50.79C101.485 50.9207 101.55 51.0887 101.55 51.294V57.286ZM100.836 49.656C100.565 49.656 100.369 49.6093 100.248 49.516C100.127 49.4133 100.066 49.2453 100.066 49.012V48.788C100.066 48.5547 100.131 48.3913 100.262 48.298C100.393 48.2047 100.589 48.158 100.85 48.158C101.13 48.158 101.331 48.2093 101.452 48.312C101.573 48.4053 101.634 48.564 101.634 48.788V49.012C101.634 49.2547 101.569 49.4227 101.438 49.516C101.317 49.6093 101.116 49.656 100.836 49.656ZM107.227 50.468C107.89 50.468 108.403 50.608 108.767 50.888C109.131 51.1587 109.383 51.5273 109.523 51.994C109.672 52.4513 109.747 52.9647 109.747 53.534V57.286C109.747 57.4913 109.677 57.664 109.537 57.804C109.406 57.9347 109.243 58 109.047 58C108.842 58 108.674 57.9347 108.543 57.804C108.412 57.664 108.347 57.4913 108.347 57.286V53.548C108.347 53.212 108.3 52.9133 108.207 52.652C108.114 52.3813 107.95 52.1667 107.717 52.008C107.493 51.84 107.176 51.756 106.765 51.756C106.382 51.756 106.046 51.84 105.757 52.008C105.468 52.1667 105.239 52.3813 105.071 52.652C104.912 52.9133 104.833 53.212 104.833 53.548V57.286C104.833 57.4913 104.763 57.664 104.623 57.804C104.492 57.9347 104.329 58 104.133 58C103.928 58 103.76 57.9347 103.629 57.804C103.498 57.664 103.433 57.4913 103.433 57.286V51.35C103.433 51.1447 103.498 50.9767 103.629 50.846C103.76 50.706 103.928 50.636 104.133 50.636C104.329 50.636 104.492 50.706 104.623 50.846C104.763 50.9767 104.833 51.1447 104.833 51.35V52.134L104.581 52.274C104.646 52.0687 104.758 51.8633 104.917 51.658C105.085 51.4433 105.286 51.2473 105.519 51.07C105.752 50.8833 106.014 50.7387 106.303 50.636C106.592 50.524 106.9 50.468 107.227 50.468ZM111.257 56.852C111.173 56.7213 111.136 56.572 111.145 56.404C111.154 56.2267 111.252 56.0773 111.439 55.956C111.57 55.872 111.705 55.8393 111.845 55.858C111.994 55.8673 112.134 55.9373 112.265 56.068C112.526 56.3573 112.816 56.586 113.133 56.754C113.46 56.922 113.852 57.006 114.309 57.006C114.496 56.9967 114.687 56.9687 114.883 56.922C115.079 56.866 115.247 56.7727 115.387 56.642C115.527 56.502 115.597 56.3013 115.597 56.04C115.597 55.8067 115.522 55.62 115.373 55.48C115.224 55.34 115.028 55.228 114.785 55.144C114.542 55.0507 114.281 54.9667 114.001 54.892C113.702 54.808 113.399 54.7147 113.091 54.612C112.792 54.5093 112.522 54.3787 112.279 54.22C112.036 54.052 111.836 53.8373 111.677 53.576C111.528 53.3147 111.453 52.9927 111.453 52.61C111.453 52.1713 111.574 51.7933 111.817 51.476C112.069 51.1587 112.391 50.9113 112.783 50.734C113.184 50.5567 113.618 50.468 114.085 50.468C114.356 50.468 114.64 50.5053 114.939 50.58C115.238 50.6453 115.527 50.7527 115.807 50.902C116.087 51.0513 116.33 51.2473 116.535 51.49C116.628 51.6113 116.68 51.756 116.689 51.924C116.708 52.092 116.633 52.2413 116.465 52.372C116.353 52.4653 116.218 52.5073 116.059 52.498C115.9 52.4887 115.77 52.4373 115.667 52.344C115.49 52.12 115.261 51.9473 114.981 51.826C114.701 51.6953 114.384 51.63 114.029 51.63C113.852 51.63 113.665 51.658 113.469 51.714C113.282 51.7607 113.124 51.8493 112.993 51.98C112.862 52.1107 112.797 52.302 112.797 52.554C112.797 52.7873 112.872 52.974 113.021 53.114C113.18 53.254 113.385 53.3707 113.637 53.464C113.889 53.5573 114.164 53.6413 114.463 53.716C114.752 53.7907 115.037 53.8793 115.317 53.982C115.606 54.0847 115.863 54.22 116.087 54.388C116.32 54.5467 116.507 54.7567 116.647 55.018C116.796 55.27 116.871 55.592 116.871 55.984C116.871 56.4413 116.736 56.8333 116.465 57.16C116.204 57.4773 115.868 57.72 115.457 57.888C115.056 58.056 114.631 58.14 114.183 58.14C113.651 58.14 113.119 58.0467 112.587 57.86C112.064 57.664 111.621 57.328 111.257 56.852ZM118.25 60.59C118.064 60.59 117.919 60.52 117.816 60.38C117.714 60.24 117.662 60.1047 117.662 59.974C117.662 59.778 117.746 59.6193 117.914 59.498C118.493 59.0873 118.974 58.6113 119.356 58.07C119.748 57.5287 120.042 56.9453 120.238 56.32C120.434 55.6853 120.532 55.0367 120.532 54.374C120.532 53.7113 120.439 53.0627 120.252 52.428C120.066 51.7933 119.776 51.2007 119.384 50.65C119.002 50.0993 118.512 49.6327 117.914 49.25C117.746 49.138 117.662 48.9793 117.662 48.774C117.662 48.634 117.718 48.4987 117.83 48.368C117.942 48.2373 118.082 48.172 118.25 48.172C118.362 48.172 118.47 48.2 118.572 48.256C119.31 48.7133 119.926 49.2593 120.42 49.894C120.924 50.5287 121.302 51.2287 121.554 51.994C121.816 52.7593 121.946 53.5527 121.946 54.374C121.946 55.1953 121.816 55.9887 121.554 56.754C121.293 57.51 120.91 58.2053 120.406 58.84C119.912 59.4747 119.3 60.0253 118.572 60.492C118.479 60.5573 118.372 60.59 118.25 60.59Z" fill="black"/>
<path d="M298.295 30.94C298.53 31.0573 298.663 31.2387 298.695 31.484C298.738 31.7293 298.679 31.9533 298.519 32.156C298.402 32.316 298.247 32.4067 298.055 32.428C297.874 32.4493 297.692 32.412 297.511 32.316C297.202 32.156 296.876 32.028 296.535 31.932C296.194 31.836 295.831 31.788 295.447 31.788C294.839 31.788 294.29 31.8893 293.799 32.092C293.319 32.284 292.903 32.5667 292.551 32.94C292.199 33.3027 291.927 33.7347 291.735 34.236C291.554 34.7373 291.463 35.292 291.463 35.9C291.463 36.572 291.564 37.1693 291.767 37.692C291.97 38.204 292.247 38.6413 292.599 39.004C292.962 39.356 293.383 39.6227 293.863 39.804C294.354 39.9747 294.882 40.06 295.447 40.06C295.81 40.06 296.162 40.0173 296.503 39.932C296.855 39.8467 297.186 39.7187 297.495 39.548C297.687 39.452 297.874 39.42 298.055 39.452C298.247 39.4733 298.402 39.564 298.519 39.724C298.7 39.948 298.764 40.1773 298.711 40.412C298.668 40.636 298.535 40.8067 298.311 40.924C298.044 41.0733 297.751 41.2013 297.431 41.308C297.111 41.4147 296.786 41.5 296.455 41.564C296.124 41.628 295.788 41.66 295.447 41.66C294.679 41.66 293.954 41.532 293.271 41.276C292.588 41.02 291.98 40.6467 291.447 40.156C290.914 39.6653 290.492 39.0627 290.183 38.348C289.884 37.6333 289.735 36.8173 289.735 35.9C289.735 35.0787 289.874 34.3213 290.151 33.628C290.439 32.924 290.839 32.3213 291.351 31.82C291.874 31.308 292.482 30.9133 293.175 30.636C293.868 30.348 294.626 30.204 295.447 30.204C295.959 30.204 296.455 30.268 296.935 30.396C297.426 30.524 297.879 30.7053 298.295 30.94ZM304.579 32.94C305.315 32.94 305.885 33.1 306.291 33.42C306.696 33.7293 306.979 34.1507 307.139 34.684C307.309 35.2173 307.395 35.804 307.395 36.444V40.684C307.395 40.9187 307.315 41.116 307.155 41.276C307.005 41.4253 306.819 41.5 306.595 41.5C306.36 41.5 306.168 41.4253 306.019 41.276C305.869 41.116 305.795 40.9187 305.795 40.684V36.444C305.795 36.0707 305.741 35.7293 305.635 35.42C305.539 35.1107 305.363 34.8653 305.107 34.684C304.861 34.5027 304.515 34.412 304.067 34.412C303.651 34.412 303.277 34.5027 302.947 34.684C302.627 34.8653 302.376 35.1107 302.195 35.42C302.024 35.7293 301.939 36.0707 301.939 36.444V40.684C301.939 40.9187 301.859 41.116 301.699 41.276C301.549 41.4253 301.363 41.5 301.139 41.5C300.904 41.5 300.712 41.4253 300.563 41.276C300.413 41.116 300.339 40.9187 300.339 40.684V30.476C300.339 30.2413 300.413 30.0493 300.563 29.9C300.712 29.74 300.904 29.66 301.139 29.66C301.363 29.66 301.549 29.74 301.699 29.9C301.859 30.0493 301.939 30.2413 301.939 30.476V34.844L301.651 35.004C301.725 34.7693 301.848 34.5293 302.019 34.284C302.2 34.0387 302.419 33.8147 302.675 33.612C302.941 33.4093 303.235 33.2493 303.555 33.132C303.875 33.004 304.216 32.94 304.579 32.94ZM316.516 32.956C316.751 32.956 316.943 33.036 317.092 33.196C317.241 33.3453 317.316 33.5373 317.316 33.772V40.684C317.316 40.9187 317.241 41.116 317.092 41.276C316.943 41.4253 316.751 41.5 316.516 41.5C316.292 41.5 316.1 41.4253 315.94 41.276C315.791 41.116 315.716 40.9187 315.716 40.684V39.532L316.052 39.58C316.052 39.772 315.972 39.9853 315.812 40.22C315.663 40.4547 315.455 40.684 315.188 40.908C314.921 41.1213 314.607 41.3027 314.244 41.452C313.881 41.5907 313.492 41.66 313.076 41.66C312.34 41.66 311.679 41.4733 311.092 41.1C310.505 40.716 310.041 40.1933 309.7 39.532C309.359 38.8707 309.188 38.1187 309.188 37.276C309.188 36.412 309.359 35.6547 309.7 35.004C310.041 34.3427 310.5 33.8253 311.076 33.452C311.663 33.0787 312.313 32.892 313.028 32.892C313.487 32.892 313.908 32.9667 314.292 33.116C314.687 33.2653 315.028 33.4573 315.316 33.692C315.604 33.9267 315.823 34.1773 315.972 34.444C316.132 34.7 316.212 34.9453 316.212 35.18L315.716 35.228V33.772C315.716 33.548 315.791 33.356 315.94 33.196C316.1 33.036 316.292 32.956 316.516 32.956ZM313.252 40.188C313.753 40.188 314.196 40.06 314.58 39.804C314.964 39.548 315.263 39.2013 315.476 38.764C315.689 38.316 315.796 37.82 315.796 37.276C315.796 36.7213 315.689 36.2253 315.476 35.788C315.263 35.3507 314.964 35.004 314.58 34.748C314.196 34.492 313.753 34.364 313.252 34.364C312.761 34.364 312.324 34.492 311.94 34.748C311.567 35.004 311.268 35.3507 311.044 35.788C310.831 36.2253 310.724 36.7213 310.724 37.276C310.724 37.82 310.831 38.316 311.044 38.764C311.268 39.2013 311.567 39.548 311.94 39.804C312.324 40.06 312.761 40.188 313.252 40.188ZM323.894 32.892C324.651 32.892 325.238 33.052 325.654 33.372C326.07 33.6813 326.358 34.1027 326.517 34.636C326.688 35.1587 326.774 35.7453 326.774 36.396V40.684C326.774 40.9187 326.694 41.116 326.534 41.276C326.384 41.4253 326.198 41.5 325.974 41.5C325.739 41.5 325.547 41.4253 325.398 41.276C325.248 41.116 325.174 40.9187 325.174 40.684V36.412C325.174 36.028 325.12 35.6867 325.014 35.388C324.907 35.0787 324.72 34.8333 324.454 34.652C324.198 34.46 323.835 34.364 323.366 34.364C322.928 34.364 322.544 34.46 322.214 34.652C321.883 34.8333 321.622 35.0787 321.43 35.388C321.248 35.6867 321.158 36.028 321.158 36.412V40.684C321.158 40.9187 321.078 41.116 320.918 41.276C320.768 41.4253 320.582 41.5 320.358 41.5C320.123 41.5 319.931 41.4253 319.782 41.276C319.632 41.116 319.558 40.9187 319.558 40.684V33.9C319.558 33.6653 319.632 33.4733 319.782 33.324C319.931 33.164 320.123 33.084 320.358 33.084C320.582 33.084 320.768 33.164 320.918 33.324C321.078 33.4733 321.158 33.6653 321.158 33.9V34.796L320.87 34.956C320.944 34.7213 321.072 34.4867 321.254 34.252C321.446 34.0067 321.675 33.7827 321.942 33.58C322.208 33.3667 322.507 33.2013 322.838 33.084C323.168 32.956 323.52 32.892 323.894 32.892ZM332.499 32.892C332.958 32.892 333.379 32.9667 333.763 33.116C334.147 33.2653 334.478 33.4573 334.755 33.692C335.043 33.916 335.267 34.1507 335.427 34.396C335.587 34.6413 335.667 34.8547 335.667 35.036L335.299 35.052V33.772C335.299 33.548 335.374 33.356 335.523 33.196C335.672 33.036 335.864 32.956 336.099 32.956C336.334 32.956 336.526 33.036 336.675 33.196C336.824 33.3453 336.899 33.5373 336.899 33.772V40.828C336.899 41.7347 336.707 42.4707 336.323 43.036C335.939 43.612 335.427 44.0333 334.787 44.3C334.158 44.5667 333.464 44.7 332.707 44.7C332.44 44.7 332.126 44.6627 331.763 44.588C331.4 44.524 331.064 44.444 330.755 44.348C330.456 44.252 330.248 44.156 330.131 44.06C329.886 43.932 329.72 43.7827 329.635 43.612C329.56 43.4413 329.56 43.2707 329.635 43.1C329.742 42.8653 329.886 42.7213 330.067 42.668C330.248 42.6147 330.456 42.6307 330.691 42.716C330.798 42.748 330.963 42.8067 331.187 42.892C331.411 42.9773 331.662 43.052 331.939 43.116C332.216 43.1907 332.478 43.228 332.723 43.228C333.576 43.228 334.216 43.0307 334.643 42.636C335.08 42.2413 335.299 41.7027 335.299 41.02V39.58L335.475 39.692C335.443 39.916 335.342 40.1453 335.171 40.38C335.011 40.604 334.798 40.812 334.531 41.004C334.264 41.196 333.955 41.356 333.603 41.484C333.262 41.6013 332.91 41.66 332.547 41.66C331.79 41.66 331.112 41.4733 330.515 41.1C329.918 40.716 329.443 40.1987 329.091 39.548C328.739 38.8867 328.563 38.1293 328.563 37.276C328.563 36.4227 328.739 35.6707 329.091 35.02C329.443 34.3587 329.912 33.8413 330.499 33.468C331.096 33.084 331.763 32.892 332.499 32.892ZM332.739 34.364C332.216 34.364 331.758 34.492 331.363 34.748C330.968 35.004 330.659 35.3507 330.435 35.788C330.211 36.2253 330.099 36.7213 330.099 37.276C330.099 37.8307 330.211 38.3267 330.435 38.764C330.659 39.2013 330.968 39.548 331.363 39.804C331.758 40.06 332.216 40.188 332.739 40.188C333.262 40.188 333.72 40.0653 334.115 39.82C334.51 39.564 334.819 39.2173 335.043 38.78C335.267 38.332 335.379 37.8307 335.379 37.276C335.379 36.7213 335.267 36.2253 335.043 35.788C334.819 35.34 334.51 34.9933 334.115 34.748C333.72 34.492 333.262 34.364 332.739 34.364ZM342.728 41.66C341.842 41.66 341.074 41.4787 340.424 41.116C339.773 40.7427 339.266 40.236 338.904 39.596C338.552 38.9453 338.376 38.204 338.376 37.372C338.376 36.4333 338.562 35.6333 338.936 34.972C339.32 34.3 339.816 33.788 340.424 33.436C341.032 33.0733 341.677 32.892 342.36 32.892C342.882 32.892 343.378 32.9987 343.848 33.212C344.317 33.4147 344.733 33.7027 345.096 34.076C345.469 34.4387 345.762 34.8707 345.976 35.372C346.189 35.8627 346.301 36.4013 346.312 36.988C346.301 37.2013 346.216 37.3773 346.056 37.516C345.896 37.6547 345.709 37.724 345.496 37.724H339.272L338.888 36.364H344.904L344.6 36.652V36.252C344.578 35.8787 344.456 35.5533 344.232 35.276C344.008 34.988 343.73 34.7693 343.4 34.62C343.069 34.46 342.722 34.38 342.36 34.38C342.04 34.38 341.73 34.4333 341.432 34.54C341.144 34.636 340.882 34.796 340.648 35.02C340.424 35.244 340.242 35.5427 340.104 35.916C339.976 36.2787 339.912 36.732 339.912 37.276C339.912 37.8627 340.034 38.3747 340.28 38.812C340.525 39.2493 340.856 39.5907 341.272 39.836C341.688 40.0707 342.146 40.188 342.648 40.188C343.042 40.188 343.368 40.1507 343.624 40.076C343.88 39.9907 344.093 39.8893 344.264 39.772C344.434 39.6547 344.584 39.5427 344.712 39.436C344.872 39.34 345.032 39.292 345.192 39.292C345.384 39.292 345.544 39.3613 345.672 39.5C345.8 39.628 345.864 39.7827 345.864 39.964C345.864 40.1987 345.746 40.412 345.512 40.604C345.224 40.8813 344.824 41.1267 344.312 41.34C343.81 41.5533 343.282 41.66 342.728 41.66Z" fill="#FF4300"/>
<path d="M289.047 43.5H347V44.3H289.047V43.5Z" fill="#FF4300"/>
</svg>
