<svg width="46" height="15" viewBox="0 0 46 15" fill="none" xmlns="http://www.w3.org/2000/svg">
<rect width="45.75" height="15" rx="2" fill="white"/>
<path fill-rule="evenodd" clip-rule="evenodd" d="M16.0427 10.3736V5H16.5V10.3736C16.5 11.2028 15.8516 11.875 15.0518 11.875H7.125V11.4009H15.0518C15.5991 11.4009 16.0427 10.9409 16.0427 10.3736Z" fill="#00A9A2"/>
<path d="M13.375 7.18765C13.375 8.48306 12.8501 9.65475 12.0016 10.5016C11.1533 11.3498 9.98131 11.875 8.68765 11.875H5.65609C4.74202 11.875 4 11.133 4 10.2189V4.15784C4 3.69993 4.18602 3.28569 4.48585 2.98614C4.78423 2.68602 5.19993 2.5 5.65609 2.5H8.68735C11.2764 2.5 13.375 4.59828 13.375 7.18765Z" fill="#007460"/>
<path d="M6.5 5C6.5 4.65482 6.76117 4.375 7.08333 4.375H14.6667C14.9888 4.375 15.25 4.65482 15.25 5V10C15.25 10.3452 14.9888 10.625 14.6667 10.625H7.08333C6.76117 10.625 6.5 10.3452 6.5 10V5Z" fill="#DCF3F3"/>
<path fill-rule="evenodd" clip-rule="evenodd" d="M14.6667 5H7.08333L7.08333 10H14.6667V5ZM7.08333 4.375C6.76117 4.375 6.5 4.65482 6.5 5V10C6.5 10.3452 6.76117 10.625 7.08333 10.625H14.6667C14.9888 10.625 15.25 10.3452 15.25 10V5C15.25 4.65482 14.9888 4.375 14.6667 4.375H7.08333Z" fill="#00A9A2"/>
<path d="M12.125 7.49993C12.1251 7.41076 12.0911 7.3213 12.0232 7.25355L11.1215 6.35199C11.0533 6.28395 10.9642 6.25 10.875 6.25C10.7857 6.25 10.6964 6.28395 10.6285 6.35199L9.72699 7.25326C9.6588 7.32145 9.625 7.41076 9.625 7.50007C9.625 7.58924 9.6588 7.67855 9.72699 7.74659L10.6285 8.6483C10.6965 8.7162 10.786 8.75029 10.875 8.75C10.9642 8.75 11.0533 8.7162 11.1215 8.64801L12.023 7.74674C12.0909 7.67855 12.125 7.58909 12.125 7.49993Z" fill="#00A9A2"/>
<path d="M15.25 5.3125C15.25 5.83027 14.8303 6.25 14.3125 6.25C13.7947 6.25 13.375 5.83027 13.375 5.3125C13.375 4.79473 13.7947 4.375 14.3125 4.375C14.8303 4.375 15.25 4.79473 15.25 5.3125Z" fill="#00A9A2"/>
<path d="M15.25 9.375C15.25 10.0654 14.8303 10.625 14.3125 10.625C13.7947 10.625 13.375 10.0654 13.375 9.375C13.375 8.68464 13.7947 8.125 14.3125 8.125C14.8303 8.125 15.25 8.68464 15.25 9.375Z" fill="#00A9A2"/>
<path d="M8.375 5.3125C8.375 5.83027 7.95527 6.25 7.4375 6.25C6.91973 6.25 6.5 5.83027 6.5 5.3125C6.5 4.79473 6.91973 4.375 7.4375 4.375C7.95527 4.375 8.375 4.79473 8.375 5.3125Z" fill="#00A9A2"/>
<path d="M8.375 9.375C8.375 10.0654 7.95527 10.625 7.4375 10.625C6.91973 10.625 6.5 10.0654 6.5 9.375C6.5 8.68464 6.91973 8.125 7.4375 8.125C7.95527 8.125 8.375 8.68464 8.375 9.375Z" fill="#00A9A2"/>
<path fill-rule="evenodd" clip-rule="evenodd" d="M17.4211 10.5183V6.25H17.75V10.5183C17.75 11.6128 16.7927 12.5 15.6118 12.5H8.375V12.1951H15.6118C16.611 12.1951 17.4211 11.4444 17.4211 10.5183Z" fill="#00A9A2"/>
<path d="M22.79 5.7C23.13 5.7 23.4367 5.73667 23.71 5.81C23.9833 5.88333 24.2 5.98333 24.36 6.11C24.52 6.23667 24.6 6.38 24.6 6.54C24.6 6.62667 24.57 6.71 24.51 6.79C24.45 6.87 24.37 6.91 24.27 6.91C24.1767 6.91 24.1 6.89333 24.04 6.86C23.9867 6.82667 23.9333 6.78333 23.88 6.73C23.8333 6.67667 23.7667 6.63 23.68 6.59C23.6 6.54333 23.4833 6.50667 23.33 6.48C23.1767 6.45333 23.0233 6.44 22.87 6.44C22.5033 6.44 22.18 6.52667 21.9 6.7C21.6267 6.87333 21.41 7.10667 21.25 7.4C21.09 7.69333 21.01 8.02667 21.01 8.4C21.01 8.77333 21.0867 9.10667 21.24 9.4C21.3933 9.69333 21.6067 9.92667 21.88 10.1C22.1533 10.2733 22.47 10.36 22.83 10.36C23.0633 10.36 23.25 10.34 23.39 10.3C23.53 10.26 23.6467 10.2133 23.74 10.16C23.86 10.0933 23.95 10.0267 24.01 9.96C24.0767 9.89333 24.1633 9.86 24.27 9.86C24.3833 9.86 24.47 9.89667 24.53 9.97C24.5967 10.0433 24.63 10.1333 24.63 10.24C24.63 10.36 24.5467 10.4867 24.38 10.62C24.2133 10.7533 23.9867 10.8667 23.7 10.96C23.42 11.0533 23.1 11.1 22.74 11.1C22.2333 11.1 21.79 10.9833 21.41 10.75C21.03 10.51 20.7333 10.1867 20.52 9.78C20.3133 9.36667 20.21 8.90667 20.21 8.4C20.21 7.89333 20.3167 7.43667 20.53 7.03C20.75 6.62333 21.0533 6.3 21.44 6.06C21.8267 5.82 22.2767 5.7 22.79 5.7ZM29.9355 5.78C30.0489 5.78 30.1422 5.82 30.2155 5.9C30.2955 5.97333 30.3355 6.06667 30.3355 6.18V10.59C30.3355 10.7033 30.2955 10.8 30.2155 10.88C30.1422 10.96 30.0489 11 29.9355 11C29.8155 11 29.7189 10.96 29.6455 10.88C29.5722 10.8 29.5355 10.7033 29.5355 10.59V9.64L29.7255 9.62C29.7255 9.76667 29.6755 9.92667 29.5755 10.1C29.4755 10.2733 29.3389 10.4367 29.1655 10.59C28.9922 10.7367 28.7855 10.86 28.5455 10.96C28.3122 11.0533 28.0589 11.1 27.7855 11.1C27.3322 11.1 26.9255 10.9833 26.5655 10.75C26.2055 10.51 25.9189 10.1867 25.7055 9.78C25.4989 9.37333 25.3955 8.91 25.3955 8.39C25.3955 7.86333 25.4989 7.4 25.7055 7C25.9189 6.59333 26.2055 6.27667 26.5655 6.05C26.9255 5.81667 27.3255 5.7 27.7655 5.7C28.0522 5.7 28.3189 5.74667 28.5655 5.84C28.8122 5.93333 29.0255 6.06 29.2055 6.22C29.3922 6.38 29.5355 6.55667 29.6355 6.75C29.7422 6.94333 29.7955 7.13667 29.7955 7.33L29.5355 7.27V6.18C29.5355 6.06667 29.5722 5.97333 29.6455 5.9C29.7189 5.82 29.8155 5.78 29.9355 5.78ZM27.8755 10.36C28.2089 10.36 28.5022 10.2733 28.7555 10.1C29.0155 9.92667 29.2155 9.69333 29.3555 9.4C29.5022 9.1 29.5755 8.76333 29.5755 8.39C29.5755 8.02333 29.5022 7.69333 29.3555 7.4C29.2155 7.1 29.0155 6.86667 28.7555 6.7C28.5022 6.52667 28.2089 6.44 27.8755 6.44C27.5489 6.44 27.2555 6.52333 26.9955 6.69C26.7422 6.85667 26.5422 7.08667 26.3955 7.38C26.2489 7.67333 26.1755 8.01 26.1755 8.39C26.1755 8.76333 26.2455 9.1 26.3855 9.4C26.5322 9.69333 26.7322 9.92667 26.9855 10.1C27.2455 10.2733 27.5422 10.36 27.8755 10.36ZM31.5281 10.18C31.4681 10.0933 31.4415 10.0033 31.4481 9.91C31.4548 9.81 31.5115 9.72333 31.6181 9.65C31.6848 9.60333 31.7615 9.58333 31.8481 9.59C31.9415 9.59667 32.0248 9.64 32.0981 9.72C32.2848 9.94 32.4981 10.1167 32.7381 10.25C32.9781 10.3767 33.2715 10.44 33.6181 10.44C33.7781 10.4333 33.9381 10.4067 34.0981 10.36C34.2581 10.3133 34.3915 10.2333 34.4981 10.12C34.6115 10 34.6681 9.84333 34.6681 9.65C34.6681 9.46333 34.6115 9.31667 34.4981 9.21C34.3848 9.09667 34.2381 9.00667 34.0581 8.94C33.8781 8.86667 33.6815 8.80333 33.4681 8.75C33.2481 8.69 33.0315 8.62333 32.8181 8.55C32.6048 8.47 32.4115 8.37333 32.2381 8.26C32.0715 8.14 31.9348 7.99333 31.8281 7.82C31.7281 7.64 31.6781 7.42333 31.6781 7.17C31.6781 6.87 31.7581 6.61 31.9181 6.39C32.0848 6.17 32.3048 6 32.5781 5.88C32.8581 5.76 33.1615 5.7 33.4881 5.7C33.6748 5.7 33.8681 5.72333 34.0681 5.77C34.2748 5.81 34.4748 5.88333 34.6681 5.99C34.8615 6.09 35.0315 6.23 35.1781 6.41C35.2381 6.47667 35.2715 6.56 35.2781 6.66C35.2848 6.76 35.2415 6.85 35.1481 6.93C35.0748 6.98333 34.9915 7.00667 34.8981 7C34.8115 6.99333 34.7381 6.96 34.6781 6.9C34.5381 6.73333 34.3615 6.60667 34.1481 6.52C33.9415 6.42667 33.7115 6.38 33.4581 6.38C33.2981 6.38 33.1415 6.40333 32.9881 6.45C32.8348 6.49667 32.7048 6.57667 32.5981 6.69C32.4981 6.79667 32.4481 6.94667 32.4481 7.14C32.4548 7.32 32.5148 7.46667 32.6281 7.58C32.7415 7.69333 32.8948 7.78667 33.0881 7.86C33.2815 7.92667 33.4948 7.99333 33.7281 8.06C33.9415 8.11333 34.1448 8.17667 34.3381 8.25C34.5381 8.31667 34.7181 8.40667 34.8781 8.52C35.0381 8.63333 35.1648 8.78 35.2581 8.96C35.3515 9.13333 35.3981 9.35333 35.3981 9.62C35.3981 9.92667 35.3115 10.1933 35.1381 10.42C34.9648 10.64 34.7348 10.81 34.4481 10.93C34.1681 11.0433 33.8648 11.1 33.5381 11.1C33.1715 11.1 32.8081 11.03 32.4481 10.89C32.0948 10.75 31.7881 10.5133 31.5281 10.18ZM39.0545 5.75C39.4945 5.75 39.8411 5.84667 40.0945 6.04C40.3545 6.22667 40.5378 6.48 40.6445 6.8C40.7578 7.11333 40.8145 7.46333 40.8145 7.85V10.59C40.8145 10.7033 40.7745 10.8 40.6945 10.88C40.6211 10.96 40.5278 11 40.4145 11C40.3011 11 40.2045 10.96 40.1245 10.88C40.0511 10.8 40.0145 10.7033 40.0145 10.59V7.85C40.0145 7.59667 39.9778 7.37 39.9045 7.17C39.8311 6.96333 39.7078 6.8 39.5345 6.68C39.3678 6.55333 39.1378 6.49 38.8445 6.49C38.5711 6.49 38.3211 6.55333 38.0945 6.68C37.8678 6.8 37.6878 6.96333 37.5545 7.17C37.4211 7.37 37.3545 7.59667 37.3545 7.85V10.59C37.3545 10.7033 37.3145 10.8 37.2345 10.88C37.1611 10.96 37.0678 11 36.9545 11C36.8411 11 36.7445 10.96 36.6645 10.88C36.5911 10.8 36.5545 10.7033 36.5545 10.59V4C36.5545 3.88667 36.5911 3.79333 36.6645 3.72C36.7445 3.64 36.8411 3.6 36.9545 3.6C37.0745 3.6 37.1711 3.64 37.2445 3.72C37.3178 3.79333 37.3545 3.88667 37.3545 4V6.99L37.1545 7.21C37.1878 7.03667 37.2611 6.86333 37.3745 6.69C37.4878 6.51 37.6311 6.35 37.8045 6.21C37.9778 6.07 38.1711 5.96 38.3845 5.88C38.5978 5.79333 38.8211 5.75 39.0545 5.75Z" fill="black"/>
</svg>
