<svg width="161" height="16" viewBox="0 0 161 16" fill="none" xmlns="http://www.w3.org/2000/svg">
<path d="M139.318 2.66553C139.332 2.87764 139.318 3.08974 139.252 3.29478C139.07 3.88161 138.706 4.31997 138.108 4.55329C137.926 4.62399 137.737 4.65227 137.533 4.63813C137.533 4.54622 137.525 4.44723 137.533 4.35532C137.591 3.86747 137.817 3.46447 138.188 3.13923C138.48 2.88471 138.822 2.72916 139.208 2.6726C139.216 2.6726 139.23 2.66553 139.238 2.66553C139.259 2.66553 139.289 2.66553 139.318 2.66553Z" fill="white"/>
<path d="M140.928 5.59274C139.536 6.45531 139.719 8.34307 141.154 8.96526C141.125 9.04303 141.103 9.1208 141.067 9.19857C140.833 9.79248 140.484 10.3227 140.054 10.7965C139.879 10.9874 139.675 11.1358 139.42 11.1995C139.15 11.2702 138.888 11.2207 138.633 11.1217C138.465 11.0581 138.305 10.9874 138.13 10.9379C137.751 10.8389 137.387 10.8884 137.03 11.0298C136.862 11.0934 136.695 11.1641 136.52 11.2065C136.192 11.2914 135.893 11.2065 135.631 11.0015C135.398 10.8247 135.216 10.5985 135.041 10.3652C134.575 9.75712 134.261 9.08545 134.086 8.35014C133.984 7.933 133.941 7.50878 133.963 7.0775C133.999 6.51895 134.159 5.99575 134.531 5.55032C134.881 5.1261 135.332 4.87157 135.886 4.77966C136.236 4.7231 136.571 4.7938 136.899 4.914C137.059 4.97056 137.212 5.02712 137.372 5.08368C137.526 5.14024 137.686 5.14024 137.846 5.08368C138.05 5.01298 138.254 4.93521 138.465 4.8645C138.735 4.77259 139.005 4.70896 139.289 4.73017C139.945 4.77259 140.506 5.00591 140.906 5.53618C140.914 5.55032 140.921 5.55739 140.928 5.57153C140.928 5.58567 140.928 5.58567 140.928 5.59274Z" fill="white"/>
<path d="M144.776 8.47715C144.776 9.38214 144.776 10.2801 144.776 11.178C144.353 11.178 143.93 11.178 143.508 11.178C143.508 8.54078 143.508 5.91064 143.508 3.27344C143.53 3.27344 143.544 3.27344 143.566 3.27344C144.572 3.27344 145.584 3.27344 146.59 3.27344C147.129 3.27344 147.646 3.39363 148.105 3.68351C148.645 4.02289 148.987 4.49659 149.155 5.09756C149.322 5.73389 149.3 6.37021 149.031 6.97825C148.703 7.72063 148.113 8.1802 147.311 8.38524C147.056 8.44887 146.801 8.47715 146.539 8.47715C145.978 8.47715 145.41 8.47715 144.848 8.47715C144.827 8.47715 144.805 8.47715 144.776 8.47715ZM144.783 7.44489C144.805 7.44489 144.819 7.44489 144.827 7.44489C145.3 7.44489 145.774 7.44489 146.247 7.44489C146.459 7.44489 146.663 7.42368 146.867 7.36712C147.362 7.23278 147.719 6.9429 147.872 6.46213C147.996 6.08033 147.996 5.69854 147.88 5.30967C147.77 4.94909 147.544 4.67335 147.195 4.49659C146.947 4.3764 146.677 4.31277 146.408 4.3057C145.883 4.29863 145.351 4.29863 144.827 4.29863C144.812 4.29863 144.797 4.29863 144.783 4.3057C144.783 5.35916 144.783 6.39849 144.783 7.44489Z" fill="white"/>
<path d="M153.416 7.75601C153.409 7.52269 153.438 7.29644 153.387 7.07019C153.322 6.7591 153.139 6.54699 152.833 6.43387C152.447 6.29246 152.047 6.28539 151.66 6.41973C151.325 6.53992 151.099 6.7591 151.012 7.10554C151.012 7.11969 150.99 7.13383 150.975 7.13383C150.604 7.13383 150.24 7.13383 149.853 7.13383C149.875 7.0207 149.883 6.91465 149.904 6.80859C150.021 6.33489 150.32 5.99551 150.735 5.74098C151.07 5.53595 151.442 5.42282 151.843 5.3804C152.302 5.33091 152.753 5.35919 153.198 5.48645C153.569 5.59251 153.905 5.76927 154.174 6.05208C154.429 6.32075 154.575 6.63891 154.611 6.99949C154.626 7.10554 154.626 7.21867 154.626 7.32472C154.626 8.58323 154.626 9.84174 154.626 11.1002C154.626 11.1215 154.626 11.1497 154.626 11.1709C154.232 11.1709 153.846 11.1709 153.453 11.1709C153.453 10.8599 153.453 10.5417 153.453 10.2306C153.445 10.2306 153.445 10.2306 153.438 10.2235C153.431 10.2306 153.424 10.2377 153.416 10.2518C153.125 10.7397 152.688 11.0295 152.134 11.1639C151.587 11.2982 151.041 11.2558 150.524 11.0225C149.985 10.775 149.657 10.3579 149.577 9.78517C149.518 9.38217 149.576 9.00037 149.824 8.661C150.014 8.40647 150.269 8.23679 150.56 8.10952C150.866 7.98226 151.187 7.91155 151.515 7.8762C151.828 7.84792 152.141 7.83378 152.455 7.81257C152.753 7.79136 153.052 7.77722 153.351 7.76308C153.373 7.76308 153.394 7.76308 153.416 7.75601ZM153.416 8.5903C153.394 8.5903 153.38 8.5903 153.373 8.5903C153.125 8.60444 152.877 8.61858 152.629 8.63979C152.338 8.661 152.047 8.67514 151.755 8.70342C151.544 8.72463 151.34 8.7812 151.158 8.89432C150.866 9.07108 150.735 9.39631 150.837 9.71447C150.917 9.969 151.099 10.1316 151.354 10.2094C151.879 10.372 152.382 10.3296 152.848 10.0397C153.125 9.87002 153.307 9.62256 153.38 9.31147C153.438 9.07815 153.402 8.83776 153.416 8.5903Z" fill="white"/>
<path d="M155.122 5.44434C155.567 5.44434 156.004 5.44434 156.448 5.44434C156.944 6.99979 157.439 8.55525 157.942 10.1178C157.949 10.1178 157.956 10.1178 157.956 10.1178C157.964 10.1036 157.971 10.0895 157.978 10.0754C158.109 9.65821 158.248 9.24107 158.379 8.81685C158.736 7.70682 159.086 6.59679 159.443 5.49383C159.45 5.46555 159.457 5.44434 159.494 5.44434C159.902 5.44434 160.31 5.44434 160.711 5.44434C160.718 5.44434 160.725 5.44434 160.74 5.44434C160.725 5.49383 160.703 5.53625 160.689 5.58574C159.953 7.57955 159.224 9.57337 158.488 11.5601C158.364 11.8924 158.219 12.2176 158.015 12.5075C157.709 12.9459 157.293 13.2075 156.754 13.2853C156.419 13.3347 156.091 13.3347 155.756 13.3065C155.727 13.3065 155.705 13.2994 155.705 13.264C155.705 12.9671 155.705 12.6701 155.705 12.3732C155.705 12.3661 155.705 12.3591 155.705 12.3661C155.822 12.3661 155.938 12.3661 156.055 12.3661C156.193 12.3661 156.339 12.3591 156.47 12.3166C156.696 12.2459 156.863 12.1045 156.98 11.9066C157.082 11.7369 157.133 11.5389 157.206 11.3551C157.25 11.2419 157.242 11.143 157.199 11.0298C156.506 9.1845 155.822 7.33917 155.137 5.49383C155.137 5.48676 155.129 5.46555 155.122 5.44434Z" fill="white"/>
<path d="M114.236 11.8356C114.236 11.8356 114.207 11.8356 114.17 11.8356H112.852V11.7508C112.699 11.8073 112.538 11.8427 112.385 11.8427C112.385 11.8427 112.356 11.8427 112.32 11.8427H111.54V11.8498H109.646H108.363V11.475C108.363 11.475 108.363 11.2064 108.363 11.1569C108.349 11.1569 108.312 11.1569 108.276 11.1569C108.276 11.3124 108.276 11.8498 108.276 11.8498H106.979V11.1003C106.768 11.1852 106.52 11.2064 106.287 11.2064C106.287 11.2064 106.207 11.2064 106.163 11.2064C106.163 11.3336 106.163 11.8498 106.163 11.8498H104.633C104.633 11.8498 104.385 11.5811 104.247 11.4397C104.108 11.5811 103.86 11.8498 103.86 11.8498H101.354V9.09235H103.817C103.817 9.09235 104.094 9.38224 104.247 9.55192C104.407 9.38931 104.676 9.09943 104.676 9.09943H104.844H105.245H106.498C106.571 9.09235 106.76 9.09236 106.972 9.17013V9.1065H108.618C108.698 9.09943 108.91 9.09943 109.128 9.18427V9.1065H111.147H111.533V9.18427C111.759 9.09235 111.97 9.09943 111.999 9.09943H113.369V9.18427C113.602 9.09235 113.813 9.09943 113.843 9.09943H114.826V0H97.9731V7.02077L98.5487 5.69156H99.802C99.802 5.69156 99.9477 6.02386 99.955 6.038C99.955 5.98851 99.955 5.69156 99.955 5.69156H101.419C101.419 5.69156 101.638 6.16527 101.74 6.39152C101.842 6.16527 102.061 5.69156 102.061 5.69156H103.044H103.139H103.525H104.946H105.063H105.449H106.585C106.666 5.68449 106.877 5.68449 107.095 5.76933V5.69156H108.014H108.4V5.86125C108.589 5.74812 108.808 5.68449 109.026 5.67742C109.026 5.67742 109.726 5.69863 109.755 5.69863H111.001C111.001 5.69863 111.139 6.00972 111.139 6.02386C111.139 5.94609 111.139 5.69863 111.139 5.69863H112.487C112.487 5.69863 112.677 6.00972 112.699 6.04507C112.699 5.98851 112.699 5.69863 112.699 5.69863H114.003V8.44896H112.677C112.677 8.44896 112.48 8.1308 112.451 8.08838C112.451 8.11666 112.451 8.44896 112.451 8.44896H110.782C110.782 8.44896 110.637 8.12373 110.6 8.03182C110.425 8.03182 110.331 8.03182 110.156 8.03182C110.112 8.12373 109.974 8.44896 109.974 8.44896H108.866L108.837 8.44189C108.713 8.42775 108.553 8.37119 108.4 8.2722V8.44896H107.482V8.44189H106.323V8.06717C106.323 8.06717 106.323 7.7985 106.323 7.74901C106.309 7.74901 106.272 7.74901 106.236 7.74901C106.236 7.90455 106.236 8.44189 106.236 8.44189H105.441H104.939H103.518H103.423H102.214C102.214 8.44189 102.214 8.40654 102.214 8.39947C102.206 8.41361 102.192 8.44189 102.192 8.44189H101.266C101.266 8.44189 101.252 8.40654 101.245 8.3924C101.245 8.40654 101.245 8.44189 101.245 8.44189H99.5688C99.5688 8.44189 99.4304 8.11666 99.3866 8.02475C99.2118 8.02475 99.117 8.02475 98.9422 8.02475C98.8985 8.11666 98.76 8.44189 98.76 8.44189H97.9658V15.9929H114.819V11.6659C114.666 11.7861 114.447 11.8356 114.236 11.8356Z" fill="url(#paint0_radial_1_2221)"/>
<path d="M106.746 8.06716V7.67829C106.746 7.67829 106.724 7.37427 106.396 7.37427H105.886V8.06716H105.361V6.06627H106.629C106.629 6.06627 107.292 5.9885 107.292 6.65311C107.292 6.99955 107.001 7.11974 107.001 7.11974C107.001 7.11974 107.256 7.23287 107.256 7.57224V8.06716H106.746ZM105.886 6.90764H106.425C106.585 6.90764 106.709 6.82279 106.709 6.71674C106.709 6.61068 106.578 6.52584 106.425 6.52584H105.886V6.90764Z" fill="url(#paint1_radial_1_2221)"/>
<path d="M112.925 8.06702L112.094 6.73074V8.06702H111.642H111.555H111.067L110.885 7.64987H109.93L109.748 8.06702H109.267H109.18H108.925C108.925 8.06702 108.218 7.96803 108.218 7.1196C108.218 6.00957 109.019 6.05199 109.041 6.04492L109.69 6.05906V6.51156L109.158 6.51863C109.158 6.51863 108.815 6.51863 108.772 6.95699C108.764 7.00648 108.764 7.05597 108.764 7.09839C108.764 7.77714 109.369 7.56503 109.391 7.55796L110.039 6.06613H110.775L111.562 7.88319V6.06613H112.305L113.129 7.3812V6.06613H113.653V8.06702H112.925ZM110.149 7.14081H110.659L110.411 6.54691L110.149 7.14081Z" fill="url(#paint2_radial_1_2221)"/>
<path d="M102.637 8.0668V6.6881L101.981 8.0668H101.551L100.888 6.69517V8.0668H100.429H100.356H99.8534L99.6712 7.64966H98.7168L98.5346 8.0668H97.959L98.826 6.06592H99.562L100.356 7.90419V6.06592H101.179L101.755 7.31028L102.331 6.06592H103.154V8.0668H102.637ZM98.9499 7.1406H99.4599L99.2049 6.5467L98.9499 7.1406Z" fill="url(#paint3_radial_1_2221)"/>
<path d="M103.46 8.0668V6.06592H105.092V6.53256H103.985V6.84365H105.063V7.29614H103.985V7.63552H105.092V8.0668H103.46Z" fill="url(#paint4_radial_1_2221)"/>
<path d="M107.519 8.07387V6.06592H108.043V8.07387H107.519Z" fill="url(#paint5_radial_1_2221)"/>
<path d="M108.764 11.4607V11.0718C108.764 11.0718 108.742 10.7678 108.415 10.7678H107.904V11.4607H107.38V9.45983H108.648C108.648 9.45983 109.311 9.38206 109.311 10.0467C109.311 10.3931 109.019 10.5133 109.019 10.5133C109.019 10.5133 109.274 10.6264 109.274 10.9658V11.4607H108.764ZM107.912 10.2941H108.451C108.611 10.2941 108.735 10.2093 108.735 10.1032C108.735 9.99717 108.604 9.91233 108.451 9.91233H107.912V10.2941Z" fill="url(#paint6_radial_1_2221)"/>
<path d="M105.281 11.4609H104.822L104.269 10.867L103.708 11.4609H103.387H101.755V9.4529H103.387H103.664L104.261 10.0892L104.866 9.4529H105.267H106.535C106.535 9.4529 107.198 9.3822 107.198 10.0397C107.198 10.6266 106.979 10.8104 106.301 10.8104H105.791V11.4538H105.281M104.626 10.471L105.274 11.171V9.77813L104.626 10.471ZM102.287 11.0225H103.387L103.904 10.471L103.387 9.91954H102.287V10.2306H103.365V10.6831H102.287V11.0225ZM105.791 10.2943H106.331C106.491 10.2943 106.615 10.2094 106.615 10.1034C106.615 9.99731 106.484 9.91247 106.331 9.91247H105.791V10.2943Z" fill="url(#paint7_radial_1_2221)"/>
<path d="M112.335 11.4539H111.402V10.9943H112.218C112.218 10.9943 112.51 11.0297 112.51 10.8388C112.51 10.662 112.065 10.6762 112.065 10.6762C112.065 10.6762 111.344 10.7398 111.344 10.0822C111.344 9.43179 112 9.46714 112 9.46714H113.005V9.93377H112.196C112.196 9.93377 111.919 9.87721 111.919 10.0752C111.919 10.2378 112.298 10.2166 112.298 10.2166C112.298 10.2166 113.1 10.16 113.1 10.761C113.1 11.4044 112.582 11.468 112.4 11.468C112.364 11.4609 112.335 11.4539 112.335 11.4539Z" fill="url(#paint8_radial_1_2221)"/>
<path d="M109.536 11.4608V9.45996H111.168V9.9266H110.061V10.2306H111.139V10.6902H110.061V11.0225H111.168V11.4608H109.536Z" fill="url(#paint9_radial_1_2221)"/>
<path d="M114.185 11.4539H113.252V10.9943H114.068C114.068 10.9943 114.367 11.0297 114.367 10.8388C114.367 10.662 113.923 10.6762 113.923 10.6762C113.923 10.6762 113.201 10.7398 113.201 10.0822C113.201 9.43179 113.857 9.46714 113.857 9.46714H114.862V9.93377H114.054C114.054 9.93377 113.777 9.87721 113.777 10.0752C113.777 10.2378 114.156 10.2166 114.156 10.2166C114.156 10.2166 114.957 10.16 114.957 10.761C114.957 11.4044 114.44 11.468 114.258 11.468C114.207 11.4609 114.185 11.4539 114.185 11.4539Z" fill="url(#paint10_radial_1_2221)"/>
<path d="M45.5589 3.08252H49.7703C50.3387 3.10373 50.7977 3.28049 50.958 3.87439L51.8761 8.1519C50.9726 5.91769 48.8013 4.05115 45.5225 3.28049L45.5589 3.08252Z" fill="white"/>
<path d="M50.6524 12.8464L48.2188 4.7722C49.9674 5.86102 51.4611 7.58616 51.9857 8.78103L52.2699 9.77794L54.9367 3.17432H57.8147L53.5304 12.8394L50.6524 12.8464Z" fill="white"/>
<path d="M59.9277 12.8537H57.21L58.9149 3.16748H61.6327L59.9277 12.8537Z" fill="white"/>
<path d="M64.6629 12.9949C63.4461 12.9878 62.273 12.7474 61.6318 12.4788L62.0107 10.3082L62.3605 10.4638C63.2567 10.8243 63.8323 10.9728 64.9179 10.9728C65.6975 10.9728 66.5355 10.6759 66.5428 10.0254C66.55 9.60118 66.193 9.29716 65.1365 8.82345C64.1019 8.35682 62.7393 7.58616 62.7539 6.19332C62.7685 4.31263 64.6629 2.99756 67.3515 2.99756C68.408 2.99756 69.2532 3.20967 69.7924 3.40056L69.4208 5.50043L69.1731 5.39438C68.6703 5.19641 68.0291 5.01258 67.1402 5.01965C66.0764 5.01965 65.581 5.45094 65.581 5.85394C65.5737 6.30644 66.1566 6.60339 67.1038 7.05589C68.6703 7.74877 69.399 8.59014 69.3844 9.68603C69.3771 11.7011 67.5191 12.9949 64.6629 12.9949Z" fill="white"/>
<path d="M76.7662 3.18115H74.6678C74.0193 3.18115 73.5311 3.35084 73.247 3.98009L69.2031 12.8533H72.0593C72.0593 12.8533 72.5256 11.6584 72.6277 11.3968C72.941 11.3968 75.717 11.3968 76.1105 11.3968C76.1906 11.7362 76.4384 12.8462 76.4384 12.8462H78.9594L76.7662 3.18115ZM73.4146 9.41712C73.6404 8.85857 74.5002 6.70921 74.5002 6.70921C74.4856 6.73749 74.7261 6.15066 74.8645 5.78301L75.0467 6.6173C75.0467 6.6173 75.564 8.92927 75.6733 9.41712H73.4146Z" fill="white"/>
<path d="M15.8257 7.18337C15.7965 6.90763 15.7528 6.63189 15.6945 6.37029H10.8346C10.8929 6.09455 10.9731 5.81881 11.0678 5.55721H15.4687C15.3739 5.28147 15.2574 5.00573 15.1335 4.74413H11.4102C11.5487 4.46132 11.7017 4.19265 11.8693 3.93105H14.6818C14.4996 3.64824 14.2956 3.3725 14.077 3.11797H12.474C12.7218 2.82809 12.9841 2.55235 13.2755 2.30489C11.8693 1.0676 9.99671 0.311078 7.94928 0.311078C3.55568 0.296938 0 3.74723 0 8.00352C0 12.2527 3.55568 15.703 7.9347 15.703C9.98942 15.703 11.8547 14.9465 13.2609 13.7092C13.5451 13.4547 13.8438 13.186 14.0916 12.8891H12.4667C12.2482 12.6345 12.0441 12.3588 11.862 12.076H14.6745C14.842 11.8144 14.9951 11.5387 15.1335 11.2629H11.4102C11.2791 11.0013 11.1698 10.7256 11.0678 10.4498H15.4687C15.5561 10.1812 15.6362 9.91249 15.7018 9.63675C15.7601 9.36808 15.8038 9.09941 15.833 8.82367C15.8621 8.555 15.8767 8.28633 15.8767 8.01059C15.8694 7.72778 15.8548 7.45204 15.8257 7.18337Z" fill="#E30613"/>
<path d="M13.2612 13.7094C14.6674 14.9467 16.54 15.7032 18.5874 15.7032C22.9737 15.7032 26.5221 12.2529 26.5221 8.00371C26.5221 3.75449 22.9665 0.304199 18.5874 0.304199C16.54 0.304199 14.6674 1.06072 13.2612 2.29801C12.9698 2.55254 12.7074 2.82121 12.4597 3.11109H14.0627C14.2813 3.37269 14.4853 3.64136 14.6674 3.92417H11.855C11.6874 4.18577 11.5344 4.46151 11.3959 4.73725H15.1192C15.2431 4.99885 15.3596 5.27459 15.4544 5.55033H11.0535C10.9588 5.819 10.8859 6.08767 10.8203 6.36341H15.6802C15.7385 6.62501 15.7822 6.90075 15.8114 7.17649C15.8405 7.44516 15.8551 7.71383 15.8551 7.98957C15.8551 8.26531 15.8405 8.54105 15.8114 8.80265C15.7822 9.07839 15.7385 9.35413 15.6802 9.61573C15.6219 9.89147 15.5418 10.1672 15.4471 10.4288H11.0462C11.1409 10.7116 11.2575 10.9803 11.3886 11.2419H15.1119C14.9735 11.5247 14.8205 11.7934 14.6529 12.055H11.8404C12.0225 12.3378 12.2266 12.6135 12.4451 12.8681H14.07L13.2612 13.7094Z" fill="#F39200"/>
<path d="M12.9257 7.87638C12.9257 7.62185 12.7726 7.46631 12.5176 7.46631C12.3209 7.46631 12.1606 7.57236 12.0586 7.77033C12.1315 7.72791 12.2116 7.7067 12.299 7.7067C12.5249 7.7067 12.6706 7.82689 12.6998 8.03193H12.9184C12.9257 7.9683 12.9257 7.91881 12.9257 7.87638Z" fill="#070706"/>
<path d="M11.9057 8.67529C11.8984 8.72478 11.8984 8.746 11.8984 8.77428C11.8984 8.82377 11.9057 8.87326 11.913 8.92275H13.4213C13.4431 8.83791 13.4577 8.75307 13.4723 8.67529H11.9057Z" fill="#070706"/>
<path d="M17.5744 6.85107C17.2392 6.85107 16.9624 7.01369 16.7656 7.28943C16.9332 7.16217 17.1226 7.09853 17.3412 7.09853C17.5817 7.09853 17.8003 7.16217 18.1063 7.31064L18.1646 6.98541C17.946 6.88643 17.7638 6.85107 17.5744 6.85107Z" fill="#070706"/>
<path d="M2.71822 8.50578L3.46871 6.34229H3.30112L2.71094 8.05329L2.71822 8.50578Z" fill="#070706"/>
<path d="M4.9912 7.81982C5.18064 7.76326 5.45752 7.72791 5.70525 7.72791C6.06956 7.72791 6.22257 7.79154 6.25172 7.96122C6.31001 7.96829 6.37558 7.97536 6.44116 7.97536C6.4703 7.87638 6.47759 7.82689 6.47759 7.77033C6.47759 7.55822 6.33187 7.48045 5.93112 7.48045C5.68339 7.48045 5.40651 7.5158 5.21707 7.56529L5.10049 7.60064L5.02763 7.62185L5.10049 7.11279C5.0422 7.12693 4.97663 7.14107 4.91834 7.16228L4.80176 7.87638L4.88191 7.85517L4.9912 7.81982Z" fill="#070706"/>
<path d="M6.33859 8.57664C6.24387 8.56957 6.20744 8.5625 6.14915 8.5625C5.7484 8.5625 5.50796 8.67562 5.44238 8.88773C5.55168 8.83117 5.70469 8.80289 5.89413 8.80289C5.95242 8.80289 5.98885 8.80289 6.07628 8.81703C6.069 9.00793 6.03985 9.17054 5.98885 9.29781C6.18558 9.18468 6.32402 8.92308 6.33859 8.57664Z" fill="#070706"/>
<path d="M8.78002 7.50195C8.50315 7.50195 8.35742 7.5868 8.35742 7.76355C8.35742 7.77062 8.35742 7.77062 8.35742 7.77062C8.41571 7.75648 8.48129 7.74941 8.56144 7.74941C8.72902 7.74941 8.95489 7.77062 9.18077 7.7989L9.22448 7.53023C9.06419 7.50902 8.90389 7.50195 8.78002 7.50195Z" fill="#070706"/>
<path d="M8.13118 8.70354C7.67944 8.49851 7.47542 8.22277 7.47542 7.81976C7.47542 7.60765 7.51914 7.40969 7.61386 7.24707C7.43171 7.38848 7.32241 7.57937 7.27869 7.79855C7.27869 7.86218 7.26412 7.93289 7.25684 8.03187C7.25684 8.04601 7.25684 8.05308 7.25684 8.06722C7.25684 8.47023 7.45356 8.74597 7.9126 8.951C8.26234 9.10655 8.31334 9.15604 8.31334 9.29745C8.31334 9.30452 8.31334 9.30452 8.31334 9.31159C8.45906 9.26916 8.53193 9.18432 8.53193 9.05706C8.53193 8.90858 8.48092 8.86616 8.13118 8.70354Z" fill="#070706"/>
<path d="M10.6086 7.59375L10.5576 7.86949H10.8709L10.9146 7.59375H10.6086Z" fill="#070706"/>
<path d="M18.5215 7.81984C18.7109 7.77035 18.9878 7.735 19.2355 7.735C19.5998 7.735 19.7528 7.79863 19.782 7.96831C19.8403 7.97538 19.9059 7.97538 19.9714 7.98953C20.0006 7.88347 20.0079 7.84105 20.0079 7.78449C20.0079 7.57238 19.8549 7.49461 19.4541 7.49461C19.2064 7.49461 18.9295 7.52996 18.7401 7.58652L18.6235 7.62187L18.5433 7.64308L18.6308 7.12695C18.5725 7.14109 18.5069 7.1623 18.4486 7.17644L18.332 7.89054L18.4122 7.86933L18.5215 7.81984Z" fill="#070706"/>
<path d="M19.8698 8.57664C19.7824 8.56957 19.7387 8.5625 19.6804 8.5625C19.2797 8.5625 19.0465 8.67562 18.9736 8.88773C19.0829 8.83824 19.2359 8.80996 19.4254 8.80996C19.4837 8.80996 19.5201 8.80996 19.6075 8.8241C19.6002 9.015 19.5784 9.17761 19.5201 9.30488C19.7168 9.18468 19.8553 8.92308 19.8698 8.57664Z" fill="#070706"/>
<path d="M24.6563 7.2046L24.802 6.33496H24.598L24.4814 7.02078C24.547 7.07027 24.6053 7.1339 24.6563 7.2046Z" fill="#070706"/>
<path d="M24.4525 8.17345C24.4525 7.77045 24.2922 7.55127 23.9935 7.55127C23.7895 7.55127 23.6146 7.67146 23.498 7.88357C23.5782 7.82701 23.6729 7.79873 23.7749 7.79873C24.0664 7.79873 24.2267 8.01791 24.2267 8.42091C24.2267 8.71786 24.1611 8.96532 24.0591 9.15622C24.3068 8.9936 24.4525 8.63302 24.4525 8.17345Z" fill="#070706"/>
<path d="M12.5246 10.0467C11.5628 10.0467 11.0674 9.55881 11.0674 8.63261C11.0674 8.16597 11.184 7.74883 11.388 7.43066C11.0674 7.77004 10.8779 8.28617 10.8779 8.88007C10.8779 9.81334 11.4317 10.3012 12.3352 10.3012C12.6339 10.3012 12.9181 10.2588 13.2168 10.1739L13.2532 9.96889C13.0055 10.0184 12.7723 10.0467 12.5246 10.0467Z" fill="#070706"/>
<path d="M17.1083 10.0608C16.183 10.0608 15.6074 9.4174 15.6074 8.37807C15.6074 7.48722 15.9353 6.77312 16.4599 6.37012C16.234 6.49031 16.0518 6.62465 15.8624 6.82968L15.7604 6.8014L15.7021 6.91453C15.5855 7.14078 15.5054 7.39531 15.4398 7.72054C15.4107 7.71347 15.4034 7.72054 15.3815 7.72054C15.1775 7.72054 15.0536 7.80538 14.9443 8.13061C15.0318 8.04577 15.1338 8.02456 15.2504 8.02456C15.2722 8.02456 15.3524 8.02456 15.3961 8.02456C15.3669 8.21546 15.3524 8.41342 15.3524 8.61139C15.3597 9.64365 15.9571 10.3083 16.8825 10.3083C17.1229 10.3083 17.3269 10.28 17.6402 10.1951L17.6767 9.99716C17.4508 10.0396 17.2905 10.0608 17.1083 10.0608Z" fill="#070706"/>
<path d="M13.7127 9.99033L14.1936 7.07031H14.0187L13.4941 10.2378H14.3539C14.3685 10.1529 14.3831 10.0681 14.3903 9.99033H13.7127Z" fill="#070706"/>
<path d="M20.7801 9.99008L21.261 7.06299H21.0861L20.5615 10.2305H21.4213C21.4359 10.1456 21.4504 10.0608 21.465 9.98301L20.7801 9.99008Z" fill="#070706"/>
<path d="M24.2261 9.99027L24.2698 9.67918C24.0366 9.91957 23.7889 10.0327 23.4756 10.0327C22.849 10.0327 22.4409 9.5095 22.4409 8.71763C22.4409 8.11665 22.6522 7.56517 22.9728 7.20459C22.7834 7.32478 22.6304 7.50154 22.5065 7.72072C22.4774 7.71365 22.4701 7.72072 22.4482 7.71365C22.2223 7.71365 22.0912 7.81263 21.9746 8.23685C22.0912 8.07423 22.2223 8.02474 22.3681 8.01767C22.2661 8.29341 22.2151 8.61864 22.2151 8.95801C22.2151 9.74988 22.6449 10.2731 23.2716 10.2731C23.5849 10.2731 23.8326 10.167 24.0658 9.91957L24.022 10.2307H24.8381L24.8745 9.9832H24.2261" fill="#070706"/>
<path d="M0.779432 9.99005L1.40605 6.3418H1.20203L0.524414 10.2375H1.36233L1.40605 9.99005H0.779432Z" fill="#070706"/>
<path d="M3.35921 9.99047L3.85468 6.99268L3.5268 7.87646L3.14062 10.2379H4.0004L4.04412 9.99047H3.35921Z" fill="#070706"/>
<path d="M2.17096 9.99025L2.0981 7.01367L1.90137 8.14491L1.95237 10.2377H2.53527L2.6227 9.99025H2.17096Z" fill="#070706"/>
<path d="M6.25184 9.99036L6.26641 9.65806C6.04783 9.91966 5.75638 10.0399 5.36292 10.0399C4.8966 10.0399 4.58329 9.68634 4.58329 9.17728C4.58329 8.91568 4.64887 8.68943 4.77274 8.49854C4.57601 8.64701 4.45943 8.83791 4.40114 9.0783L4.36471 9.31161C4.36471 9.34697 4.35742 9.38939 4.35742 9.42474C4.35742 9.9338 4.6853 10.2873 5.15162 10.2873C5.54508 10.2873 5.83653 10.16 6.01868 9.90552L6.00411 10.2378H6.74731L6.75459 10.153L6.77645 9.99036H6.25184Z" fill="#070706"/>
<path d="M8.04395 10.0397C7.93466 10.0397 7.77436 10.0256 7.57035 10.0114C7.47563 10.0044 7.39548 9.9973 7.34448 9.98316L7.19147 9.94781L7.15503 9.94074L7.22061 9.50945C7.16232 9.49531 7.09674 9.4741 7.02388 9.45996L6.92188 10.1953L6.97288 10.2023L7.13318 10.2377C7.18418 10.2448 7.25704 10.2589 7.35905 10.266C7.56306 10.2801 7.71607 10.2943 7.83265 10.2943C8.45198 10.2943 8.83815 10.1387 9.0276 9.81347C8.80172 9.96195 8.48113 10.0397 8.04395 10.0397Z" fill="#070706"/>
<path d="M10.157 10.054C9.71985 10.054 9.47941 9.80658 9.47941 9.35408C9.47941 9.26924 9.48669 9.17025 9.50855 9.07127L9.55955 8.76018L9.60327 8.51272L9.93115 6.59668H9.75628L9.38468 8.76018L9.37011 8.86623C9.3774 8.90158 9.3774 8.94401 9.3774 8.98643C9.3774 9.19147 9.34097 9.36115 9.27539 9.50963C9.27539 9.54498 9.27539 9.57326 9.27539 9.60861C9.27539 10.0611 9.51584 10.3015 9.95301 10.3086C10.1497 10.3086 10.3319 10.2732 10.5723 10.2025L10.6015 10.0045C10.4412 10.0399 10.3027 10.054 10.157 10.054Z" fill="#070706"/>
<path d="M19.7817 9.99013L19.7962 9.66489C19.5777 9.92649 19.2862 10.0467 18.8927 10.0467C18.4264 10.0467 18.1058 9.69318 18.1058 9.18412C18.1058 8.92252 18.1714 8.6892 18.2953 8.50537C18.0913 8.65385 17.9528 8.85888 17.8945 9.11341C17.931 9.09927 17.9674 9.07806 18.0111 9.06392L17.9018 9.71439C18.0038 10.0679 18.3026 10.2941 18.6742 10.2941C19.0676 10.2941 19.3591 10.1669 19.5412 9.91235L19.5266 10.2447H20.2698L20.2771 10.1598L20.299 9.9972L19.7817 9.99013Z" fill="#070706"/>
<path d="M10.7764 9.94788C10.5433 10.0186 10.3611 10.0539 10.1571 10.0539C9.71994 10.0539 9.47949 9.80648 9.47949 9.35398C9.47949 9.26914 9.48678 9.17016 9.50864 9.07117L9.55964 8.76008L9.60336 8.51262L9.97496 6.34912H10.8274L10.7254 6.82283H11.1626L11.046 7.59349H10.6089L10.383 8.91563C10.3757 8.97219 10.3684 9.01461 10.3684 9.04289C10.3684 9.20551 10.4558 9.27621 10.6599 9.27621C10.7546 9.27621 10.8347 9.26914 10.893 9.24793L10.7764 9.94788Z" fill="white"/>
<path d="M7.47587 7.82687C7.47587 8.22987 7.67988 8.49854 8.13163 8.71065C8.48137 8.87327 8.53237 8.91569 8.53237 9.05709C8.53237 9.25506 8.37936 9.34697 8.03691 9.34697C7.78189 9.34697 7.54144 9.30455 7.27185 9.21971L7.15527 9.94795L7.1917 9.95502L7.34472 9.99037C7.39572 9.99744 7.46858 10.0116 7.57059 10.0186C7.7746 10.0399 7.9349 10.0469 8.04419 10.0469C8.94769 10.0469 9.37029 9.70756 9.363 8.98639C9.363 8.54803 9.18813 8.2935 8.75824 8.10261C8.40122 7.93999 8.3575 7.90464 8.3575 7.75616C8.3575 7.58648 8.50323 7.50164 8.7801 7.49457C8.94769 7.49457 9.17356 7.51578 9.39943 7.54406L9.5233 6.80875C9.29742 6.7734 8.96226 6.75219 8.76553 6.74512C7.80375 6.75219 7.47587 7.24004 7.47587 7.82687Z" fill="white"/>
<path d="M18.4855 6.21504L18.347 7.06347C18.041 6.91499 17.8224 6.85136 17.582 6.85136C16.9408 6.85136 16.4891 7.45233 16.4891 8.30783C16.4891 8.90174 16.7951 9.25525 17.2905 9.25525C17.5018 9.25525 17.735 9.19162 18.0192 9.05728L17.8662 9.94107C17.5456 10.0259 17.3415 10.0542 17.1084 10.0542C16.183 10.0542 15.6074 9.4108 15.6074 8.37147C15.6074 6.97863 16.4016 6.00293 17.5456 6.00293C17.6913 6.00293 17.8224 6.01707 17.9317 6.04535L18.2888 6.13019C18.3835 6.17969 18.4053 6.18676 18.4855 6.21504Z" fill="white"/>
<path d="M25.0431 9.99044H24.2343L24.2781 9.67935C24.0449 9.91974 23.7972 10.0329 23.4839 10.0329C22.8572 10.0329 22.4492 9.50966 22.4492 8.71779C22.4492 7.66432 23.0904 6.77347 23.8482 6.77347C24.1833 6.77347 24.4384 6.90781 24.6715 7.20476L24.861 6.09473H25.7062L25.0431 9.99044ZM23.7753 9.24806C24.1761 9.24806 24.4529 8.80971 24.4602 8.18045C24.4602 7.77745 24.2999 7.55827 24.0012 7.55827C23.615 7.55827 23.3381 7.99663 23.3309 8.61881C23.3309 9.03596 23.4839 9.24099 23.7753 9.24806Z" fill="white"/>
<path d="M13.3994 9.91966C13.108 10.0045 12.8165 10.0469 12.5178 10.0469C11.556 10.0469 11.0605 9.55908 11.0605 8.63288C11.0605 7.54406 11.6944 6.74512 12.5615 6.74512C13.2683 6.74512 13.72 7.19054 13.72 7.89757C13.72 8.13089 13.6909 8.35714 13.618 8.68237H11.913C11.9057 8.73186 11.9057 8.75307 11.9057 8.78135C11.9057 9.14901 12.1608 9.33283 12.6562 9.33283C12.9623 9.33283 13.2391 9.2692 13.5452 9.13487L13.3994 9.91966ZM12.9185 8.03897C12.9258 7.97534 12.9258 7.91878 12.9258 7.87636C12.9258 7.62183 12.7728 7.46628 12.5178 7.46628C12.2482 7.46628 12.0515 7.67132 11.9713 8.0319L12.9185 8.03897Z" fill="white"/>
<path d="M15.7238 6.79467C15.702 6.7876 15.6728 6.7876 15.6364 6.7876C15.3522 6.7876 15.1919 6.929 14.9296 7.30373L15.0025 6.82295H14.2229L13.6982 9.99043H14.558C14.864 8.05317 14.9442 7.72087 15.3595 7.72087C15.3886 7.72087 15.3886 7.72087 15.4178 7.72087C15.4979 7.33908 15.5999 7.05627 15.7457 6.80174L15.7238 6.79467Z" fill="white"/>
<path d="M22.799 6.79467C22.7699 6.7876 22.7407 6.7876 22.7116 6.7876C22.4274 6.7876 22.2671 6.929 22.0048 7.30373L22.0777 6.82295H21.298L20.7734 9.99043H21.6332C21.9392 8.05317 22.0194 7.72087 22.4347 7.72087C22.4638 7.72087 22.4566 7.72087 22.493 7.72794C22.5659 7.34615 22.6751 7.06334 22.8209 6.80881L22.799 6.79467Z" fill="white"/>
<path d="M4.2184 9.99044H3.35862L3.85408 6.99265L2.75386 9.99044H2.17097L2.0981 7.01386L1.58078 9.99044H0.779297L1.44963 6.09473H2.681L2.71743 8.50569L3.54806 6.09473H4.88144L4.2184 9.99044Z" fill="white"/>
<path d="M6.33944 8.57655C6.24472 8.56948 6.20829 8.56241 6.15 8.56241C5.66182 8.56241 5.41409 8.72502 5.41409 9.04319C5.41409 9.24115 5.53795 9.36842 5.72011 9.36842C6.06985 9.36842 6.31758 9.05026 6.33944 8.57655ZM6.95877 9.9906H6.24472L6.25929 9.6583C6.0407 9.9199 5.74925 10.0401 5.3558 10.0401C4.88948 10.0401 4.57617 9.68658 4.57617 9.17752C4.57617 8.40686 5.12993 7.96144 6.08442 7.95437C6.18643 7.95437 6.31029 7.96144 6.43416 7.97558C6.4633 7.87659 6.47059 7.8271 6.47059 7.77054C6.47059 7.55843 6.32487 7.48066 5.92412 7.48066C5.67639 7.48066 5.39952 7.51601 5.21007 7.5655L5.09349 7.60085L5.02063 7.62206L5.13721 6.90797C5.5671 6.78777 5.85126 6.73828 6.16457 6.73828C6.90048 6.75242 7.28665 7.07058 7.28665 7.67863C7.28665 7.83417 7.27208 7.95437 7.21379 8.30788L7.03163 9.43205L7.00249 9.63709L6.98063 9.7997L6.96605 9.91283L6.95877 9.9906Z" fill="white"/>
<path d="M19.2505 9.36844C19.061 9.36844 18.9444 9.24117 18.9444 9.04321C18.9444 8.72504 19.1922 8.56243 19.6731 8.56243C19.7386 8.56243 19.7751 8.5695 19.8625 8.57657C19.8552 9.05028 19.6002 9.36844 19.2505 9.36844ZM20.5037 9.90578L20.5183 9.79265L20.5401 9.63004L20.5693 9.43207L20.7514 8.3079C20.8097 7.95439 20.8243 7.83419 20.8243 7.67865C20.8243 7.0706 20.4308 6.75244 19.6949 6.75244C19.3816 6.75244 19.0974 6.79486 18.6676 6.92213L18.551 7.63622L18.6311 7.61501L18.7477 7.57966C18.9372 7.5231 19.214 7.48775 19.4618 7.48775C19.8625 7.48775 20.0155 7.56552 20.0155 7.77763C20.0155 7.83419 20.0082 7.87661 19.9791 7.98267C19.8479 7.96853 19.7241 7.96146 19.6293 7.96146C18.6748 7.96146 18.1211 8.41395 18.1211 9.18461C18.1211 9.69367 18.4417 10.0472 18.908 10.0472C19.3015 10.0472 19.5929 9.92699 19.8115 9.66539L19.7969 9.99062H20.511L20.5037 9.90578Z" fill="white"/>
<defs>
<radialGradient id="paint0_radial_1_2221" cx="0" cy="0" r="1" gradientUnits="userSpaceOnUse" gradientTransform="translate(100.304 2.24785) scale(20.3082 19.7062)">
<stop stop-color="#00B3E8"/>
<stop offset="0.427" stop-color="#0099CD"/>
<stop offset="0.5077" stop-color="#008FBF"/>
<stop offset="0.8347" stop-color="#006B90"/>
<stop offset="1" stop-color="#005F80"/>
</radialGradient>
<radialGradient id="paint1_radial_1_2221" cx="0" cy="0" r="1" gradientUnits="userSpaceOnUse" gradientTransform="translate(100.31 2.24861) scale(20.3083 19.7063)">
<stop stop-color="#00B3E8"/>
<stop offset="0.427" stop-color="#0099CD"/>
<stop offset="0.5077" stop-color="#008FBF"/>
<stop offset="0.8347" stop-color="#006B90"/>
<stop offset="1" stop-color="#005F80"/>
</radialGradient>
<radialGradient id="paint2_radial_1_2221" cx="0" cy="0" r="1" gradientUnits="userSpaceOnUse" gradientTransform="translate(100.311 2.24812) scale(20.3082 19.7062)">
<stop stop-color="#00B3E8"/>
<stop offset="0.427" stop-color="#0099CD"/>
<stop offset="0.5077" stop-color="#008FBF"/>
<stop offset="0.8347" stop-color="#006B90"/>
<stop offset="1" stop-color="#005F80"/>
</radialGradient>
<radialGradient id="paint3_radial_1_2221" cx="0" cy="0" r="1" gradientUnits="userSpaceOnUse" gradientTransform="translate(100.311 2.24826) scale(20.3082 19.7062)">
<stop stop-color="#00B3E8"/>
<stop offset="0.427" stop-color="#0099CD"/>
<stop offset="0.5077" stop-color="#008FBF"/>
<stop offset="0.8347" stop-color="#006B90"/>
<stop offset="1" stop-color="#005F80"/>
</radialGradient>
<radialGradient id="paint4_radial_1_2221" cx="0" cy="0" r="1" gradientUnits="userSpaceOnUse" gradientTransform="translate(100.311 2.24826) scale(20.3082 19.7062)">
<stop stop-color="#00B3E8"/>
<stop offset="0.427" stop-color="#0099CD"/>
<stop offset="0.5077" stop-color="#008FBF"/>
<stop offset="0.8347" stop-color="#006B90"/>
<stop offset="1" stop-color="#005F80"/>
</radialGradient>
<radialGradient id="paint5_radial_1_2221" cx="0" cy="0" r="1" gradientUnits="userSpaceOnUse" gradientTransform="translate(100.311 2.24847) scale(20.3084 19.7064)">
<stop stop-color="#00B3E8"/>
<stop offset="0.427" stop-color="#0099CD"/>
<stop offset="0.5077" stop-color="#008FBF"/>
<stop offset="0.8347" stop-color="#006B90"/>
<stop offset="1" stop-color="#005F80"/>
</radialGradient>
<radialGradient id="paint6_radial_1_2221" cx="0" cy="0" r="1" gradientUnits="userSpaceOnUse" gradientTransform="translate(100.311 2.24866) scale(20.3079 19.7059)">
<stop stop-color="#00B3E8"/>
<stop offset="0.427" stop-color="#0099CD"/>
<stop offset="0.5077" stop-color="#008FBF"/>
<stop offset="0.8347" stop-color="#006B90"/>
<stop offset="1" stop-color="#005F80"/>
</radialGradient>
<radialGradient id="paint7_radial_1_2221" cx="0" cy="0" r="1" gradientUnits="userSpaceOnUse" gradientTransform="translate(100.311 2.24838) scale(20.3086 19.7066)">
<stop stop-color="#00B3E8"/>
<stop offset="0.427" stop-color="#0099CD"/>
<stop offset="0.5077" stop-color="#008FBF"/>
<stop offset="0.8347" stop-color="#006B90"/>
<stop offset="1" stop-color="#005F80"/>
</radialGradient>
<radialGradient id="paint8_radial_1_2221" cx="0" cy="0" r="1" gradientUnits="userSpaceOnUse" gradientTransform="translate(100.311 2.2489) scale(20.3084 19.7064)">
<stop stop-color="#00B3E8"/>
<stop offset="0.427" stop-color="#0099CD"/>
<stop offset="0.5077" stop-color="#008FBF"/>
<stop offset="0.8347" stop-color="#006B90"/>
<stop offset="1" stop-color="#005F80"/>
</radialGradient>
<radialGradient id="paint9_radial_1_2221" cx="0" cy="0" r="1" gradientUnits="userSpaceOnUse" gradientTransform="translate(100.31 2.24837) scale(20.3089 19.7069)">
<stop stop-color="#00B3E8"/>
<stop offset="0.427" stop-color="#0099CD"/>
<stop offset="0.5077" stop-color="#008FBF"/>
<stop offset="0.8347" stop-color="#006B90"/>
<stop offset="1" stop-color="#005F80"/>
</radialGradient>
<radialGradient id="paint10_radial_1_2221" cx="0" cy="0" r="1" gradientUnits="userSpaceOnUse" gradientTransform="translate(100.31 2.2489) scale(20.3078 19.7059)">
<stop stop-color="#00B3E8"/>
<stop offset="0.427" stop-color="#0099CD"/>
<stop offset="0.5077" stop-color="#008FBF"/>
<stop offset="0.8347" stop-color="#006B90"/>
<stop offset="1" stop-color="#005F80"/>
</radialGradient>
</defs>
</svg>
