<svg width="102" height="17" viewBox="0 0 102 17" fill="none" xmlns="http://www.w3.org/2000/svg">
<path d="M17.0564 8.3452C17.0573 8.91586 16.837 9.48839 16.3982 9.92198L10.5716 15.692C10.1309 16.1275 9.55463 16.3447 8.97837 16.3447C8.40117 16.3447 7.82397 16.1275 7.38519 15.692L1.55951 9.92384C1.11884 9.48746 0.900391 8.91586 0.900391 8.34427C0.900391 7.7736 1.11884 7.20201 1.55951 6.76655L7.38519 0.995592C7.82491 0.561068 8.40305 0.342874 8.97837 0.344738C9.55463 0.344738 10.1309 0.561068 10.5716 0.997457L16.3972 6.76562C16.836 7.20201 17.0564 7.77454 17.0564 8.3452Z" fill="#FF4300"/>
<path d="M45.0564 8.3452C45.0573 8.91586 44.837 9.48839 44.3982 9.92198L38.5716 15.692C38.1309 16.1275 37.5546 16.3447 36.9784 16.3447C36.4012 16.3447 35.824 16.1275 35.3852 15.692L29.5595 9.92384C29.1188 9.48746 28.9004 8.91586 28.9004 8.34427C28.9004 7.7736 29.1188 7.20201 29.5595 6.76655L35.3852 0.995592C35.8249 0.561068 36.4031 0.342874 36.9784 0.344738C37.5546 0.344738 38.1309 0.561068 38.5716 0.997457L44.3972 6.76562C44.836 7.20201 45.0564 7.77454 45.0564 8.3452Z" fill="#B0B0B0"/>
<path d="M73.0564 8.3452C73.0573 8.91586 72.837 9.48839 72.3982 9.92198L66.5716 15.692C66.1309 16.1275 65.5546 16.3447 64.9784 16.3447C64.4012 16.3447 63.824 16.1275 63.3852 15.692L57.5595 9.92384C57.1188 9.48746 56.9004 8.91586 56.9004 8.34427C56.9004 7.7736 57.1188 7.20201 57.5595 6.76655L63.3852 0.995592C63.8249 0.561068 64.4031 0.342874 64.9784 0.344738C65.5546 0.344738 66.1309 0.561068 66.5716 0.997457L72.3972 6.76562C72.836 7.20201 73.0564 7.77454 73.0564 8.3452Z" fill="#B0B0B0"/>
<path d="M101.056 8.3452C101.057 8.91586 100.837 9.48839 100.398 9.92198L94.5716 15.692C94.1309 16.1275 93.5546 16.3447 92.9784 16.3447C92.4012 16.3447 91.824 16.1275 91.3852 15.692L85.5595 9.92384C85.1188 9.48746 84.9004 8.91586 84.9004 8.34427C84.9004 7.7736 85.1188 7.20201 85.5595 6.76655L91.3852 0.995592C91.8249 0.561068 92.4031 0.342874 92.9784 0.344738C93.5546 0.344738 94.1309 0.561068 94.5716 0.997457L100.397 6.76562C100.836 7.20201 101.056 7.77454 101.056 8.3452Z" fill="#B0B0B0"/>
</svg>
