<svg width="24" height="24" viewBox="0 0 24 24" fill="none" xmlns="http://www.w3.org/2000/svg">
<path d="M7 18C5.17107 18.4117 4 19.0443 4 19.7537C4 20.9943 7.58172 22 12 22C16.4183 22 20 20.9943 20 19.7537C20 19.0443 18.8289 18.4117 17 18" stroke="#00A9A2" stroke-width="1.5" stroke-linecap="round"/>
<path d="M13.2574 17.4936C12.9201 17.8184 12.4693 18 12.0002 18C11.531 18 11.0802 17.8184 10.7429 17.4936C7.6543 14.5008 3.51519 11.1575 5.53371 6.30373C6.6251 3.67932 9.24494 2 12.0002 2C14.7554 2 17.3752 3.67933 18.4666 6.30373C20.4826 11.1514 16.3536 14.5111 13.2574 17.4936Z" stroke="#00A9A2" stroke-width="1.5"/>
</svg>
