<svg width="152" height="32" viewBox="0 0 152 32" fill="none" xmlns="http://www.w3.org/2000/svg">
<path d="M22.5035 21L1.52588e-05 21.9999L22.5035 22.9998C22.7712 23.0098 22.9951 22.5749 22.9999 22.0199C23.0048 21.47 22.7931 21.01 22.523 21C22.5181 21 22.5108 21 22.5035 21Z" fill="#FF4300"/>
<path d="M25.0067 15.0028L3.00002 16.5006L25.0067 17.9984C25.5326 18.0359 25.9776 17.3918 25.999 16.5643C26.0228 15.7367 25.6135 15.0365 25.0876 15.0028C25.0614 14.9991 25.0329 14.9991 25.0067 15.0028Z" fill="#FF4300"/>
<path d="M27.5745 9.00272L5.00002 10.9996L27.5745 12.9964C28.3166 13.0618 28.9537 12.2195 28.9976 11.1194C29.0415 10.0157 28.4752 9.06807 27.7356 9.00272C27.6843 8.99909 27.6258 8.99909 27.5745 9.00272Z" fill="#FF4300"/>
<path d="M44 16.0004C44 19.3166 42.5444 22.3161 40.191 24.484C37.8385 26.6556 34.5882 28 31.0004 28H22.5929C20.0579 28 18 26.1004 18 23.7604V8.24406C18 7.07182 18.5159 6.01136 19.3474 5.24453C20.1749 4.4762 21.3278 4 22.5929 4H30.9996C38.18 4 44 9.37158 44 16.0004Z" fill="#FF4300"/>
<g clip-path="url(#clip0_277_945)">
<path d="M41.1453 17.9995C41.1453 17.9995 41.4342 17.4187 41.2972 17.0709C41.1602 16.7231 40.8344 16.6837 40.8344 16.6837V16.6826L40.8326 16.6802C40.8076 16.6087 40.5152 15.7969 40.1608 15.642C40.1596 15.642 40.1578 15.6408 40.156 15.6402V15.6384C39.7736 15.4735 36.2398 14.5348 36.2398 14.5348C34.7532 13.1053 33.2993 12.1636 33.0908 12.0308C32.8824 11.898 32.4482 11.6532 31.7096 11.5823C30.8996 11.5049 25.9458 11.2714 22.1345 11.3488C22.1345 11.3488 21.5984 11.381 21.4638 11.9385C21.3769 12.297 21.1523 13.6038 21.054 14.8624C21.0409 15.0309 21.0302 15.1989 21.0225 15.3633C21.0153 15.4568 21.0129 15.5688 21.0117 15.6569C21.0117 15.6587 21.0117 15.6605 21.0117 15.6629C21.0064 15.8338 21.0058 15.9994 21.0106 16.1554C21.0141 16.3103 21.0606 16.8327 21.0606 16.8327H20.9194C20.9194 16.8327 20.5626 16.8404 20.699 17.523C20.7723 17.8887 20.8325 18.0328 20.8325 18.0328C20.8325 18.0328 21.0278 18.3813 21.437 18.3771L21.7449 18.3759C21.6532 18.037 21.8277 17.3592 21.8277 17.3592C22.0904 16.6266 22.4549 16.2531 22.9505 15.9613C23.4049 15.6938 24.7999 15.427 25.6963 16.2889C26.2847 16.8541 26.4837 17.66 26.5516 18.1478C26.5796 18.3509 26.5849 18.4992 26.5861 18.551L35.0903 18.691C35.0903 18.691 35.1791 17.5897 35.6061 16.953C35.8193 16.6593 36.1189 16.3847 36.5412 16.1846C37.9153 15.5324 38.994 16.3377 39.349 16.707C39.3728 16.7344 39.5425 16.9375 39.5437 16.9387C39.6599 17.0941 39.8606 17.436 39.9327 17.9983C39.9499 18.1329 39.9571 18.6487 39.9333 18.7678C39.9333 18.7678 40.8124 18.5784 41.1429 17.9989C41.1435 17.9989 41.1447 17.9989 41.1453 17.9989H41.1429H41.1447L41.1453 17.9995ZM34.8491 16.972L29.6458 16.8857L26.8708 16.8392C26.7868 16.838 26.7201 16.7719 26.7219 16.6909C26.7231 16.6105 26.7922 16.5462 26.8762 16.5479L29.6464 16.5938L34.8544 16.6802C34.9384 16.6814 35.0051 16.7481 35.0033 16.8285C35.0022 16.9089 34.9331 16.9732 34.8491 16.972ZM35.0039 15.2954C33.6519 15.1876 30.0627 14.8445 30.0627 14.8445L30.0508 12.3459C30.0258 12.0004 30.3742 12.0689 30.3742 12.0689L31.9109 12.1809C32.684 12.2583 33.1141 12.5651 33.3517 12.7449C33.7335 13.0344 35.2142 14.2995 35.4179 14.5288C35.6216 14.7581 36.0379 15.4133 35.0045 15.2966L35.0039 15.2954Z" fill="white"/>
<path d="M24.0652 19.9983C24.9862 19.9983 25.7329 19.2517 25.7329 18.3306C25.7329 17.4096 24.9862 16.6629 24.0652 16.6629C23.1441 16.6629 22.3975 17.4096 22.3975 18.3306C22.3975 19.2517 23.1441 19.9983 24.0652 19.9983Z" fill="white"/>
<path d="M37.5857 19.9983C38.5068 19.9983 39.2534 19.2517 39.2534 18.3306C39.2534 17.4096 38.5068 16.6629 37.5857 16.6629C36.6646 16.6629 35.918 17.4096 35.918 18.3306C35.918 19.2517 36.6646 19.9983 37.5857 19.9983Z" fill="white"/>
</g>
<path d="M53.608 13C53.416 13 53.26 12.944 53.14 12.832C53.028 12.712 52.972 12.564 52.972 12.388V5.212C52.972 5.036 53.032 4.892 53.152 4.78C53.272 4.66 53.416 4.6 53.584 4.6H57.64C57.816 4.6 57.96 4.656 58.072 4.768C58.192 4.88 58.252 5.02 58.252 5.188C58.252 5.34 58.192 5.472 58.072 5.584C57.96 5.696 57.816 5.752 57.64 5.752H54.136L54.22 5.632V8.308L54.148 8.164H57.1C57.276 8.164 57.42 8.22 57.532 8.332C57.652 8.444 57.712 8.584 57.712 8.752C57.712 8.904 57.652 9.036 57.532 9.148C57.42 9.26 57.276 9.316 57.1 9.316H54.124L54.22 9.22V12.388C54.22 12.564 54.16 12.712 54.04 12.832C53.92 12.944 53.776 13 53.608 13ZM64.5393 6.592C64.7153 6.592 64.8593 6.652 64.9713 6.772C65.0833 6.884 65.1393 7.028 65.1393 7.204V12.388C65.1393 12.564 65.0833 12.712 64.9713 12.832C64.8593 12.944 64.7153 13 64.5393 13C64.3713 13 64.2273 12.944 64.1073 12.832C63.9953 12.712 63.9393 12.564 63.9393 12.388V11.524L64.1913 11.56C64.1913 11.704 64.1313 11.864 64.0113 12.04C63.8993 12.216 63.7433 12.388 63.5433 12.556C63.3433 12.716 63.1073 12.852 62.8353 12.964C62.5633 13.068 62.2713 13.12 61.9593 13.12C61.4073 13.12 60.9113 12.98 60.4713 12.7C60.0313 12.412 59.6833 12.02 59.4273 11.524C59.1713 11.028 59.0433 10.464 59.0433 9.832C59.0433 9.184 59.1713 8.616 59.4273 8.128C59.6833 7.632 60.0273 7.244 60.4593 6.964C60.8993 6.684 61.3873 6.544 61.9233 6.544C62.2673 6.544 62.5833 6.6 62.8713 6.712C63.1673 6.824 63.4233 6.968 63.6393 7.144C63.8553 7.32 64.0193 7.508 64.1313 7.708C64.2513 7.9 64.3113 8.084 64.3113 8.26L63.9393 8.296V7.204C63.9393 7.036 63.9953 6.892 64.1073 6.772C64.2273 6.652 64.3713 6.592 64.5393 6.592ZM62.0913 12.016C62.4673 12.016 62.7993 11.92 63.0873 11.728C63.3753 11.536 63.5993 11.276 63.7593 10.948C63.9193 10.612 63.9993 10.24 63.9993 9.832C63.9993 9.416 63.9193 9.044 63.7593 8.716C63.5993 8.388 63.3753 8.128 63.0873 7.936C62.7993 7.744 62.4673 7.648 62.0913 7.648C61.7233 7.648 61.3953 7.744 61.1073 7.936C60.8273 8.128 60.6033 8.388 60.4353 8.716C60.2753 9.044 60.1953 9.416 60.1953 9.832C60.1953 10.24 60.2753 10.612 60.4353 10.948C60.6033 11.276 60.8273 11.536 61.1073 11.728C61.3953 11.92 61.7233 12.016 62.0913 12.016ZM66.4485 12.016C66.3765 11.904 66.3445 11.776 66.3525 11.632C66.3605 11.48 66.4445 11.352 66.6045 11.248C66.7165 11.176 66.8325 11.148 66.9525 11.164C67.0805 11.172 67.2005 11.232 67.3125 11.344C67.5365 11.592 67.7845 11.788 68.0565 11.932C68.3365 12.076 68.6725 12.148 69.0645 12.148C69.2245 12.14 69.3885 12.116 69.5565 12.076C69.7245 12.028 69.8685 11.948 69.9885 11.836C70.1085 11.716 70.1685 11.544 70.1685 11.32C70.1685 11.12 70.1045 10.96 69.9765 10.84C69.8485 10.72 69.6805 10.624 69.4725 10.552C69.2645 10.472 69.0405 10.4 68.8005 10.336C68.5445 10.264 68.2845 10.184 68.0205 10.096C67.7645 10.008 67.5325 9.896 67.3245 9.76C67.1165 9.616 66.9445 9.432 66.8085 9.208C66.6805 8.984 66.6165 8.708 66.6165 8.38C66.6165 8.004 66.7205 7.68 66.9285 7.408C67.1445 7.136 67.4205 6.924 67.7565 6.772C68.1005 6.62 68.4725 6.544 68.8725 6.544C69.1045 6.544 69.3485 6.576 69.6045 6.64C69.8605 6.696 70.1085 6.788 70.3485 6.916C70.5885 7.044 70.7965 7.212 70.9725 7.42C71.0525 7.524 71.0965 7.648 71.1045 7.792C71.1205 7.936 71.0565 8.064 70.9125 8.176C70.8165 8.256 70.7005 8.292 70.5645 8.284C70.4285 8.276 70.3165 8.232 70.2285 8.152C70.0765 7.96 69.8805 7.812 69.6405 7.708C69.4005 7.596 69.1285 7.54 68.8245 7.54C68.6725 7.54 68.5125 7.564 68.3445 7.612C68.1845 7.652 68.0485 7.728 67.9365 7.84C67.8245 7.952 67.7685 8.116 67.7685 8.332C67.7685 8.532 67.8325 8.692 67.9605 8.812C68.0965 8.932 68.2725 9.032 68.4885 9.112C68.7045 9.192 68.9405 9.264 69.1965 9.328C69.4445 9.392 69.6885 9.468 69.9285 9.556C70.1765 9.644 70.3965 9.76 70.5885 9.904C70.7885 10.04 70.9485 10.22 71.0685 10.444C71.1965 10.66 71.2605 10.936 71.2605 11.272C71.2605 11.664 71.1445 12 70.9125 12.28C70.6885 12.552 70.4005 12.76 70.0485 12.904C69.7045 13.048 69.3405 13.12 68.9565 13.12C68.5005 13.12 68.0445 13.04 67.5885 12.88C67.1405 12.712 66.7605 12.424 66.4485 12.016ZM72.4669 6.76H75.2869C75.4469 6.76 75.5789 6.816 75.6829 6.928C75.7949 7.032 75.8509 7.164 75.8509 7.324C75.8509 7.476 75.7949 7.604 75.6829 7.708C75.5789 7.812 75.4469 7.864 75.2869 7.864H72.4669C72.3069 7.864 72.1709 7.812 72.0589 7.708C71.9549 7.596 71.9029 7.464 71.9029 7.312C71.9029 7.152 71.9549 7.02 72.0589 6.916C72.1709 6.812 72.3069 6.76 72.4669 6.76ZM73.7269 5.2C73.9029 5.2 74.0469 5.26 74.1589 5.38C74.2709 5.492 74.3269 5.636 74.3269 5.812V11.38C74.3269 11.524 74.3509 11.64 74.3989 11.728C74.4469 11.816 74.5109 11.876 74.5909 11.908C74.6789 11.94 74.7669 11.956 74.8549 11.956C74.9429 11.956 75.0189 11.94 75.0829 11.908C75.1549 11.876 75.2389 11.86 75.3349 11.86C75.4309 11.86 75.5189 11.904 75.5989 11.992C75.6789 12.08 75.7189 12.2 75.7189 12.352C75.7189 12.544 75.6149 12.7 75.4069 12.82C75.1989 12.94 74.9749 13 74.7349 13C74.5989 13 74.4389 12.988 74.2549 12.964C74.0709 12.94 73.8909 12.88 73.7149 12.784C73.5469 12.688 73.4069 12.536 73.2949 12.328C73.1829 12.112 73.1269 11.812 73.1269 11.428V5.812C73.1269 5.636 73.1829 5.492 73.2949 5.38C73.4149 5.26 73.5589 5.2 73.7269 5.2ZM84.1917 4.6C84.7757 4.6 85.2917 4.712 85.7397 4.936C86.1877 5.152 86.5597 5.456 86.8557 5.848C87.1597 6.232 87.3877 6.68 87.5397 7.192C87.6917 7.696 87.7677 8.232 87.7677 8.8C87.7677 9.576 87.6317 10.284 87.3597 10.924C87.0877 11.556 86.6877 12.06 86.1597 12.436C85.6317 12.812 84.9757 13 84.1917 13H81.2637C81.0957 13 80.9517 12.944 80.8317 12.832C80.7117 12.712 80.6517 12.564 80.6517 12.388V5.212C80.6517 5.036 80.7117 4.892 80.8317 4.78C80.9517 4.66 81.0957 4.6 81.2637 4.6H84.1917ZM84.0717 11.848C84.6397 11.848 85.0997 11.708 85.4517 11.428C85.8037 11.148 86.0597 10.78 86.2197 10.324C86.3877 9.86 86.4717 9.352 86.4717 8.8C86.4717 8.392 86.4237 8.008 86.3277 7.648C86.2397 7.28 86.0957 6.956 85.8957 6.676C85.7037 6.388 85.4557 6.164 85.1517 6.004C84.8557 5.836 84.4957 5.752 84.0717 5.752H81.8037L81.9117 5.644V11.968L81.8397 11.848H84.0717ZM92.1433 13.12C91.4793 13.12 90.9033 12.984 90.4153 12.712C89.9273 12.432 89.5473 12.052 89.2753 11.572C89.0113 11.084 88.8793 10.528 88.8793 9.904C88.8793 9.2 89.0193 8.6 89.2993 8.104C89.5873 7.6 89.9593 7.216 90.4153 6.952C90.8713 6.68 91.3553 6.544 91.8673 6.544C92.2593 6.544 92.6313 6.624 92.9833 6.784C93.3353 6.936 93.6473 7.152 93.9193 7.432C94.1993 7.704 94.4193 8.028 94.5793 8.404C94.7393 8.772 94.8233 9.176 94.8313 9.616C94.8233 9.776 94.7593 9.908 94.6393 10.012C94.5193 10.116 94.3793 10.168 94.2193 10.168H89.5513L89.2633 9.148H93.7753L93.5473 9.364V9.064C93.5313 8.784 93.4393 8.54 93.2713 8.332C93.1033 8.116 92.8953 7.952 92.6473 7.84C92.3993 7.72 92.1393 7.66 91.8673 7.66C91.6273 7.66 91.3953 7.7 91.1713 7.78C90.9553 7.852 90.7593 7.972 90.5833 8.14C90.4153 8.308 90.2793 8.532 90.1753 8.812C90.0793 9.084 90.0313 9.424 90.0313 9.832C90.0313 10.272 90.1233 10.656 90.3073 10.984C90.4913 11.312 90.7393 11.568 91.0513 11.752C91.3633 11.928 91.7073 12.016 92.0833 12.016C92.3793 12.016 92.6233 11.988 92.8153 11.932C93.0073 11.868 93.1673 11.792 93.2953 11.704C93.4233 11.616 93.5353 11.532 93.6313 11.452C93.7513 11.38 93.8713 11.344 93.9913 11.344C94.1353 11.344 94.2553 11.396 94.3513 11.5C94.4473 11.596 94.4953 11.712 94.4953 11.848C94.4953 12.024 94.4073 12.184 94.2313 12.328C94.0153 12.536 93.7153 12.72 93.3313 12.88C92.9553 13.04 92.5593 13.12 92.1433 13.12ZM97.4837 12.388C97.4837 12.564 97.4237 12.712 97.3037 12.832C97.1917 12.944 97.0517 13 96.8837 13C96.7157 13 96.5717 12.944 96.4517 12.832C96.3397 12.712 96.2837 12.564 96.2837 12.388V4.732C96.2837 4.556 96.3437 4.412 96.4637 4.3C96.5837 4.18 96.7277 4.12 96.8957 4.12C97.0717 4.12 97.2117 4.18 97.3157 4.3C97.4277 4.412 97.4837 4.556 97.4837 4.732V12.388ZM100.398 12.388C100.398 12.564 100.342 12.712 100.23 12.832C100.118 12.944 99.9737 13 99.7977 13C99.6297 13 99.4857 12.944 99.3657 12.832C99.2537 12.712 99.1977 12.564 99.1977 12.388V7.252C99.1977 7.076 99.2537 6.932 99.3657 6.82C99.4857 6.7 99.6297 6.64 99.7977 6.64C99.9737 6.64 100.118 6.7 100.23 6.82C100.342 6.932 100.398 7.076 100.398 7.252V12.388ZM99.7857 5.848C99.5537 5.848 99.3857 5.808 99.2817 5.728C99.1777 5.64 99.1257 5.496 99.1257 5.296V5.104C99.1257 4.904 99.1817 4.764 99.2937 4.684C99.4057 4.604 99.5737 4.564 99.7977 4.564C100.038 4.564 100.21 4.608 100.314 4.696C100.418 4.776 100.47 4.912 100.47 5.104V5.296C100.47 5.504 100.414 5.648 100.302 5.728C100.198 5.808 100.026 5.848 99.7857 5.848ZM102.156 6.628C102.276 6.628 102.388 6.66 102.492 6.724C102.604 6.788 102.684 6.884 102.732 7.012L104.616 11.368L104.388 11.476L106.296 7.024C106.408 6.76 106.588 6.632 106.836 6.64C106.996 6.64 107.128 6.692 107.232 6.796C107.344 6.892 107.4 7.02 107.4 7.18C107.4 7.228 107.392 7.28 107.376 7.336C107.36 7.384 107.34 7.432 107.316 7.48L105.036 12.616C104.932 12.856 104.76 12.984 104.52 13C104.4 13.016 104.28 12.992 104.16 12.928C104.048 12.856 103.96 12.752 103.896 12.616L101.628 7.48C101.612 7.448 101.596 7.408 101.58 7.36C101.564 7.304 101.556 7.24 101.556 7.168C101.556 7.048 101.608 6.928 101.712 6.808C101.824 6.688 101.972 6.628 102.156 6.628ZM111.503 13.12C110.839 13.12 110.263 12.984 109.775 12.712C109.287 12.432 108.907 12.052 108.635 11.572C108.371 11.084 108.239 10.528 108.239 9.904C108.239 9.2 108.379 8.6 108.659 8.104C108.947 7.6 109.319 7.216 109.775 6.952C110.231 6.68 110.715 6.544 111.227 6.544C111.619 6.544 111.991 6.624 112.343 6.784C112.695 6.936 113.007 7.152 113.279 7.432C113.559 7.704 113.779 8.028 113.939 8.404C114.099 8.772 114.183 9.176 114.191 9.616C114.183 9.776 114.119 9.908 113.999 10.012C113.879 10.116 113.739 10.168 113.579 10.168H108.911L108.623 9.148H113.135L112.907 9.364V9.064C112.891 8.784 112.799 8.54 112.631 8.332C112.463 8.116 112.255 7.952 112.007 7.84C111.759 7.72 111.499 7.66 111.227 7.66C110.987 7.66 110.755 7.7 110.531 7.78C110.315 7.852 110.119 7.972 109.943 8.14C109.775 8.308 109.639 8.532 109.535 8.812C109.439 9.084 109.391 9.424 109.391 9.832C109.391 10.272 109.483 10.656 109.667 10.984C109.851 11.312 110.099 11.568 110.411 11.752C110.723 11.928 111.067 12.016 111.443 12.016C111.739 12.016 111.983 11.988 112.175 11.932C112.367 11.868 112.527 11.792 112.655 11.704C112.783 11.616 112.895 11.532 112.991 11.452C113.111 11.38 113.231 11.344 113.351 11.344C113.495 11.344 113.615 11.396 113.711 11.5C113.807 11.596 113.855 11.712 113.855 11.848C113.855 12.024 113.767 12.184 113.591 12.328C113.375 12.536 113.075 12.72 112.691 12.88C112.315 13.04 111.919 13.12 111.503 13.12ZM116.147 13C115.971 13 115.827 12.944 115.715 12.832C115.603 12.712 115.547 12.564 115.547 12.388V7.3C115.547 7.124 115.603 6.98 115.715 6.868C115.827 6.748 115.971 6.688 116.147 6.688C116.315 6.688 116.455 6.748 116.567 6.868C116.687 6.98 116.747 7.124 116.747 7.3V8.644L116.627 8.128C116.691 7.904 116.787 7.696 116.915 7.504C117.051 7.312 117.211 7.144 117.395 7C117.579 6.856 117.783 6.744 118.007 6.664C118.239 6.584 118.479 6.544 118.727 6.544C118.935 6.544 119.115 6.6 119.267 6.712C119.419 6.824 119.495 6.964 119.495 7.132C119.495 7.348 119.439 7.508 119.327 7.612C119.215 7.708 119.091 7.756 118.955 7.756C118.835 7.756 118.719 7.732 118.607 7.684C118.495 7.628 118.363 7.6 118.211 7.6C118.043 7.6 117.871 7.644 117.695 7.732C117.519 7.82 117.359 7.952 117.215 8.128C117.071 8.296 116.955 8.496 116.867 8.728C116.787 8.96 116.747 9.22 116.747 9.508V12.388C116.747 12.564 116.687 12.712 116.567 12.832C116.455 12.944 116.315 13 116.147 13ZM125.255 6.64C125.431 6.64 125.575 6.7 125.687 6.82C125.799 6.932 125.855 7.076 125.855 7.252V12.412C125.855 13.116 125.719 13.688 125.447 14.128C125.183 14.568 124.823 14.888 124.367 15.088C123.919 15.296 123.411 15.4 122.843 15.4C122.555 15.4 122.267 15.372 121.979 15.316C121.691 15.268 121.455 15.196 121.271 15.1C121.079 15.012 120.943 14.904 120.863 14.776C120.783 14.648 120.771 14.508 120.827 14.356C120.883 14.164 120.979 14.032 121.115 13.96C121.251 13.896 121.391 13.892 121.535 13.948C121.671 14.004 121.851 14.076 122.075 14.164C122.299 14.252 122.555 14.296 122.843 14.296C123.235 14.296 123.567 14.232 123.839 14.104C124.111 13.976 124.315 13.776 124.451 13.504C124.595 13.232 124.667 12.88 124.667 12.448V11.62L124.859 11.908C124.731 12.172 124.563 12.392 124.355 12.568C124.147 12.744 123.899 12.88 123.611 12.976C123.331 13.072 123.019 13.12 122.675 13.12C122.235 13.12 121.855 13.024 121.535 12.832C121.223 12.632 120.983 12.36 120.815 12.016C120.647 11.664 120.563 11.264 120.563 10.816V7.252C120.563 7.076 120.619 6.932 120.731 6.82C120.843 6.7 120.987 6.64 121.163 6.64C121.331 6.64 121.471 6.7 121.583 6.82C121.703 6.932 121.763 7.076 121.763 7.252V10.492C121.763 11.02 121.879 11.408 122.111 11.656C122.343 11.896 122.687 12.016 123.143 12.016C123.447 12.016 123.711 11.952 123.935 11.824C124.159 11.696 124.335 11.52 124.463 11.296C124.591 11.064 124.655 10.796 124.655 10.492V7.252C124.655 7.076 124.711 6.932 124.823 6.82C124.943 6.7 125.087 6.64 125.255 6.64ZM133.359 13.12C132.791 13.12 132.283 12.996 131.835 12.748C131.387 12.492 131.035 12.16 130.779 11.752C130.523 11.344 130.395 10.912 130.395 10.456C130.395 10.072 130.463 9.716 130.599 9.388C130.743 9.052 130.955 8.756 131.235 8.5C131.523 8.244 131.887 8.032 132.327 7.864L133.119 8.68C132.543 8.808 132.147 9.012 131.931 9.292C131.723 9.572 131.619 9.9 131.619 10.276C131.619 10.556 131.687 10.828 131.823 11.092C131.959 11.348 132.171 11.56 132.459 11.728C132.755 11.896 133.139 11.98 133.611 11.98C134.035 11.98 134.407 11.896 134.727 11.728C135.055 11.552 135.335 11.324 135.567 11.044C135.799 10.756 135.987 10.44 136.131 10.096C136.275 9.744 136.375 9.384 136.431 9.016C136.447 8.904 136.491 8.82 136.563 8.764C136.635 8.7 136.755 8.668 136.923 8.668C137.099 8.668 137.235 8.736 137.331 8.872C137.435 9.008 137.475 9.172 137.451 9.364C137.379 9.828 137.243 10.284 137.043 10.732C136.843 11.172 136.575 11.576 136.239 11.944C135.903 12.304 135.495 12.592 135.015 12.808C134.535 13.016 133.983 13.12 133.359 13.12ZM137.619 13C137.547 13 137.479 12.992 137.415 12.976C137.359 12.952 137.315 12.928 137.283 12.904C136.731 12.448 136.219 12.02 135.747 11.62C135.283 11.22 134.843 10.824 134.427 10.432C134.019 10.032 133.615 9.608 133.215 9.16C132.935 8.84 132.679 8.544 132.447 8.272C132.223 8 132.039 7.732 131.895 7.468C131.759 7.204 131.691 6.924 131.691 6.628C131.691 6.244 131.791 5.892 131.991 5.572C132.199 5.244 132.487 4.98 132.855 4.78C133.231 4.58 133.675 4.48 134.187 4.48C134.747 4.48 135.235 4.58 135.651 4.78C136.075 4.972 136.363 5.216 136.515 5.512C136.523 5.52 136.539 5.564 136.563 5.644C136.595 5.716 136.611 5.804 136.611 5.908C136.611 6.028 136.563 6.136 136.467 6.232C136.371 6.328 136.243 6.376 136.083 6.376C135.979 6.376 135.895 6.356 135.831 6.316C135.767 6.276 135.719 6.236 135.687 6.196C135.511 5.956 135.303 5.78 135.063 5.668C134.831 5.556 134.539 5.5 134.187 5.5C133.787 5.5 133.479 5.604 133.263 5.812C133.055 6.02 132.951 6.276 132.951 6.58C132.951 6.828 133.031 7.08 133.191 7.336C133.359 7.592 133.551 7.84 133.767 8.08C133.991 8.312 134.195 8.528 134.379 8.728C134.651 9.024 134.947 9.332 135.267 9.652C135.595 9.964 135.919 10.264 136.239 10.552C136.567 10.84 136.871 11.104 137.151 11.344C137.431 11.584 137.667 11.788 137.859 11.956C137.947 12.036 138.011 12.116 138.051 12.196C138.099 12.276 138.123 12.372 138.123 12.484C138.123 12.572 138.083 12.68 138.003 12.808C137.923 12.936 137.795 13 137.619 13ZM53.608 29C53.416 29 53.26 28.944 53.14 28.832C53.028 28.712 52.972 28.564 52.972 28.388V21.212C52.972 21.036 53.032 20.892 53.152 20.78C53.272 20.66 53.416 20.6 53.584 20.6H57.64C57.816 20.6 57.96 20.656 58.072 20.768C58.192 20.88 58.252 21.02 58.252 21.188C58.252 21.34 58.192 21.472 58.072 21.584C57.96 21.696 57.816 21.752 57.64 21.752H54.136L54.22 21.632V24.308L54.148 24.164H57.1C57.276 24.164 57.42 24.22 57.532 24.332C57.652 24.444 57.712 24.584 57.712 24.752C57.712 24.904 57.652 25.036 57.532 25.148C57.42 25.26 57.276 25.316 57.1 25.316H54.124L54.22 25.22V28.388C54.22 28.564 54.16 28.712 54.04 28.832C53.92 28.944 53.776 29 53.608 29ZM60.0963 29C59.9203 29 59.7763 28.944 59.6643 28.832C59.5523 28.712 59.4963 28.564 59.4963 28.388V23.3C59.4963 23.124 59.5523 22.98 59.6643 22.868C59.7763 22.748 59.9203 22.688 60.0963 22.688C60.2643 22.688 60.4043 22.748 60.5163 22.868C60.6363 22.98 60.6963 23.124 60.6963 23.3V24.644L60.5763 24.128C60.6403 23.904 60.7363 23.696 60.8643 23.504C61.0003 23.312 61.1603 23.144 61.3443 23C61.5283 22.856 61.7323 22.744 61.9563 22.664C62.1883 22.584 62.4283 22.544 62.6763 22.544C62.8843 22.544 63.0643 22.6 63.2163 22.712C63.3683 22.824 63.4443 22.964 63.4443 23.132C63.4443 23.348 63.3883 23.508 63.2763 23.612C63.1643 23.708 63.0403 23.756 62.9043 23.756C62.7843 23.756 62.6683 23.732 62.5563 23.684C62.4443 23.628 62.3123 23.6 62.1603 23.6C61.9923 23.6 61.8203 23.644 61.6443 23.732C61.4683 23.82 61.3083 23.952 61.1643 24.128C61.0203 24.296 60.9043 24.496 60.8163 24.728C60.7363 24.96 60.6963 25.22 60.6963 25.508V28.388C60.6963 28.564 60.6363 28.712 60.5163 28.832C60.4043 28.944 60.2643 29 60.0963 29ZM67.1823 29.12C66.5183 29.12 65.9423 28.984 65.4543 28.712C64.9663 28.432 64.5863 28.052 64.3143 27.572C64.0503 27.084 63.9183 26.528 63.9183 25.904C63.9183 25.2 64.0583 24.6 64.3383 24.104C64.6263 23.6 64.9983 23.216 65.4543 22.952C65.9103 22.68 66.3943 22.544 66.9063 22.544C67.2983 22.544 67.6703 22.624 68.0223 22.784C68.3743 22.936 68.6863 23.152 68.9583 23.432C69.2383 23.704 69.4583 24.028 69.6183 24.404C69.7783 24.772 69.8623 25.176 69.8703 25.616C69.8623 25.776 69.7983 25.908 69.6783 26.012C69.5583 26.116 69.4183 26.168 69.2583 26.168H64.5903L64.3023 25.148H68.8143L68.5863 25.364V25.064C68.5703 24.784 68.4783 24.54 68.3103 24.332C68.1423 24.116 67.9343 23.952 67.6863 23.84C67.4383 23.72 67.1783 23.66 66.9063 23.66C66.6663 23.66 66.4343 23.7 66.2103 23.78C65.9943 23.852 65.7983 23.972 65.6223 24.14C65.4543 24.308 65.3183 24.532 65.2143 24.812C65.1183 25.084 65.0703 25.424 65.0703 25.832C65.0703 26.272 65.1623 26.656 65.3463 26.984C65.5303 27.312 65.7783 27.568 66.0903 27.752C66.4023 27.928 66.7463 28.016 67.1223 28.016C67.4183 28.016 67.6623 27.988 67.8543 27.932C68.0463 27.868 68.2063 27.792 68.3343 27.704C68.4623 27.616 68.5743 27.532 68.6703 27.452C68.7903 27.38 68.9103 27.344 69.0303 27.344C69.1743 27.344 69.2943 27.396 69.3903 27.5C69.4863 27.596 69.5343 27.712 69.5343 27.848C69.5343 28.024 69.4463 28.184 69.2703 28.328C69.0543 28.536 68.7543 28.72 68.3703 28.88C67.9943 29.04 67.5983 29.12 67.1823 29.12ZM74.1667 29.12C73.5027 29.12 72.9267 28.984 72.4387 28.712C71.9507 28.432 71.5707 28.052 71.2987 27.572C71.0347 27.084 70.9027 26.528 70.9027 25.904C70.9027 25.2 71.0427 24.6 71.3227 24.104C71.6107 23.6 71.9827 23.216 72.4387 22.952C72.8947 22.68 73.3787 22.544 73.8907 22.544C74.2827 22.544 74.6547 22.624 75.0067 22.784C75.3587 22.936 75.6707 23.152 75.9427 23.432C76.2227 23.704 76.4427 24.028 76.6027 24.404C76.7627 24.772 76.8467 25.176 76.8547 25.616C76.8467 25.776 76.7827 25.908 76.6627 26.012C76.5427 26.116 76.4027 26.168 76.2427 26.168H71.5747L71.2867 25.148H75.7987L75.5707 25.364V25.064C75.5547 24.784 75.4627 24.54 75.2947 24.332C75.1267 24.116 74.9187 23.952 74.6707 23.84C74.4227 23.72 74.1627 23.66 73.8907 23.66C73.6507 23.66 73.4187 23.7 73.1947 23.78C72.9787 23.852 72.7827 23.972 72.6067 24.14C72.4387 24.308 72.3027 24.532 72.1987 24.812C72.1027 25.084 72.0547 25.424 72.0547 25.832C72.0547 26.272 72.1467 26.656 72.3307 26.984C72.5147 27.312 72.7627 27.568 73.0747 27.752C73.3867 27.928 73.7307 28.016 74.1067 28.016C74.4027 28.016 74.6467 27.988 74.8387 27.932C75.0307 27.868 75.1907 27.792 75.3187 27.704C75.4467 27.616 75.5587 27.532 75.6547 27.452C75.7747 27.38 75.8947 27.344 76.0147 27.344C76.1587 27.344 76.2787 27.396 76.3747 27.5C76.4707 27.596 76.5187 27.712 76.5187 27.848C76.5187 28.024 76.4307 28.184 76.2547 28.328C76.0387 28.536 75.7387 28.72 75.3547 28.88C74.9787 29.04 74.5827 29.12 74.1667 29.12ZM86.7229 20.12C86.8989 20.12 87.0429 20.176 87.1549 20.288C87.2669 20.4 87.3229 20.548 87.3229 20.732V28.388C87.3229 28.564 87.2669 28.712 87.1549 28.832C87.0429 28.944 86.8989 29 86.7229 29C86.5549 29 86.4109 28.944 86.2909 28.832C86.1789 28.712 86.1229 28.564 86.1229 28.388V27.524L86.3749 27.536C86.3749 27.68 86.3149 27.844 86.1949 28.028C86.0829 28.204 85.9269 28.376 85.7269 28.544C85.5269 28.712 85.2909 28.852 85.0189 28.964C84.7469 29.068 84.4549 29.12 84.1429 29.12C83.5909 29.12 83.0949 28.98 82.6549 28.7C82.2149 28.412 81.8669 28.024 81.6109 27.536C81.3549 27.04 81.2269 26.472 81.2269 25.832C81.2269 25.192 81.3549 24.628 81.6109 24.14C81.8669 23.644 82.2109 23.256 82.6429 22.976C83.0829 22.688 83.5709 22.544 84.1069 22.544C84.4429 22.544 84.7549 22.6 85.0429 22.712C85.3389 22.824 85.5949 22.968 85.8109 23.144C86.0269 23.32 86.1949 23.508 86.3149 23.708C86.4349 23.9 86.4949 24.084 86.4949 24.26L86.1229 24.296V20.732C86.1229 20.556 86.1789 20.412 86.2909 20.3C86.4109 20.18 86.5549 20.12 86.7229 20.12ZM84.2749 28.016C84.6589 28.016 84.9909 27.92 85.2709 27.728C85.5589 27.536 85.7829 27.276 85.9429 26.948C86.1029 26.62 86.1829 26.248 86.1829 25.832C86.1829 25.416 86.1029 25.044 85.9429 24.716C85.7829 24.388 85.5589 24.128 85.2709 23.936C84.9829 23.744 84.6509 23.648 84.2749 23.648C83.9069 23.648 83.5789 23.744 83.2909 23.936C83.0109 24.128 82.7869 24.388 82.6189 24.716C82.4589 25.044 82.3789 25.416 82.3789 25.832C82.3789 26.248 82.4589 26.62 82.6189 26.948C82.7869 27.276 83.0109 27.536 83.2909 27.728C83.5789 27.92 83.9069 28.016 84.2749 28.016ZM91.9441 29.12C91.2801 29.12 90.7041 28.984 90.2161 28.712C89.7281 28.432 89.3481 28.052 89.0761 27.572C88.8121 27.084 88.6801 26.528 88.6801 25.904C88.6801 25.2 88.8201 24.6 89.1001 24.104C89.3881 23.6 89.7601 23.216 90.2161 22.952C90.6721 22.68 91.1561 22.544 91.6681 22.544C92.0601 22.544 92.4321 22.624 92.7841 22.784C93.1361 22.936 93.4481 23.152 93.7201 23.432C94.0001 23.704 94.2201 24.028 94.3801 24.404C94.5401 24.772 94.6241 25.176 94.6321 25.616C94.6241 25.776 94.5601 25.908 94.4401 26.012C94.3201 26.116 94.1801 26.168 94.0201 26.168H89.3521L89.0641 25.148H93.5761L93.3481 25.364V25.064C93.3321 24.784 93.2401 24.54 93.0721 24.332C92.9041 24.116 92.6961 23.952 92.4481 23.84C92.2001 23.72 91.9401 23.66 91.6681 23.66C91.4281 23.66 91.1961 23.7 90.9721 23.78C90.7561 23.852 90.5601 23.972 90.3841 24.14C90.2161 24.308 90.0801 24.532 89.9761 24.812C89.8801 25.084 89.8321 25.424 89.8321 25.832C89.8321 26.272 89.9241 26.656 90.1081 26.984C90.2921 27.312 90.5401 27.568 90.8521 27.752C91.1641 27.928 91.5081 28.016 91.8841 28.016C92.1801 28.016 92.4241 27.988 92.6161 27.932C92.8081 27.868 92.9681 27.792 93.0961 27.704C93.2241 27.616 93.3361 27.532 93.4321 27.452C93.5521 27.38 93.6721 27.344 93.7921 27.344C93.9361 27.344 94.0561 27.396 94.1521 27.5C94.2481 27.596 94.2961 27.712 94.2961 27.848C94.2961 28.024 94.2081 28.184 94.0321 28.328C93.8161 28.536 93.5161 28.72 93.1321 28.88C92.7561 29.04 92.3601 29.12 91.9441 29.12ZM97.2844 28.388C97.2844 28.564 97.2244 28.712 97.1044 28.832C96.9924 28.944 96.8524 29 96.6844 29C96.5164 29 96.3724 28.944 96.2524 28.832C96.1404 28.712 96.0844 28.564 96.0844 28.388V20.732C96.0844 20.556 96.1444 20.412 96.2644 20.3C96.3844 20.18 96.5284 20.12 96.6964 20.12C96.8724 20.12 97.0124 20.18 97.1164 20.3C97.2284 20.412 97.2844 20.556 97.2844 20.732V28.388ZM100.198 28.388C100.198 28.564 100.142 28.712 100.03 28.832C99.9185 28.944 99.7745 29 99.5985 29C99.4305 29 99.2865 28.944 99.1665 28.832C99.0545 28.712 98.9985 28.564 98.9985 28.388V23.252C98.9985 23.076 99.0545 22.932 99.1665 22.82C99.2865 22.7 99.4305 22.64 99.5985 22.64C99.7745 22.64 99.9185 22.7 100.03 22.82C100.142 22.932 100.198 23.076 100.198 23.252V28.388ZM99.5865 21.848C99.3545 21.848 99.1865 21.808 99.0825 21.728C98.9785 21.64 98.9265 21.496 98.9265 21.296V21.104C98.9265 20.904 98.9825 20.764 99.0945 20.684C99.2065 20.604 99.3745 20.564 99.5985 20.564C99.8385 20.564 100.01 20.608 100.114 20.696C100.218 20.776 100.27 20.912 100.27 21.104V21.296C100.27 21.504 100.214 21.648 100.102 21.728C99.9985 21.808 99.8265 21.848 99.5865 21.848ZM101.957 22.628C102.077 22.628 102.189 22.66 102.293 22.724C102.405 22.788 102.485 22.884 102.533 23.012L104.417 27.368L104.189 27.476L106.097 23.024C106.209 22.76 106.389 22.632 106.637 22.64C106.797 22.64 106.929 22.692 107.033 22.796C107.145 22.892 107.201 23.02 107.201 23.18C107.201 23.228 107.193 23.28 107.177 23.336C107.161 23.384 107.141 23.432 107.117 23.48L104.837 28.616C104.733 28.856 104.561 28.984 104.321 29C104.201 29.016 104.081 28.992 103.961 28.928C103.849 28.856 103.761 28.752 103.697 28.616L101.429 23.48C101.413 23.448 101.397 23.408 101.381 23.36C101.365 23.304 101.357 23.24 101.357 23.168C101.357 23.048 101.409 22.928 101.513 22.808C101.625 22.688 101.773 22.628 101.957 22.628ZM111.303 29.12C110.639 29.12 110.063 28.984 109.575 28.712C109.087 28.432 108.707 28.052 108.435 27.572C108.171 27.084 108.039 26.528 108.039 25.904C108.039 25.2 108.179 24.6 108.459 24.104C108.747 23.6 109.119 23.216 109.575 22.952C110.031 22.68 110.515 22.544 111.027 22.544C111.419 22.544 111.791 22.624 112.143 22.784C112.495 22.936 112.807 23.152 113.079 23.432C113.359 23.704 113.579 24.028 113.739 24.404C113.899 24.772 113.983 25.176 113.991 25.616C113.983 25.776 113.919 25.908 113.799 26.012C113.679 26.116 113.539 26.168 113.379 26.168H108.711L108.423 25.148H112.935L112.707 25.364V25.064C112.691 24.784 112.599 24.54 112.431 24.332C112.263 24.116 112.055 23.952 111.807 23.84C111.559 23.72 111.299 23.66 111.027 23.66C110.787 23.66 110.555 23.7 110.331 23.78C110.115 23.852 109.919 23.972 109.743 24.14C109.575 24.308 109.439 24.532 109.335 24.812C109.239 25.084 109.191 25.424 109.191 25.832C109.191 26.272 109.283 26.656 109.467 26.984C109.651 27.312 109.899 27.568 110.211 27.752C110.523 27.928 110.867 28.016 111.243 28.016C111.539 28.016 111.783 27.988 111.975 27.932C112.167 27.868 112.327 27.792 112.455 27.704C112.583 27.616 112.695 27.532 112.791 27.452C112.911 27.38 113.031 27.344 113.151 27.344C113.295 27.344 113.415 27.396 113.511 27.5C113.607 27.596 113.655 27.712 113.655 27.848C113.655 28.024 113.567 28.184 113.391 28.328C113.175 28.536 112.875 28.72 112.491 28.88C112.115 29.04 111.719 29.12 111.303 29.12ZM115.948 29C115.772 29 115.628 28.944 115.516 28.832C115.404 28.712 115.348 28.564 115.348 28.388V23.3C115.348 23.124 115.404 22.98 115.516 22.868C115.628 22.748 115.772 22.688 115.948 22.688C116.116 22.688 116.256 22.748 116.368 22.868C116.488 22.98 116.548 23.124 116.548 23.3V24.644L116.428 24.128C116.492 23.904 116.588 23.696 116.716 23.504C116.852 23.312 117.012 23.144 117.196 23C117.38 22.856 117.584 22.744 117.808 22.664C118.04 22.584 118.28 22.544 118.528 22.544C118.736 22.544 118.916 22.6 119.068 22.712C119.22 22.824 119.296 22.964 119.296 23.132C119.296 23.348 119.24 23.508 119.128 23.612C119.016 23.708 118.892 23.756 118.756 23.756C118.636 23.756 118.52 23.732 118.408 23.684C118.296 23.628 118.164 23.6 118.012 23.6C117.844 23.6 117.672 23.644 117.496 23.732C117.32 23.82 117.16 23.952 117.016 24.128C116.872 24.296 116.756 24.496 116.668 24.728C116.588 24.96 116.548 25.22 116.548 25.508V28.388C116.548 28.564 116.488 28.712 116.368 28.832C116.256 28.944 116.116 29 115.948 29ZM125.055 22.64C125.231 22.64 125.375 22.7 125.487 22.82C125.599 22.932 125.655 23.076 125.655 23.252V28.412C125.655 29.116 125.519 29.688 125.247 30.128C124.983 30.568 124.623 30.888 124.167 31.088C123.719 31.296 123.211 31.4 122.643 31.4C122.355 31.4 122.067 31.372 121.779 31.316C121.491 31.268 121.255 31.196 121.071 31.1C120.879 31.012 120.743 30.904 120.663 30.776C120.583 30.648 120.571 30.508 120.627 30.356C120.683 30.164 120.779 30.032 120.915 29.96C121.051 29.896 121.191 29.892 121.335 29.948C121.471 30.004 121.651 30.076 121.875 30.164C122.099 30.252 122.355 30.296 122.643 30.296C123.035 30.296 123.367 30.232 123.639 30.104C123.911 29.976 124.115 29.776 124.251 29.504C124.395 29.232 124.467 28.88 124.467 28.448V27.62L124.659 27.908C124.531 28.172 124.363 28.392 124.155 28.568C123.947 28.744 123.699 28.88 123.411 28.976C123.131 29.072 122.819 29.12 122.475 29.12C122.035 29.12 121.655 29.024 121.335 28.832C121.023 28.632 120.783 28.36 120.615 28.016C120.447 27.664 120.363 27.264 120.363 26.816V23.252C120.363 23.076 120.419 22.932 120.531 22.82C120.643 22.7 120.787 22.64 120.963 22.64C121.131 22.64 121.271 22.7 121.383 22.82C121.503 22.932 121.563 23.076 121.563 23.252V26.492C121.563 27.02 121.679 27.408 121.911 27.656C122.143 27.896 122.487 28.016 122.943 28.016C123.247 28.016 123.511 27.952 123.735 27.824C123.959 27.696 124.135 27.52 124.263 27.296C124.391 27.064 124.455 26.796 124.455 26.492V23.252C124.455 23.076 124.511 22.932 124.623 22.82C124.743 22.7 124.887 22.64 125.055 22.64Z" fill="#070706"/>
<defs>
<clipPath id="clip0_277_945">
<rect width="20.6667" height="8.66501" fill="white" transform="translate(20.667 11.3333)"/>
</clipPath>
</defs>
</svg>
