<svg width="187" height="32" viewBox="0 0 187 32" fill="none" xmlns="http://www.w3.org/2000/svg">
<path d="M21.103 24.4096V16.6046C20.6372 16.7787 20.146 16.875 19.649 16.8897C19.5979 16.8897 19.5494 16.8919 19.5017 16.8919C18.6321 16.8942 17.779 16.6542 17.0382 16.1987C16.2976 16.6541 15.4447 16.8941 14.5752 16.8919C13.7093 16.893 12.8607 16.6498 12.1269 16.19C11.3829 16.6515 10.5242 16.8947 9.64872 16.8919C8.77687 16.893 7.92266 16.6463 7.18568 16.1805C6.44871 16.6463 5.5945 16.893 4.72265 16.8919C4.67543 16.8919 4.62777 16.8919 4.57665 16.8897H4.57405C4.06255 16.8745 3.55732 16.7729 3.07976 16.589V24.4096H1.69336V25.7961H22.4894V24.4096H21.103ZM10.705 21.6368H6.54577V18.3441C6.54577 18.2982 6.56403 18.2541 6.59653 18.2216C6.62903 18.1891 6.67311 18.1708 6.71907 18.1708H10.5317C10.5776 18.1708 10.6217 18.1891 10.6542 18.2216C10.6867 18.2541 10.705 18.2982 10.705 18.3441V21.6368ZM17.637 24.4096H14.171V18.3441C14.171 18.2982 14.1892 18.2541 14.2217 18.2216C14.2542 18.1891 14.2983 18.1708 14.3443 18.1708H17.4637C17.5097 18.1708 17.5537 18.1891 17.5862 18.2216C17.6187 18.2541 17.637 18.2982 17.637 18.3441V24.4096Z" fill="#FF4300"/>
<path d="M22.3408 12.3774L20.3184 7.77281C19.7166 6.38641 19.7166 6.38641 18.3302 6.38641H5.85257C4.46617 6.38641 4.46617 6.38641 3.86221 7.77281L1.8398 12.3774C1.44987 13.2183 1.96501 14.0818 1.96544 14.0822L1.9832 14.1108C2.0014 14.1394 2.03216 14.1867 2.05339 14.2135C2.05772 14.2192 2.06162 14.2252 2.06552 14.2308L2.29255 14.5077L2.5226 14.7304L2.5408 14.746C2.66871 14.8551 2.80551 14.9534 2.94979 15.0397V15.0419C3.4213 15.3275 3.95849 15.4867 4.50949 15.5042C4.54502 15.5042 4.58054 15.5042 4.6165 15.5042C5.4502 15.5057 6.25351 15.1913 6.86464 14.6242C6.95289 14.5425 7.03636 14.4557 7.11463 14.3643C7.19317 14.4556 7.27677 14.5423 7.36505 14.6242C7.97618 15.1913 8.7795 15.5057 9.61319 15.5042C10.6218 15.5042 11.5225 15.0709 12.11 14.3968C12.1109 14.396 12.1121 14.3955 12.1133 14.3955C12.1145 14.3955 12.1156 14.396 12.1165 14.3968L12.3617 14.6247C12.973 15.1918 13.7765 15.5062 14.6103 15.5046C15.6193 15.5046 16.5214 15.0714 17.1084 14.3951C17.6959 15.0714 18.5975 15.5046 19.607 15.5046H19.7149C20.252 15.4846 20.7747 15.3248 21.2312 15.041C21.2724 15.0163 21.3118 14.9903 21.3517 14.9643C21.6597 14.7566 21.9276 14.4951 22.1428 14.1923L22.2295 14.0623C22.2685 13.9739 22.7151 13.1828 22.3408 12.3774Z" fill="#FF4300"/>
<path d="M33.08 9.58C32.92 9.58 32.784 9.528 32.672 9.424C32.568 9.312 32.516 9.172 32.516 9.004C32.516 8.844 32.568 8.716 32.672 8.62C32.784 8.516 32.92 8.464 33.08 8.464H37.988C38.148 8.464 38.28 8.516 38.384 8.62C38.496 8.724 38.552 8.86 38.552 9.028C38.552 9.18 38.496 9.312 38.384 9.424C38.28 9.528 38.148 9.58 37.988 9.58H33.08ZM35.516 12.004C35.332 12.004 35.176 11.944 35.048 11.824C34.928 11.704 34.868 11.548 34.868 11.356V6.544C34.868 6.36 34.932 6.208 35.06 6.088C35.188 5.968 35.344 5.908 35.528 5.908C35.72 5.908 35.872 5.968 35.984 6.088C36.104 6.208 36.164 6.36 36.164 6.544V11.356C36.164 11.548 36.104 11.704 35.984 11.824C35.864 11.944 35.708 12.004 35.516 12.004ZM45.0868 13.084C44.7748 13.084 44.4508 13.036 44.1148 12.94C43.7868 12.844 43.5068 12.7 43.2748 12.508C43.1868 12.436 43.1188 12.344 43.0708 12.232C43.0228 12.12 42.9988 12.012 42.9988 11.908C42.9988 11.796 43.0468 11.688 43.1428 11.584C43.2468 11.472 43.3868 11.416 43.5628 11.416C43.6908 11.416 43.8388 11.48 44.0068 11.608C44.1668 11.712 44.3348 11.8 44.5108 11.872C44.6948 11.944 44.8828 11.98 45.0748 11.98C45.4908 11.98 45.8508 11.904 46.1548 11.752C46.4588 11.6 46.6908 11.388 46.8508 11.116C47.0188 10.836 47.1028 10.512 47.1028 10.144C47.1028 9.8 47.0268 9.508 46.8748 9.268C46.7228 9.02 46.5148 8.828 46.2508 8.692C45.9948 8.556 45.7068 8.488 45.3867 8.488C45.1228 8.488 44.8908 8.532 44.6908 8.62C44.4908 8.7 44.3108 8.784 44.1508 8.872C43.9908 8.952 43.8428 8.992 43.7068 8.992C43.4988 8.992 43.3428 8.948 43.2388 8.86C43.1348 8.764 43.0668 8.652 43.0348 8.524C43.0108 8.388 43.0068 8.264 43.0228 8.152L43.4428 5.14C43.4668 5.004 43.5308 4.892 43.6348 4.804C43.7468 4.708 43.8828 4.66 44.0428 4.66H47.5588C47.7188 4.66 47.8508 4.716 47.9548 4.828C48.0668 4.932 48.1228 5.064 48.1228 5.224C48.1228 5.384 48.0668 5.516 47.9548 5.62C47.8508 5.724 47.7188 5.776 47.5588 5.776H44.3428L44.4748 5.668L44.0908 8.248L43.9108 7.888C43.9828 7.808 44.1028 7.732 44.2708 7.66C44.4468 7.58 44.6428 7.516 44.8588 7.468C45.0828 7.412 45.3068 7.384 45.5308 7.384C46.0588 7.384 46.5308 7.504 46.9468 7.744C47.3708 7.976 47.7028 8.3 47.9428 8.716C48.1828 9.132 48.3028 9.604 48.3028 10.132C48.3028 10.724 48.1708 11.244 47.9068 11.692C47.6428 12.132 47.2708 12.476 46.7908 12.724C46.3108 12.964 45.7428 13.084 45.0868 13.084ZM52.6636 13.12C51.9916 13.12 51.4236 12.936 50.9596 12.568C50.4956 12.192 50.1436 11.68 49.9036 11.032C49.6716 10.376 49.5556 9.632 49.5556 8.8C49.5556 7.96 49.6716 7.216 49.9036 6.568C50.1436 5.912 50.4956 5.4 50.9596 5.032C51.4236 4.664 51.9916 4.48 52.6636 4.48C53.3356 4.48 53.8996 4.664 54.3556 5.032C54.8196 5.4 55.1716 5.912 55.4116 6.568C55.6516 7.216 55.7716 7.96 55.7716 8.8C55.7716 9.632 55.6516 10.376 55.4116 11.032C55.1716 11.68 54.8196 12.192 54.3556 12.568C53.8996 12.936 53.3356 13.12 52.6636 13.12ZM52.6636 11.908C53.0396 11.908 53.3596 11.788 53.6236 11.548C53.8956 11.308 54.1036 10.956 54.2476 10.492C54.3996 10.028 54.4756 9.464 54.4756 8.8C54.4756 8.128 54.3996 7.56 54.2476 7.096C54.1036 6.632 53.8956 6.28 53.6236 6.04C53.3596 5.8 53.0396 5.68 52.6636 5.68C52.2876 5.68 51.9636 5.8 51.6916 6.04C51.4196 6.28 51.2116 6.632 51.0676 7.096C50.9236 7.56 50.8516 8.128 50.8516 8.8C50.8516 9.464 50.9236 10.028 51.0676 10.492C51.2116 10.956 51.4196 11.308 51.6916 11.548C51.9636 11.788 52.2876 11.908 52.6636 11.908ZM59.9644 13.12C59.2924 13.12 58.7244 12.936 58.2604 12.568C57.7964 12.192 57.4444 11.68 57.2044 11.032C56.9724 10.376 56.8564 9.632 56.8564 8.8C56.8564 7.96 56.9724 7.216 57.2044 6.568C57.4444 5.912 57.7964 5.4 58.2604 5.032C58.7244 4.664 59.2924 4.48 59.9644 4.48C60.6364 4.48 61.2004 4.664 61.6564 5.032C62.1204 5.4 62.4724 5.912 62.7124 6.568C62.9524 7.216 63.0724 7.96 63.0724 8.8C63.0724 9.632 62.9524 10.376 62.7124 11.032C62.4724 11.68 62.1204 12.192 61.6564 12.568C61.2004 12.936 60.6364 13.12 59.9644 13.12ZM59.9644 11.908C60.3404 11.908 60.6604 11.788 60.9244 11.548C61.1964 11.308 61.4044 10.956 61.5484 10.492C61.7004 10.028 61.7764 9.464 61.7764 8.8C61.7764 8.128 61.7004 7.56 61.5484 7.096C61.4044 6.632 61.1964 6.28 60.9244 6.04C60.6604 5.8 60.3404 5.68 59.9644 5.68C59.5884 5.68 59.2644 5.8 58.9924 6.04C58.7204 6.28 58.5124 6.632 58.3684 7.096C58.2244 7.56 58.1524 8.128 58.1524 8.8C58.1524 9.464 58.2244 10.028 58.3684 10.492C58.5124 10.956 58.7204 11.308 58.9924 11.548C59.2644 11.788 59.5884 11.908 59.9644 11.908ZM73.845 9.844C73.845 10.484 73.705 11.052 73.425 11.548C73.145 12.036 72.765 12.42 72.285 12.7C71.805 12.98 71.265 13.12 70.665 13.12C70.065 13.12 69.525 12.98 69.045 12.7C68.565 12.42 68.181 12.036 67.893 11.548C67.613 11.052 67.473 10.484 67.473 9.844C67.473 9.196 67.613 8.628 67.893 8.14C68.181 7.644 68.565 7.256 69.045 6.976C69.525 6.688 70.065 6.544 70.665 6.544C71.265 6.544 71.805 6.688 72.285 6.976C72.765 7.256 73.145 7.644 73.425 8.14C73.705 8.628 73.845 9.196 73.845 9.844ZM72.645 9.844C72.645 9.404 72.557 9.024 72.381 8.704C72.205 8.376 71.965 8.12 71.661 7.936C71.365 7.744 71.033 7.648 70.665 7.648C70.297 7.648 69.961 7.744 69.657 7.936C69.353 8.12 69.113 8.376 68.937 8.704C68.761 9.024 68.673 9.404 68.673 9.844C68.673 10.268 68.761 10.644 68.937 10.972C69.113 11.3 69.353 11.556 69.657 11.74C69.961 11.924 70.297 12.016 70.665 12.016C71.033 12.016 71.365 11.924 71.661 11.74C71.965 11.556 72.205 11.3 72.381 10.972C72.557 10.644 72.645 10.268 72.645 9.844ZM78.1433 4.132C78.2953 4.132 78.4513 4.152 78.6113 4.192C78.7713 4.232 78.9033 4.3 79.0073 4.396C79.1193 4.484 79.1753 4.608 79.1753 4.768C79.1753 4.928 79.1273 5.06 79.0313 5.164C78.9353 5.26 78.8233 5.308 78.6953 5.308C78.6153 5.308 78.5073 5.292 78.3713 5.26C78.2353 5.22 78.0993 5.2 77.9633 5.2C77.7793 5.2 77.6313 5.244 77.5193 5.332C77.4073 5.412 77.3273 5.516 77.2793 5.644C77.2313 5.764 77.2073 5.884 77.2073 6.004V12.388C77.2073 12.564 77.1473 12.712 77.0273 12.832C76.9153 12.944 76.7753 13 76.6073 13C76.4313 13 76.2873 12.944 76.1753 12.832C76.0633 12.712 76.0073 12.564 76.0073 12.388V6.016C76.0073 5.464 76.1873 5.012 76.5473 4.66C76.9153 4.308 77.4473 4.132 78.1433 4.132ZM78.3833 6.796C78.5433 6.796 78.6753 6.848 78.7793 6.952C78.8833 7.056 78.9353 7.188 78.9353 7.348C78.9353 7.508 78.8833 7.64 78.7793 7.744C78.6753 7.848 78.5433 7.9 78.3833 7.9H75.2753C75.1233 7.9 74.9913 7.848 74.8793 7.744C74.7753 7.64 74.7233 7.508 74.7233 7.348C74.7233 7.188 74.7753 7.056 74.8793 6.952C74.9913 6.848 75.1233 6.796 75.2753 6.796H78.3833ZM83.0753 4.132C83.2273 4.132 83.3833 4.152 83.5433 4.192C83.7033 4.232 83.8353 4.3 83.9393 4.396C84.0513 4.484 84.1073 4.608 84.1073 4.768C84.1073 4.928 84.0593 5.06 83.9633 5.164C83.8673 5.26 83.7553 5.308 83.6273 5.308C83.5473 5.308 83.4393 5.292 83.3033 5.26C83.1673 5.22 83.0313 5.2 82.8953 5.2C82.7113 5.2 82.5633 5.244 82.4513 5.332C82.3393 5.412 82.2593 5.516 82.2113 5.644C82.1633 5.764 82.1393 5.884 82.1393 6.004V12.388C82.1393 12.564 82.0793 12.712 81.9593 12.832C81.8473 12.944 81.7073 13 81.5393 13C81.3633 13 81.2193 12.944 81.1073 12.832C80.9953 12.712 80.9393 12.564 80.9393 12.388V6.016C80.9393 5.464 81.1193 5.012 81.4793 4.66C81.8473 4.308 82.3793 4.132 83.0753 4.132ZM83.3153 6.796C83.4753 6.796 83.6073 6.848 83.7113 6.952C83.8153 7.056 83.8673 7.188 83.8673 7.348C83.8673 7.508 83.8153 7.64 83.7113 7.744C83.6073 7.848 83.4753 7.9 83.3153 7.9H80.2073C80.0553 7.9 79.9233 7.848 79.8113 7.744C79.7073 7.64 79.6553 7.508 79.6553 7.348C79.6553 7.188 79.7073 7.056 79.8113 6.952C79.9233 6.848 80.0553 6.796 80.2073 6.796H83.3153ZM86.3753 12.388C86.3753 12.564 86.3153 12.712 86.1953 12.832C86.0833 12.944 85.9433 13 85.7753 13C85.6073 13 85.4633 12.944 85.3433 12.832C85.2313 12.712 85.1753 12.564 85.1753 12.388V4.732C85.1753 4.556 85.2353 4.412 85.3553 4.3C85.4753 4.18 85.6193 4.12 85.7873 4.12C85.9633 4.12 86.1033 4.18 86.2073 4.3C86.3193 4.412 86.3753 4.556 86.3753 4.732V12.388ZM89.2805 12.388C89.2805 12.564 89.2245 12.712 89.1125 12.832C89.0005 12.944 88.8565 13 88.6805 13C88.5125 13 88.3685 12.944 88.2485 12.832C88.1365 12.712 88.0805 12.564 88.0805 12.388V7.252C88.0805 7.076 88.1365 6.932 88.2485 6.82C88.3685 6.7 88.5125 6.64 88.6805 6.64C88.8565 6.64 89.0005 6.7 89.1125 6.82C89.2245 6.932 89.2805 7.076 89.2805 7.252V12.388ZM88.6685 5.848C88.4365 5.848 88.2685 5.808 88.1645 5.728C88.0605 5.64 88.0085 5.496 88.0085 5.296V5.104C88.0085 4.904 88.0645 4.764 88.1765 4.684C88.2885 4.604 88.4565 4.564 88.6805 4.564C88.9205 4.564 89.0925 4.608 89.1965 4.696C89.3005 4.776 89.3525 4.912 89.3525 5.104V5.296C89.3525 5.504 89.2965 5.648 89.1845 5.728C89.0805 5.808 88.9085 5.848 88.6685 5.848ZM94.1467 6.544C94.7147 6.544 95.1547 6.664 95.4667 6.904C95.7787 7.136 95.9947 7.452 96.1147 7.852C96.2427 8.244 96.3067 8.684 96.3067 9.172V12.388C96.3067 12.564 96.2467 12.712 96.1267 12.832C96.0147 12.944 95.8747 13 95.7067 13C95.5307 13 95.3867 12.944 95.2747 12.832C95.1627 12.712 95.1067 12.564 95.1067 12.388V9.184C95.1067 8.896 95.0667 8.64 94.9867 8.416C94.9067 8.184 94.7667 8 94.5667 7.864C94.3747 7.72 94.1027 7.648 93.7507 7.648C93.4227 7.648 93.1347 7.72 92.8867 7.864C92.6387 8 92.4427 8.184 92.2987 8.416C92.1627 8.64 92.0947 8.896 92.0947 9.184V12.388C92.0947 12.564 92.0347 12.712 91.9147 12.832C91.8027 12.944 91.6627 13 91.4947 13C91.3187 13 91.1747 12.944 91.0627 12.832C90.9507 12.712 90.8947 12.564 90.8947 12.388V7.3C90.8947 7.124 90.9507 6.98 91.0627 6.868C91.1747 6.748 91.3187 6.688 91.4947 6.688C91.6627 6.688 91.8027 6.748 91.9147 6.868C92.0347 6.98 92.0947 7.124 92.0947 7.3V7.972L91.8787 8.092C91.9347 7.916 92.0307 7.74 92.1667 7.564C92.3107 7.38 92.4827 7.212 92.6827 7.06C92.8827 6.9 93.1067 6.776 93.3547 6.688C93.6027 6.592 93.8667 6.544 94.1467 6.544ZM100.913 13.12C100.249 13.12 99.6728 12.984 99.1848 12.712C98.6968 12.432 98.3168 12.052 98.0448 11.572C97.7808 11.084 97.6488 10.528 97.6488 9.904C97.6488 9.2 97.7888 8.6 98.0688 8.104C98.3568 7.6 98.7288 7.216 99.1848 6.952C99.6408 6.68 100.125 6.544 100.637 6.544C101.029 6.544 101.401 6.624 101.753 6.784C102.105 6.936 102.417 7.152 102.689 7.432C102.969 7.704 103.189 8.028 103.349 8.404C103.509 8.772 103.593 9.176 103.601 9.616C103.593 9.776 103.529 9.908 103.409 10.012C103.289 10.116 103.149 10.168 102.989 10.168H98.3208L98.0328 9.148H102.545L102.317 9.364V9.064C102.301 8.784 102.209 8.54 102.041 8.332C101.873 8.116 101.665 7.952 101.417 7.84C101.169 7.72 100.909 7.66 100.637 7.66C100.397 7.66 100.165 7.7 99.9408 7.78C99.7248 7.852 99.5288 7.972 99.3528 8.14C99.1848 8.308 99.0488 8.532 98.9448 8.812C98.8488 9.084 98.8008 9.424 98.8008 9.832C98.8008 10.272 98.8928 10.656 99.0768 10.984C99.2608 11.312 99.5088 11.568 99.8208 11.752C100.133 11.928 100.477 12.016 100.853 12.016C101.149 12.016 101.393 11.988 101.585 11.932C101.777 11.868 101.937 11.792 102.065 11.704C102.193 11.616 102.305 11.532 102.401 11.452C102.521 11.38 102.641 11.344 102.761 11.344C102.905 11.344 103.025 11.396 103.121 11.5C103.217 11.596 103.265 11.712 103.265 11.848C103.265 12.024 103.177 12.184 103.001 12.328C102.785 12.536 102.485 12.72 102.101 12.88C101.725 13.04 101.329 13.12 100.913 13.12ZM107.925 12.016C107.853 11.904 107.821 11.776 107.829 11.632C107.837 11.48 107.921 11.352 108.081 11.248C108.193 11.176 108.309 11.148 108.429 11.164C108.557 11.172 108.677 11.232 108.789 11.344C109.013 11.592 109.261 11.788 109.533 11.932C109.813 12.076 110.149 12.148 110.541 12.148C110.701 12.14 110.865 12.116 111.033 12.076C111.201 12.028 111.345 11.948 111.465 11.836C111.585 11.716 111.645 11.544 111.645 11.32C111.645 11.12 111.581 10.96 111.453 10.84C111.325 10.72 111.157 10.624 110.949 10.552C110.741 10.472 110.517 10.4 110.277 10.336C110.021 10.264 109.761 10.184 109.497 10.096C109.241 10.008 109.009 9.896 108.801 9.76C108.593 9.616 108.421 9.432 108.285 9.208C108.157 8.984 108.093 8.708 108.093 8.38C108.093 8.004 108.197 7.68 108.405 7.408C108.621 7.136 108.897 6.924 109.233 6.772C109.577 6.62 109.949 6.544 110.349 6.544C110.581 6.544 110.825 6.576 111.081 6.64C111.337 6.696 111.585 6.788 111.825 6.916C112.065 7.044 112.273 7.212 112.449 7.42C112.529 7.524 112.573 7.648 112.581 7.792C112.597 7.936 112.533 8.064 112.389 8.176C112.293 8.256 112.177 8.292 112.041 8.284C111.905 8.276 111.793 8.232 111.705 8.152C111.553 7.96 111.357 7.812 111.117 7.708C110.877 7.596 110.605 7.54 110.301 7.54C110.149 7.54 109.989 7.564 109.821 7.612C109.661 7.652 109.525 7.728 109.413 7.84C109.301 7.952 109.245 8.116 109.245 8.332C109.245 8.532 109.309 8.692 109.437 8.812C109.573 8.932 109.749 9.032 109.965 9.112C110.181 9.192 110.417 9.264 110.673 9.328C110.921 9.392 111.165 9.468 111.405 9.556C111.653 9.644 111.873 9.76 112.065 9.904C112.265 10.04 112.425 10.22 112.545 10.444C112.673 10.66 112.737 10.936 112.737 11.272C112.737 11.664 112.621 12 112.389 12.28C112.165 12.552 111.877 12.76 111.525 12.904C111.181 13.048 110.817 13.12 110.433 13.12C109.977 13.12 109.521 13.04 109.065 12.88C108.617 12.712 108.237 12.424 107.925 12.016ZM113.944 6.76H116.764C116.924 6.76 117.056 6.816 117.16 6.928C117.272 7.032 117.328 7.164 117.328 7.324C117.328 7.476 117.272 7.604 117.16 7.708C117.056 7.812 116.924 7.864 116.764 7.864H113.944C113.784 7.864 113.648 7.812 113.536 7.708C113.432 7.596 113.38 7.464 113.38 7.312C113.38 7.152 113.432 7.02 113.536 6.916C113.648 6.812 113.784 6.76 113.944 6.76ZM115.204 5.2C115.38 5.2 115.524 5.26 115.636 5.38C115.748 5.492 115.804 5.636 115.804 5.812V11.38C115.804 11.524 115.828 11.64 115.876 11.728C115.924 11.816 115.988 11.876 116.068 11.908C116.156 11.94 116.244 11.956 116.332 11.956C116.42 11.956 116.496 11.94 116.56 11.908C116.632 11.876 116.716 11.86 116.812 11.86C116.908 11.86 116.996 11.904 117.076 11.992C117.156 12.08 117.196 12.2 117.196 12.352C117.196 12.544 117.092 12.7 116.884 12.82C116.676 12.94 116.452 13 116.212 13C116.076 13 115.916 12.988 115.732 12.964C115.548 12.94 115.368 12.88 115.192 12.784C115.024 12.688 114.884 12.536 114.771 12.328C114.66 12.112 114.604 11.812 114.604 11.428V5.812C114.604 5.636 114.66 5.492 114.771 5.38C114.891 5.26 115.036 5.2 115.204 5.2ZM124.646 9.844C124.646 10.484 124.506 11.052 124.226 11.548C123.946 12.036 123.566 12.42 123.086 12.7C122.606 12.98 122.066 13.12 121.466 13.12C120.866 13.12 120.326 12.98 119.846 12.7C119.366 12.42 118.982 12.036 118.694 11.548C118.414 11.052 118.274 10.484 118.274 9.844C118.274 9.196 118.414 8.628 118.694 8.14C118.982 7.644 119.366 7.256 119.846 6.976C120.326 6.688 120.866 6.544 121.466 6.544C122.066 6.544 122.606 6.688 123.086 6.976C123.566 7.256 123.946 7.644 124.226 8.14C124.506 8.628 124.646 9.196 124.646 9.844ZM123.446 9.844C123.446 9.404 123.358 9.024 123.182 8.704C123.006 8.376 122.766 8.12 122.462 7.936C122.166 7.744 121.834 7.648 121.466 7.648C121.098 7.648 120.762 7.744 120.458 7.936C120.154 8.12 119.914 8.376 119.738 8.704C119.562 9.024 119.474 9.404 119.474 9.844C119.474 10.268 119.562 10.644 119.738 10.972C119.914 11.3 120.154 11.556 120.458 11.74C120.762 11.924 121.098 12.016 121.466 12.016C121.834 12.016 122.166 11.924 122.462 11.74C122.766 11.556 123.006 11.3 123.182 10.972C123.358 10.644 123.446 10.268 123.446 9.844ZM126.604 13C126.428 13 126.284 12.944 126.172 12.832C126.06 12.712 126.004 12.564 126.004 12.388V7.3C126.004 7.124 126.06 6.98 126.172 6.868C126.284 6.748 126.428 6.688 126.604 6.688C126.772 6.688 126.912 6.748 127.024 6.868C127.144 6.98 127.204 7.124 127.204 7.3V8.644L127.084 8.128C127.148 7.904 127.244 7.696 127.372 7.504C127.508 7.312 127.668 7.144 127.852 7C128.036 6.856 128.24 6.744 128.464 6.664C128.696 6.584 128.936 6.544 129.184 6.544C129.392 6.544 129.572 6.6 129.724 6.712C129.876 6.824 129.952 6.964 129.952 7.132C129.952 7.348 129.896 7.508 129.784 7.612C129.672 7.708 129.548 7.756 129.412 7.756C129.292 7.756 129.176 7.732 129.064 7.684C128.952 7.628 128.82 7.6 128.668 7.6C128.5 7.6 128.328 7.644 128.152 7.732C127.976 7.82 127.816 7.952 127.672 8.128C127.528 8.296 127.412 8.496 127.324 8.728C127.244 8.96 127.204 9.22 127.204 9.508V12.388C127.204 12.564 127.144 12.712 127.024 12.832C126.912 12.944 126.772 13 126.604 13ZM133.69 13.12C133.026 13.12 132.45 12.984 131.962 12.712C131.474 12.432 131.094 12.052 130.822 11.572C130.558 11.084 130.426 10.528 130.426 9.904C130.426 9.2 130.566 8.6 130.846 8.104C131.134 7.6 131.506 7.216 131.962 6.952C132.418 6.68 132.902 6.544 133.414 6.544C133.806 6.544 134.178 6.624 134.53 6.784C134.882 6.936 135.194 7.152 135.466 7.432C135.746 7.704 135.966 8.028 136.126 8.404C136.286 8.772 136.37 9.176 136.378 9.616C136.37 9.776 136.306 9.908 136.186 10.012C136.066 10.116 135.926 10.168 135.766 10.168H131.098L130.81 9.148H135.322L135.094 9.364V9.064C135.078 8.784 134.986 8.54 134.818 8.332C134.65 8.116 134.442 7.952 134.194 7.84C133.946 7.72 133.686 7.66 133.414 7.66C133.174 7.66 132.942 7.7 132.718 7.78C132.502 7.852 132.306 7.972 132.13 8.14C131.962 8.308 131.826 8.532 131.722 8.812C131.626 9.084 131.578 9.424 131.578 9.832C131.578 10.272 131.67 10.656 131.854 10.984C132.038 11.312 132.286 11.568 132.598 11.752C132.91 11.928 133.254 12.016 133.63 12.016C133.926 12.016 134.17 11.988 134.362 11.932C134.554 11.868 134.714 11.792 134.842 11.704C134.97 11.616 135.082 11.532 135.178 11.452C135.298 11.38 135.418 11.344 135.538 11.344C135.682 11.344 135.802 11.396 135.898 11.5C135.994 11.596 136.042 11.712 136.042 11.848C136.042 12.024 135.954 12.184 135.778 12.328C135.562 12.536 135.262 12.72 134.878 12.88C134.502 13.04 134.106 13.12 133.69 13.12ZM137.363 12.016C137.291 11.904 137.259 11.776 137.267 11.632C137.275 11.48 137.359 11.352 137.519 11.248C137.631 11.176 137.747 11.148 137.867 11.164C137.995 11.172 138.115 11.232 138.227 11.344C138.451 11.592 138.699 11.788 138.971 11.932C139.251 12.076 139.587 12.148 139.979 12.148C140.139 12.14 140.303 12.116 140.471 12.076C140.639 12.028 140.783 11.948 140.903 11.836C141.023 11.716 141.083 11.544 141.083 11.32C141.083 11.12 141.019 10.96 140.891 10.84C140.763 10.72 140.595 10.624 140.387 10.552C140.179 10.472 139.955 10.4 139.715 10.336C139.459 10.264 139.199 10.184 138.935 10.096C138.679 10.008 138.447 9.896 138.239 9.76C138.031 9.616 137.859 9.432 137.723 9.208C137.595 8.984 137.531 8.708 137.531 8.38C137.531 8.004 137.635 7.68 137.843 7.408C138.059 7.136 138.335 6.924 138.671 6.772C139.015 6.62 139.387 6.544 139.787 6.544C140.019 6.544 140.263 6.576 140.519 6.64C140.775 6.696 141.023 6.788 141.263 6.916C141.503 7.044 141.711 7.212 141.887 7.42C141.967 7.524 142.011 7.648 142.019 7.792C142.035 7.936 141.971 8.064 141.827 8.176C141.731 8.256 141.615 8.292 141.479 8.284C141.343 8.276 141.231 8.232 141.143 8.152C140.991 7.96 140.795 7.812 140.555 7.708C140.315 7.596 140.043 7.54 139.739 7.54C139.587 7.54 139.427 7.564 139.259 7.612C139.099 7.652 138.963 7.728 138.851 7.84C138.739 7.952 138.683 8.116 138.683 8.332C138.683 8.532 138.747 8.692 138.875 8.812C139.011 8.932 139.187 9.032 139.403 9.112C139.619 9.192 139.855 9.264 140.111 9.328C140.359 9.392 140.603 9.468 140.843 9.556C141.091 9.644 141.311 9.76 141.503 9.904C141.703 10.04 141.863 10.22 141.983 10.444C142.111 10.66 142.175 10.936 142.175 11.272C142.175 11.664 142.059 12 141.827 12.28C141.603 12.552 141.315 12.76 140.963 12.904C140.619 13.048 140.255 13.12 139.871 13.12C139.415 13.12 138.959 13.04 138.503 12.88C138.055 12.712 137.675 12.424 137.363 12.016ZM154.161 6.628C154.313 6.628 154.445 6.688 154.557 6.808C154.677 6.92 154.737 7.068 154.737 7.252C154.737 7.292 154.733 7.332 154.725 7.372C154.717 7.412 154.705 7.448 154.689 7.48L152.853 12.616C152.805 12.752 152.721 12.856 152.601 12.928C152.481 12.992 152.357 13.016 152.229 13C151.997 12.984 151.825 12.856 151.713 12.616L150.357 9.016L150.633 9.04L149.385 12.616C149.273 12.856 149.101 12.984 148.869 13C148.749 13.016 148.625 12.992 148.497 12.928C148.377 12.856 148.293 12.752 148.245 12.616L146.397 7.48C146.365 7.408 146.349 7.332 146.349 7.252C146.349 7.084 146.401 6.94 146.505 6.82C146.617 6.692 146.765 6.628 146.949 6.628C147.077 6.628 147.189 6.66 147.285 6.724C147.389 6.788 147.461 6.884 147.501 7.012L149.037 11.344L148.761 11.32L150.009 8.044C150.113 7.796 150.297 7.672 150.561 7.672C150.705 7.672 150.817 7.704 150.897 7.768C150.977 7.832 151.041 7.924 151.089 8.044L152.361 11.332L152.037 11.368L153.585 7.012C153.665 6.756 153.857 6.628 154.161 6.628ZM157.085 12.388C157.085 12.564 157.029 12.712 156.917 12.832C156.805 12.944 156.661 13 156.485 13C156.317 13 156.173 12.944 156.053 12.832C155.941 12.712 155.885 12.564 155.885 12.388V7.252C155.885 7.076 155.941 6.932 156.053 6.82C156.173 6.7 156.317 6.64 156.485 6.64C156.661 6.64 156.805 6.7 156.917 6.82C157.029 6.932 157.085 7.076 157.085 7.252V12.388ZM156.473 5.848C156.241 5.848 156.073 5.808 155.969 5.728C155.865 5.64 155.813 5.496 155.813 5.296V5.104C155.813 4.904 155.869 4.764 155.981 4.684C156.093 4.604 156.261 4.564 156.485 4.564C156.725 4.564 156.897 4.608 157.001 4.696C157.105 4.776 157.157 4.912 157.157 5.104V5.296C157.157 5.504 157.101 5.648 156.989 5.728C156.885 5.808 156.713 5.848 156.473 5.848ZM158.615 6.76H161.435C161.595 6.76 161.727 6.816 161.831 6.928C161.943 7.032 161.999 7.164 161.999 7.324C161.999 7.476 161.943 7.604 161.831 7.708C161.727 7.812 161.595 7.864 161.435 7.864H158.615C158.455 7.864 158.319 7.812 158.207 7.708C158.103 7.596 158.051 7.464 158.051 7.312C158.051 7.152 158.103 7.02 158.207 6.916C158.319 6.812 158.455 6.76 158.615 6.76ZM159.875 5.2C160.051 5.2 160.195 5.26 160.307 5.38C160.419 5.492 160.475 5.636 160.475 5.812V11.38C160.475 11.524 160.499 11.64 160.547 11.728C160.595 11.816 160.659 11.876 160.739 11.908C160.827 11.94 160.915 11.956 161.003 11.956C161.091 11.956 161.167 11.94 161.231 11.908C161.303 11.876 161.387 11.86 161.483 11.86C161.579 11.86 161.667 11.904 161.747 11.992C161.827 12.08 161.867 12.2 161.867 12.352C161.867 12.544 161.763 12.7 161.555 12.82C161.347 12.94 161.123 13 160.883 13C160.747 13 160.587 12.988 160.403 12.964C160.219 12.94 160.039 12.88 159.863 12.784C159.695 12.688 159.555 12.536 159.443 12.328C159.331 12.112 159.275 11.812 159.275 11.428V5.812C159.275 5.636 159.331 5.492 159.443 5.38C159.563 5.26 159.707 5.2 159.875 5.2ZM166.508 6.58C167.06 6.58 167.488 6.7 167.792 6.94C168.096 7.172 168.308 7.488 168.428 7.888C168.556 8.288 168.62 8.728 168.62 9.208V12.388C168.62 12.564 168.56 12.712 168.44 12.832C168.328 12.944 168.188 13 168.02 13C167.844 13 167.7 12.944 167.588 12.832C167.476 12.712 167.42 12.564 167.42 12.388V9.208C167.42 8.928 167.38 8.672 167.3 8.44C167.228 8.208 167.096 8.024 166.904 7.888C166.72 7.752 166.46 7.684 166.124 7.684C165.812 7.684 165.532 7.752 165.284 7.888C165.044 8.024 164.856 8.208 164.72 8.44C164.592 8.672 164.528 8.928 164.528 9.208V12.388C164.528 12.564 164.468 12.712 164.348 12.832C164.236 12.944 164.096 13 163.928 13C163.752 13 163.608 12.944 163.496 12.832C163.384 12.712 163.328 12.564 163.328 12.388V4.732C163.328 4.556 163.384 4.412 163.496 4.3C163.608 4.18 163.752 4.12 163.928 4.12C164.096 4.12 164.236 4.18 164.348 4.3C164.468 4.412 164.528 4.556 164.528 4.732V8.008L164.312 8.128C164.368 7.952 164.46 7.772 164.588 7.588C164.724 7.404 164.888 7.236 165.08 7.084C165.28 6.932 165.5 6.812 165.74 6.724C165.98 6.628 166.236 6.58 166.508 6.58ZM36.02 22.58C36.572 22.58 37 22.7 37.304 22.94C37.608 23.172 37.82 23.488 37.94 23.888C38.068 24.288 38.132 24.728 38.132 25.208V28.388C38.132 28.564 38.072 28.712 37.952 28.832C37.84 28.944 37.7 29 37.532 29C37.356 29 37.212 28.944 37.1 28.832C36.988 28.712 36.932 28.564 36.932 28.388V25.208C36.932 24.928 36.892 24.672 36.812 24.44C36.74 24.208 36.608 24.024 36.416 23.888C36.232 23.752 35.972 23.684 35.636 23.684C35.324 23.684 35.044 23.752 34.796 23.888C34.556 24.024 34.368 24.208 34.232 24.44C34.104 24.672 34.04 24.928 34.04 25.208V28.388C34.04 28.564 33.98 28.712 33.86 28.832C33.748 28.944 33.608 29 33.44 29C33.264 29 33.12 28.944 33.008 28.832C32.896 28.712 32.84 28.564 32.84 28.388V20.732C32.84 20.556 32.896 20.412 33.008 20.3C33.12 20.18 33.264 20.12 33.44 20.12C33.608 20.12 33.748 20.18 33.86 20.3C33.98 20.412 34.04 20.556 34.04 20.732V24.008L33.824 24.128C33.88 23.952 33.972 23.772 34.1 23.588C34.236 23.404 34.4 23.236 34.592 23.084C34.792 22.932 35.012 22.812 35.252 22.724C35.492 22.628 35.748 22.58 36.02 22.58ZM40.9289 28.388C40.9289 28.564 40.8729 28.712 40.7609 28.832C40.6489 28.944 40.5049 29 40.3289 29C40.1609 29 40.0169 28.944 39.8969 28.832C39.7849 28.712 39.7289 28.564 39.7289 28.388V23.252C39.7289 23.076 39.7849 22.932 39.8969 22.82C40.0169 22.7 40.1609 22.64 40.3289 22.64C40.5049 22.64 40.6489 22.7 40.7609 22.82C40.8729 22.932 40.9289 23.076 40.9289 23.252V28.388ZM40.3169 21.848C40.0849 21.848 39.9169 21.808 39.8129 21.728C39.7089 21.64 39.6569 21.496 39.6569 21.296V21.104C39.6569 20.904 39.7129 20.764 39.8249 20.684C39.9369 20.604 40.1049 20.564 40.3289 20.564C40.5689 20.564 40.7409 20.608 40.8449 20.696C40.9489 20.776 41.0009 20.912 41.0009 21.104V21.296C41.0009 21.504 40.9449 21.648 40.8329 21.728C40.7289 21.808 40.5569 21.848 40.3169 21.848ZM45.1711 22.544C45.5151 22.544 45.8311 22.6 46.1191 22.712C46.4071 22.824 46.6551 22.968 46.8631 23.144C47.0791 23.312 47.2471 23.488 47.3671 23.672C47.4871 23.856 47.5471 24.016 47.5471 24.152L47.2711 24.164V23.204C47.2711 23.036 47.3271 22.892 47.4391 22.772C47.5511 22.652 47.6951 22.592 47.8711 22.592C48.0471 22.592 48.1911 22.652 48.3031 22.772C48.4151 22.884 48.4711 23.028 48.4711 23.204V28.496C48.4711 29.176 48.3271 29.728 48.0391 30.152C47.7511 30.584 47.3671 30.9 46.8871 31.1C46.4151 31.3 45.8951 31.4 45.3271 31.4C45.1271 31.4 44.8911 31.372 44.6191 31.316C44.3471 31.268 44.0951 31.208 43.8631 31.136C43.6391 31.064 43.4831 30.992 43.3951 30.92C43.2111 30.824 43.0871 30.712 43.0231 30.584C42.9671 30.456 42.9671 30.328 43.0231 30.2C43.1031 30.024 43.2111 29.916 43.3471 29.876C43.4831 29.836 43.6391 29.848 43.8151 29.912C43.8951 29.936 44.0191 29.98 44.1871 30.044C44.3551 30.108 44.5431 30.164 44.7511 30.212C44.9591 30.268 45.1551 30.296 45.3391 30.296C45.9791 30.296 46.4591 30.148 46.7791 29.852C47.1071 29.556 47.2711 29.152 47.2711 28.64V27.56L47.4031 27.644C47.3791 27.812 47.3031 27.984 47.1751 28.16C47.0551 28.328 46.8951 28.484 46.6951 28.628C46.4951 28.772 46.2631 28.892 45.9991 28.988C45.7431 29.076 45.4791 29.12 45.2071 29.12C44.6391 29.12 44.1311 28.98 43.6831 28.7C43.2351 28.412 42.8791 28.024 42.6151 27.536C42.3511 27.04 42.2191 26.472 42.2191 25.832C42.2191 25.192 42.3511 24.628 42.6151 24.14C42.8791 23.644 43.2311 23.256 43.6711 22.976C44.1191 22.688 44.6191 22.544 45.1711 22.544ZM45.3511 23.648C44.9591 23.648 44.6151 23.744 44.3191 23.936C44.0231 24.128 43.7911 24.388 43.6231 24.716C43.4551 25.044 43.3711 25.416 43.3711 25.832C43.3711 26.248 43.4551 26.62 43.6231 26.948C43.7911 27.276 44.0231 27.536 44.3191 27.728C44.6151 27.92 44.9591 28.016 45.3511 28.016C45.7431 28.016 46.0871 27.924 46.3831 27.74C46.6791 27.548 46.9111 27.288 47.0791 26.96C47.2471 26.624 47.3311 26.248 47.3311 25.832C47.3311 25.416 47.2471 25.044 47.0791 24.716C46.9111 24.38 46.6791 24.12 46.3831 23.936C46.0871 23.744 45.7431 23.648 45.3511 23.648ZM53.3169 22.58C53.8689 22.58 54.2969 22.7 54.6009 22.94C54.9049 23.172 55.1169 23.488 55.2369 23.888C55.3649 24.288 55.4289 24.728 55.4289 25.208V28.388C55.4289 28.564 55.3689 28.712 55.2489 28.832C55.1369 28.944 54.9969 29 54.8289 29C54.6529 29 54.5089 28.944 54.3969 28.832C54.2849 28.712 54.2289 28.564 54.2289 28.388V25.208C54.2289 24.928 54.1889 24.672 54.1089 24.44C54.0369 24.208 53.9049 24.024 53.7129 23.888C53.5289 23.752 53.2689 23.684 52.9329 23.684C52.6209 23.684 52.3409 23.752 52.0929 23.888C51.8529 24.024 51.6649 24.208 51.5289 24.44C51.4009 24.672 51.3369 24.928 51.3369 25.208V28.388C51.3369 28.564 51.2769 28.712 51.1569 28.832C51.0449 28.944 50.9049 29 50.7369 29C50.5609 29 50.4169 28.944 50.3049 28.832C50.1929 28.712 50.1369 28.564 50.1369 28.388V20.732C50.1369 20.556 50.1929 20.412 50.3049 20.3C50.4169 20.18 50.5609 20.12 50.7369 20.12C50.9049 20.12 51.0449 20.18 51.1569 20.3C51.2769 20.412 51.3369 20.556 51.3369 20.732V24.008L51.1209 24.128C51.1769 23.952 51.2689 23.772 51.3969 23.588C51.5329 23.404 51.6969 23.236 51.8889 23.084C52.0889 22.932 52.3089 22.812 52.5489 22.724C52.7889 22.628 53.0449 22.58 53.3169 22.58ZM65.6097 22.664C65.7857 22.664 65.9297 22.724 66.0417 22.844C66.1537 22.956 66.2097 23.1 66.2097 23.276V30.788C66.2097 30.964 66.1537 31.108 66.0417 31.22C65.9297 31.34 65.7857 31.4 65.6097 31.4C65.4417 31.4 65.2977 31.34 65.1777 31.22C65.0657 31.108 65.0097 30.964 65.0097 30.788V27.524L65.2617 27.536C65.2617 27.68 65.2017 27.844 65.0817 28.028C64.9697 28.204 64.8137 28.376 64.6137 28.544C64.4137 28.712 64.1777 28.852 63.9057 28.964C63.6337 29.068 63.3417 29.12 63.0297 29.12C62.4777 29.12 61.9817 28.98 61.5417 28.7C61.1017 28.412 60.7537 28.024 60.4977 27.536C60.2417 27.04 60.1137 26.472 60.1137 25.832C60.1137 25.192 60.2417 24.628 60.4977 24.14C60.7537 23.644 61.0977 23.256 61.5297 22.976C61.9697 22.688 62.4577 22.544 62.9937 22.544C63.3297 22.544 63.6417 22.6 63.9297 22.712C64.2257 22.824 64.4817 22.968 64.6977 23.144C64.9137 23.32 65.0817 23.508 65.2017 23.708C65.3217 23.9 65.3817 24.084 65.3817 24.26L65.0097 24.296V23.276C65.0097 23.108 65.0657 22.964 65.1777 22.844C65.2977 22.724 65.4417 22.664 65.6097 22.664ZM63.1617 28.016C63.5457 28.016 63.8777 27.92 64.1577 27.728C64.4457 27.536 64.6697 27.276 64.8297 26.948C64.9897 26.62 65.0697 26.248 65.0697 25.832C65.0697 25.416 64.9897 25.044 64.8297 24.716C64.6697 24.388 64.4457 24.128 64.1577 23.936C63.8697 23.744 63.5377 23.648 63.1617 23.648C62.7937 23.648 62.4657 23.744 62.1777 23.936C61.8977 24.128 61.6737 24.388 61.5057 24.716C61.3457 25.044 61.2657 25.416 61.2657 25.832C61.2657 26.248 61.3457 26.62 61.5057 26.948C61.6737 27.276 61.8977 27.536 62.1777 27.728C62.4657 27.92 62.7937 28.016 63.1617 28.016ZM72.5948 22.688C72.7628 22.688 72.9028 22.748 73.0148 22.868C73.1348 22.98 73.1948 23.124 73.1948 23.3V26.456C73.1948 27.288 72.9628 27.94 72.4988 28.412C72.0348 28.876 71.3788 29.108 70.5308 29.108C69.6908 29.108 69.0388 28.876 68.5748 28.412C68.1188 27.94 67.8908 27.288 67.8908 26.456V23.3C67.8908 23.124 67.9468 22.98 68.0588 22.868C68.1708 22.748 68.3148 22.688 68.4908 22.688C68.6588 22.688 68.7988 22.748 68.9108 22.868C69.0308 22.98 69.0908 23.124 69.0908 23.3V26.456C69.0908 26.976 69.2108 27.364 69.4508 27.62C69.6988 27.876 70.0588 28.004 70.5308 28.004C71.0108 28.004 71.3748 27.876 71.6228 27.62C71.8708 27.364 71.9948 26.976 71.9948 26.456V23.3C71.9948 23.124 72.0508 22.98 72.1628 22.868C72.2748 22.748 72.4188 22.688 72.5948 22.688ZM80.0354 22.592C80.2114 22.592 80.3554 22.652 80.4674 22.772C80.5794 22.884 80.6354 23.028 80.6354 23.204V28.388C80.6354 28.564 80.5794 28.712 80.4674 28.832C80.3554 28.944 80.2114 29 80.0354 29C79.8674 29 79.7234 28.944 79.6034 28.832C79.4914 28.712 79.4354 28.564 79.4354 28.388V27.524L79.6874 27.56C79.6874 27.704 79.6274 27.864 79.5074 28.04C79.3954 28.216 79.2394 28.388 79.0394 28.556C78.8394 28.716 78.6034 28.852 78.3314 28.964C78.0594 29.068 77.7674 29.12 77.4554 29.12C76.9034 29.12 76.4074 28.98 75.9674 28.7C75.5274 28.412 75.1794 28.02 74.9234 27.524C74.6674 27.028 74.5394 26.464 74.5394 25.832C74.5394 25.184 74.6674 24.616 74.9234 24.128C75.1794 23.632 75.5234 23.244 75.9554 22.964C76.3954 22.684 76.8834 22.544 77.4194 22.544C77.7634 22.544 78.0794 22.6 78.3674 22.712C78.6634 22.824 78.9194 22.968 79.1354 23.144C79.3514 23.32 79.5154 23.508 79.6274 23.708C79.7474 23.9 79.8074 24.084 79.8074 24.26L79.4354 24.296V23.204C79.4354 23.036 79.4914 22.892 79.6034 22.772C79.7234 22.652 79.8674 22.592 80.0354 22.592ZM77.5874 28.016C77.9634 28.016 78.2954 27.92 78.5834 27.728C78.8714 27.536 79.0954 27.276 79.2554 26.948C79.4154 26.612 79.4954 26.24 79.4954 25.832C79.4954 25.416 79.4154 25.044 79.2554 24.716C79.0954 24.388 78.8714 24.128 78.5834 23.936C78.2954 23.744 77.9634 23.648 77.5874 23.648C77.2194 23.648 76.8914 23.744 76.6034 23.936C76.3234 24.128 76.0994 24.388 75.9314 24.716C75.7714 25.044 75.6914 25.416 75.6914 25.832C75.6914 26.24 75.7714 26.612 75.9314 26.948C76.0994 27.276 76.3234 27.536 76.6034 27.728C76.8914 27.92 77.2194 28.016 77.5874 28.016ZM83.6126 28.388C83.6126 28.564 83.5526 28.712 83.4326 28.832C83.3206 28.944 83.1806 29 83.0126 29C82.8446 29 82.7006 28.944 82.5806 28.832C82.4686 28.712 82.4126 28.564 82.4126 28.388V20.732C82.4126 20.556 82.4726 20.412 82.5926 20.3C82.7126 20.18 82.8566 20.12 83.0246 20.12C83.2006 20.12 83.3406 20.18 83.4446 20.3C83.5566 20.412 83.6126 20.556 83.6126 20.732V28.388ZM86.5266 28.388C86.5266 28.564 86.4706 28.712 86.3586 28.832C86.2466 28.944 86.1026 29 85.9266 29C85.7586 29 85.6146 28.944 85.4946 28.832C85.3826 28.712 85.3266 28.564 85.3266 28.388V23.252C85.3266 23.076 85.3826 22.932 85.4946 22.82C85.6146 22.7 85.7586 22.64 85.9266 22.64C86.1026 22.64 86.2466 22.7 86.3586 22.82C86.4706 22.932 86.5266 23.076 86.5266 23.252V28.388ZM85.9146 21.848C85.6826 21.848 85.5146 21.808 85.4106 21.728C85.3066 21.64 85.2546 21.496 85.2546 21.296V21.104C85.2546 20.904 85.3106 20.764 85.4226 20.684C85.5346 20.604 85.7026 20.564 85.9266 20.564C86.1666 20.564 86.3386 20.608 86.4426 20.696C86.5466 20.776 86.5986 20.912 86.5986 21.104V21.296C86.5986 21.504 86.5426 21.648 86.4306 21.728C86.3266 21.808 86.1546 21.848 85.9146 21.848ZM88.0568 22.76H90.8768C91.0368 22.76 91.1688 22.816 91.2728 22.928C91.3848 23.032 91.4408 23.164 91.4408 23.324C91.4408 23.476 91.3848 23.604 91.2728 23.708C91.1688 23.812 91.0368 23.864 90.8768 23.864H88.0568C87.8968 23.864 87.7608 23.812 87.6488 23.708C87.5448 23.596 87.4928 23.464 87.4928 23.312C87.4928 23.152 87.5448 23.02 87.6488 22.916C87.7608 22.812 87.8968 22.76 88.0568 22.76ZM89.3168 21.2C89.4928 21.2 89.6368 21.26 89.7488 21.38C89.8608 21.492 89.9168 21.636 89.9168 21.812V27.38C89.9168 27.524 89.9408 27.64 89.9888 27.728C90.0368 27.816 90.1008 27.876 90.1808 27.908C90.2688 27.94 90.3568 27.956 90.4448 27.956C90.5328 27.956 90.6088 27.94 90.6728 27.908C90.7448 27.876 90.8288 27.86 90.9248 27.86C91.0208 27.86 91.1088 27.904 91.1888 27.992C91.2688 28.08 91.3088 28.2 91.3088 28.352C91.3088 28.544 91.2048 28.7 90.9968 28.82C90.7888 28.94 90.5648 29 90.3248 29C90.1888 29 90.0288 28.988 89.8448 28.964C89.6608 28.94 89.4808 28.88 89.3048 28.784C89.1368 28.688 88.9968 28.536 88.8848 28.328C88.7728 28.112 88.7168 27.812 88.7168 27.428V21.812C88.7168 21.636 88.7728 21.492 88.8848 21.38C89.0048 21.26 89.1488 21.2 89.3168 21.2ZM97.4617 22.64C97.6377 22.64 97.7817 22.7 97.8937 22.82C98.0057 22.932 98.0617 23.076 98.0617 23.252V28.412C98.0617 29.116 97.9257 29.688 97.6537 30.128C97.3897 30.568 97.0297 30.888 96.5737 31.088C96.1257 31.296 95.6177 31.4 95.0497 31.4C94.7617 31.4 94.4737 31.372 94.1857 31.316C93.8977 31.268 93.6617 31.196 93.4777 31.1C93.2857 31.012 93.1497 30.904 93.0697 30.776C92.9897 30.648 92.9777 30.508 93.0337 30.356C93.0897 30.164 93.1857 30.032 93.3217 29.96C93.4577 29.896 93.5977 29.892 93.7417 29.948C93.8777 30.004 94.0577 30.076 94.2817 30.164C94.5057 30.252 94.7617 30.296 95.0497 30.296C95.4417 30.296 95.7737 30.232 96.0457 30.104C96.3177 29.976 96.5217 29.776 96.6577 29.504C96.8017 29.232 96.8737 28.88 96.8737 28.448V27.62L97.0657 27.908C96.9377 28.172 96.7697 28.392 96.5617 28.568C96.3537 28.744 96.1057 28.88 95.8177 28.976C95.5377 29.072 95.2257 29.12 94.8817 29.12C94.4417 29.12 94.0617 29.024 93.7417 28.832C93.4297 28.632 93.1897 28.36 93.0217 28.016C92.8537 27.664 92.7697 27.264 92.7697 26.816V23.252C92.7697 23.076 92.8257 22.932 92.9377 22.82C93.0497 22.7 93.1937 22.64 93.3697 22.64C93.5377 22.64 93.6777 22.7 93.7897 22.82C93.9097 22.932 93.9697 23.076 93.9697 23.252V26.492C93.9697 27.02 94.0857 27.408 94.3177 27.656C94.5497 27.896 94.8937 28.016 95.3497 28.016C95.6537 28.016 95.9177 27.952 96.1417 27.824C96.3657 27.696 96.5417 27.52 96.6697 27.296C96.7977 27.064 96.8617 26.796 96.8617 26.492V23.252C96.8617 23.076 96.9177 22.932 97.0297 22.82C97.1497 22.7 97.2937 22.64 97.4617 22.64ZM106.262 22.58C106.822 22.58 107.318 22.72 107.75 23C108.19 23.28 108.538 23.664 108.794 24.152C109.05 24.632 109.178 25.192 109.178 25.832C109.178 26.472 109.05 27.04 108.794 27.536C108.538 28.024 108.194 28.408 107.762 28.688C107.33 28.968 106.842 29.108 106.298 29.108C105.994 29.108 105.706 29.06 105.434 28.964C105.162 28.868 104.922 28.744 104.714 28.592C104.506 28.432 104.334 28.264 104.198 28.088C104.07 27.912 103.99 27.748 103.958 27.596L104.282 27.44V30.788C104.282 30.964 104.222 31.108 104.102 31.22C103.99 31.34 103.85 31.4 103.682 31.4C103.506 31.4 103.362 31.34 103.25 31.22C103.138 31.108 103.082 30.964 103.082 30.788V23.276C103.082 23.108 103.138 22.964 103.25 22.844C103.362 22.724 103.506 22.664 103.682 22.664C103.85 22.664 103.99 22.724 104.102 22.844C104.222 22.964 104.282 23.108 104.282 23.276V24.104L104.09 23.996C104.114 23.844 104.19 23.688 104.318 23.528C104.446 23.36 104.606 23.204 104.798 23.06C104.998 22.916 105.222 22.8 105.47 22.712C105.726 22.624 105.99 22.58 106.262 22.58ZM106.13 23.684C105.746 23.684 105.41 23.78 105.122 23.972C104.842 24.156 104.622 24.408 104.462 24.728C104.302 25.048 104.222 25.416 104.222 25.832C104.222 26.24 104.302 26.612 104.462 26.948C104.622 27.276 104.842 27.536 105.122 27.728C105.41 27.912 105.746 28.004 106.13 28.004C106.506 28.004 106.834 27.912 107.114 27.728C107.394 27.536 107.614 27.276 107.774 26.948C107.942 26.612 108.026 26.24 108.026 25.832C108.026 25.424 107.942 25.06 107.774 24.74C107.614 24.412 107.394 24.156 107.114 23.972C106.834 23.78 106.506 23.684 106.13 23.684ZM111.135 29C110.959 29 110.815 28.944 110.703 28.832C110.591 28.712 110.535 28.564 110.535 28.388V23.3C110.535 23.124 110.591 22.98 110.703 22.868C110.815 22.748 110.959 22.688 111.135 22.688C111.303 22.688 111.443 22.748 111.555 22.868C111.675 22.98 111.735 23.124 111.735 23.3V24.644L111.615 24.128C111.679 23.904 111.775 23.696 111.903 23.504C112.039 23.312 112.199 23.144 112.383 23C112.567 22.856 112.771 22.744 112.995 22.664C113.227 22.584 113.467 22.544 113.715 22.544C113.923 22.544 114.103 22.6 114.255 22.712C114.407 22.824 114.483 22.964 114.483 23.132C114.483 23.348 114.427 23.508 114.315 23.612C114.203 23.708 114.079 23.756 113.943 23.756C113.823 23.756 113.707 23.732 113.595 23.684C113.483 23.628 113.351 23.6 113.199 23.6C113.031 23.6 112.859 23.644 112.683 23.732C112.507 23.82 112.347 23.952 112.203 24.128C112.059 24.296 111.943 24.496 111.855 24.728C111.775 24.96 111.735 25.22 111.735 25.508V28.388C111.735 28.564 111.675 28.712 111.555 28.832C111.443 28.944 111.303 29 111.135 29ZM121.329 25.844C121.329 26.484 121.189 27.052 120.909 27.548C120.629 28.036 120.249 28.42 119.769 28.7C119.289 28.98 118.749 29.12 118.149 29.12C117.549 29.12 117.009 28.98 116.529 28.7C116.049 28.42 115.665 28.036 115.377 27.548C115.097 27.052 114.957 26.484 114.957 25.844C114.957 25.196 115.097 24.628 115.377 24.14C115.665 23.644 116.049 23.256 116.529 22.976C117.009 22.688 117.549 22.544 118.149 22.544C118.749 22.544 119.289 22.688 119.769 22.976C120.249 23.256 120.629 23.644 120.909 24.14C121.189 24.628 121.329 25.196 121.329 25.844ZM120.129 25.844C120.129 25.404 120.041 25.024 119.865 24.704C119.689 24.376 119.449 24.12 119.145 23.936C118.849 23.744 118.517 23.648 118.149 23.648C117.781 23.648 117.445 23.744 117.141 23.936C116.837 24.12 116.597 24.376 116.421 24.704C116.245 25.024 116.157 25.404 116.157 25.844C116.157 26.268 116.245 26.644 116.421 26.972C116.597 27.3 116.837 27.556 117.141 27.74C117.445 27.924 117.781 28.016 118.149 28.016C118.517 28.016 118.849 27.924 119.145 27.74C119.449 27.556 119.689 27.3 119.865 26.972C120.041 26.644 120.129 26.268 120.129 25.844ZM127.86 20.12C128.036 20.12 128.18 20.176 128.292 20.288C128.404 20.4 128.46 20.548 128.46 20.732V28.388C128.46 28.564 128.404 28.712 128.292 28.832C128.18 28.944 128.036 29 127.86 29C127.692 29 127.548 28.944 127.428 28.832C127.316 28.712 127.26 28.564 127.26 28.388V27.524L127.512 27.536C127.512 27.68 127.452 27.844 127.332 28.028C127.22 28.204 127.064 28.376 126.864 28.544C126.664 28.712 126.428 28.852 126.156 28.964C125.884 29.068 125.592 29.12 125.28 29.12C124.728 29.12 124.232 28.98 123.792 28.7C123.352 28.412 123.004 28.024 122.748 27.536C122.492 27.04 122.364 26.472 122.364 25.832C122.364 25.192 122.492 24.628 122.748 24.14C123.004 23.644 123.348 23.256 123.78 22.976C124.22 22.688 124.708 22.544 125.244 22.544C125.58 22.544 125.892 22.6 126.18 22.712C126.476 22.824 126.732 22.968 126.948 23.144C127.164 23.32 127.332 23.508 127.452 23.708C127.572 23.9 127.632 24.084 127.632 24.26L127.26 24.296V20.732C127.26 20.556 127.316 20.412 127.428 20.3C127.548 20.18 127.692 20.12 127.86 20.12ZM125.412 28.016C125.796 28.016 126.128 27.92 126.408 27.728C126.696 27.536 126.92 27.276 127.08 26.948C127.24 26.62 127.32 26.248 127.32 25.832C127.32 25.416 127.24 25.044 127.08 24.716C126.92 24.388 126.696 24.128 126.408 23.936C126.12 23.744 125.788 23.648 125.412 23.648C125.044 23.648 124.716 23.744 124.428 23.936C124.148 24.128 123.924 24.388 123.756 24.716C123.596 25.044 123.516 25.416 123.516 25.832C123.516 26.248 123.596 26.62 123.756 26.948C123.924 27.276 124.148 27.536 124.428 27.728C124.716 27.92 125.044 28.016 125.412 28.016ZM135.032 22.688C135.2 22.688 135.34 22.748 135.452 22.868C135.572 22.98 135.632 23.124 135.632 23.3V26.456C135.632 27.288 135.4 27.94 134.936 28.412C134.472 28.876 133.816 29.108 132.968 29.108C132.128 29.108 131.476 28.876 131.012 28.412C130.556 27.94 130.328 27.288 130.328 26.456V23.3C130.328 23.124 130.384 22.98 130.496 22.868C130.608 22.748 130.752 22.688 130.928 22.688C131.096 22.688 131.236 22.748 131.348 22.868C131.468 22.98 131.528 23.124 131.528 23.3V26.456C131.528 26.976 131.648 27.364 131.888 27.62C132.136 27.876 132.496 28.004 132.968 28.004C133.448 28.004 133.812 27.876 134.06 27.62C134.308 27.364 134.432 26.976 134.432 26.456V23.3C134.432 23.124 134.488 22.98 134.6 22.868C134.712 22.748 134.856 22.688 135.032 22.688ZM140.097 22.544C140.529 22.544 140.913 22.592 141.249 22.688C141.585 22.776 141.845 22.904 142.029 23.072C142.221 23.232 142.317 23.42 142.317 23.636C142.317 23.772 142.277 23.9 142.197 24.02C142.117 24.132 141.997 24.188 141.837 24.188C141.725 24.188 141.629 24.168 141.549 24.128C141.477 24.088 141.409 24.04 141.345 23.984C141.281 23.928 141.201 23.872 141.105 23.816C141.017 23.768 140.885 23.728 140.709 23.696C140.541 23.664 140.389 23.648 140.253 23.648C139.829 23.648 139.461 23.744 139.149 23.936C138.845 24.128 138.605 24.388 138.429 24.716C138.261 25.044 138.177 25.416 138.177 25.832C138.177 26.248 138.261 26.62 138.429 26.948C138.605 27.276 138.841 27.536 139.137 27.728C139.441 27.92 139.793 28.016 140.193 28.016C140.433 28.016 140.629 28 140.781 27.968C140.933 27.928 141.065 27.88 141.177 27.824C141.297 27.752 141.397 27.68 141.477 27.608C141.565 27.528 141.685 27.488 141.837 27.488C142.013 27.488 142.145 27.544 142.233 27.656C142.329 27.76 142.377 27.892 142.377 28.052C142.377 28.228 142.269 28.4 142.053 28.568C141.845 28.728 141.565 28.86 141.213 28.964C140.861 29.068 140.473 29.12 140.049 29.12C139.425 29.12 138.881 28.976 138.417 28.688C137.961 28.4 137.605 28.008 137.349 27.512C137.101 27.016 136.977 26.456 136.977 25.832C136.977 25.2 137.109 24.64 137.373 24.152C137.637 23.656 138.005 23.264 138.477 22.976C138.949 22.688 139.489 22.544 140.097 22.544ZM143.44 22.76H146.26C146.42 22.76 146.552 22.816 146.656 22.928C146.768 23.032 146.824 23.164 146.824 23.324C146.824 23.476 146.768 23.604 146.656 23.708C146.552 23.812 146.42 23.864 146.26 23.864H143.44C143.28 23.864 143.144 23.812 143.032 23.708C142.928 23.596 142.876 23.464 142.876 23.312C142.876 23.152 142.928 23.02 143.032 22.916C143.144 22.812 143.28 22.76 143.44 22.76ZM144.7 21.2C144.876 21.2 145.02 21.26 145.132 21.38C145.244 21.492 145.3 21.636 145.3 21.812V27.38C145.3 27.524 145.324 27.64 145.372 27.728C145.42 27.816 145.484 27.876 145.564 27.908C145.652 27.94 145.74 27.956 145.828 27.956C145.916 27.956 145.992 27.94 146.056 27.908C146.128 27.876 146.212 27.86 146.308 27.86C146.404 27.86 146.492 27.904 146.572 27.992C146.652 28.08 146.692 28.2 146.692 28.352C146.692 28.544 146.588 28.7 146.38 28.82C146.172 28.94 145.948 29 145.708 29C145.572 29 145.412 28.988 145.228 28.964C145.044 28.94 144.864 28.88 144.688 28.784C144.52 28.688 144.38 28.536 144.268 28.328C144.156 28.112 144.1 27.812 144.1 27.428V21.812C144.1 21.636 144.156 21.492 144.268 21.38C144.388 21.26 144.532 21.2 144.7 21.2ZM148.015 28.016C147.943 27.904 147.911 27.776 147.919 27.632C147.927 27.48 148.011 27.352 148.171 27.248C148.283 27.176 148.399 27.148 148.519 27.164C148.647 27.172 148.767 27.232 148.879 27.344C149.103 27.592 149.351 27.788 149.623 27.932C149.903 28.076 150.239 28.148 150.631 28.148C150.791 28.14 150.955 28.116 151.123 28.076C151.291 28.028 151.435 27.948 151.555 27.836C151.675 27.716 151.735 27.544 151.735 27.32C151.735 27.12 151.671 26.96 151.543 26.84C151.415 26.72 151.247 26.624 151.039 26.552C150.831 26.472 150.607 26.4 150.367 26.336C150.111 26.264 149.851 26.184 149.587 26.096C149.331 26.008 149.099 25.896 148.891 25.76C148.683 25.616 148.511 25.432 148.375 25.208C148.247 24.984 148.183 24.708 148.183 24.38C148.183 24.004 148.287 23.68 148.495 23.408C148.711 23.136 148.987 22.924 149.323 22.772C149.667 22.62 150.039 22.544 150.439 22.544C150.671 22.544 150.915 22.576 151.171 22.64C151.427 22.696 151.675 22.788 151.915 22.916C152.155 23.044 152.363 23.212 152.539 23.42C152.619 23.524 152.663 23.648 152.671 23.792C152.687 23.936 152.623 24.064 152.479 24.176C152.383 24.256 152.267 24.292 152.131 24.284C151.995 24.276 151.883 24.232 151.795 24.152C151.643 23.96 151.447 23.812 151.207 23.708C150.967 23.596 150.695 23.54 150.391 23.54C150.239 23.54 150.079 23.564 149.911 23.612C149.751 23.652 149.615 23.728 149.503 23.84C149.391 23.952 149.335 24.116 149.335 24.332C149.335 24.532 149.399 24.692 149.527 24.812C149.663 24.932 149.839 25.032 150.055 25.112C150.271 25.192 150.507 25.264 150.763 25.328C151.011 25.392 151.255 25.468 151.495 25.556C151.743 25.644 151.963 25.76 152.155 25.904C152.355 26.04 152.515 26.22 152.635 26.444C152.763 26.66 152.827 26.936 152.827 27.272C152.827 27.664 152.711 28 152.479 28.28C152.255 28.552 151.967 28.76 151.615 28.904C151.271 29.048 150.907 29.12 150.523 29.12C150.067 29.12 149.611 29.04 149.155 28.88C148.707 28.712 148.327 28.424 148.015 28.016Z" fill="#070706"/>
</svg>
