<svg width="187" height="32" viewBox="0 0 187 32" fill="none" xmlns="http://www.w3.org/2000/svg">
<path d="M0 8C0 5.79086 1.79086 4 4 4H14.6667C19.0849 4 22.6667 7.58172 22.6667 12V20C22.6667 24.4183 19.0849 28 14.6667 28H4C1.79086 28 0 26.2091 0 24V8Z" fill="#007460"/>
<rect x="13.333" y="10.6667" width="10.6667" height="10.6667" rx="4" fill="#FF4300"/>
<rect x="16" y="16.1615" width="4" height="4" rx="1" transform="rotate(-45 16 16.1615)" fill="#F2F2F2"/>
<path d="M35.552 13.12C34.976 13.12 34.464 13.04 34.016 12.88C33.568 12.72 33.14 12.456 32.732 12.088C32.644 12.024 32.576 11.948 32.528 11.86C32.488 11.764 32.468 11.668 32.468 11.572C32.468 11.42 32.524 11.284 32.636 11.164C32.748 11.044 32.888 10.984 33.056 10.984C33.184 10.984 33.304 11.028 33.416 11.116C33.72 11.396 34.036 11.608 34.364 11.752C34.7 11.896 35.092 11.968 35.54 11.968C35.86 11.968 36.152 11.916 36.416 11.812C36.688 11.708 36.904 11.568 37.064 11.392C37.224 11.216 37.304 11.012 37.304 10.78C37.304 10.492 37.22 10.256 37.052 10.072C36.892 9.88 36.656 9.724 36.344 9.604C36.04 9.476 35.672 9.368 35.24 9.28C34.84 9.208 34.48 9.108 34.16 8.98C33.848 8.852 33.58 8.692 33.356 8.5C33.132 8.3 32.96 8.064 32.84 7.792C32.72 7.52 32.66 7.204 32.66 6.844C32.66 6.356 32.788 5.936 33.044 5.584C33.3 5.232 33.648 4.96 34.088 4.768C34.528 4.576 35.024 4.48 35.576 4.48C36.08 4.48 36.552 4.56 36.992 4.72C37.432 4.872 37.788 5.08 38.06 5.344C38.252 5.512 38.348 5.692 38.348 5.884C38.348 6.028 38.288 6.164 38.168 6.292C38.056 6.412 37.924 6.472 37.772 6.472C37.66 6.472 37.564 6.44 37.484 6.376C37.356 6.24 37.184 6.12 36.968 6.016C36.752 5.904 36.52 5.812 36.272 5.74C36.032 5.668 35.8 5.632 35.576 5.632C35.216 5.632 34.908 5.684 34.652 5.788C34.396 5.884 34.2 6.02 34.064 6.196C33.928 6.364 33.86 6.564 33.86 6.796C33.86 7.068 33.936 7.292 34.088 7.468C34.248 7.644 34.468 7.788 34.748 7.9C35.028 8.004 35.348 8.1 35.708 8.188C36.148 8.284 36.54 8.392 36.884 8.512C37.236 8.632 37.532 8.788 37.772 8.98C38.012 9.164 38.196 9.396 38.324 9.676C38.452 9.956 38.516 10.304 38.516 10.72C38.516 11.2 38.38 11.62 38.108 11.98C37.836 12.34 37.476 12.62 37.028 12.82C36.588 13.02 36.096 13.12 35.552 13.12ZM45.0315 6.592C45.2075 6.592 45.3515 6.652 45.4635 6.772C45.5755 6.884 45.6315 7.028 45.6315 7.204V12.388C45.6315 12.564 45.5755 12.712 45.4635 12.832C45.3515 12.944 45.2075 13 45.0315 13C44.8635 13 44.7195 12.944 44.5995 12.832C44.4875 12.712 44.4315 12.564 44.4315 12.388V11.524L44.6835 11.56C44.6835 11.704 44.6235 11.864 44.5035 12.04C44.3915 12.216 44.2355 12.388 44.0355 12.556C43.8355 12.716 43.5995 12.852 43.3275 12.964C43.0555 13.068 42.7635 13.12 42.4515 13.12C41.8995 13.12 41.4035 12.98 40.9635 12.7C40.5235 12.412 40.1755 12.02 39.9195 11.524C39.6635 11.028 39.5355 10.464 39.5355 9.832C39.5355 9.184 39.6635 8.616 39.9195 8.128C40.1755 7.632 40.5195 7.244 40.9515 6.964C41.3915 6.684 41.8795 6.544 42.4155 6.544C42.7595 6.544 43.0755 6.6 43.3635 6.712C43.6595 6.824 43.9155 6.968 44.1315 7.144C44.3475 7.32 44.5115 7.508 44.6235 7.708C44.7435 7.9 44.8035 8.084 44.8035 8.26L44.4315 8.296V7.204C44.4315 7.036 44.4875 6.892 44.5995 6.772C44.7195 6.652 44.8635 6.592 45.0315 6.592ZM42.5835 12.016C42.9595 12.016 43.2915 11.92 43.5795 11.728C43.8675 11.536 44.0915 11.276 44.2515 10.948C44.4115 10.612 44.4915 10.24 44.4915 9.832C44.4915 9.416 44.4115 9.044 44.2515 8.716C44.0915 8.388 43.8675 8.128 43.5795 7.936C43.2915 7.744 42.9595 7.648 42.5835 7.648C42.2155 7.648 41.8875 7.744 41.5995 7.936C41.3195 8.128 41.0955 8.388 40.9275 8.716C40.7675 9.044 40.6875 9.416 40.6875 9.832C40.6875 10.24 40.7675 10.612 40.9275 10.948C41.0955 11.276 41.3195 11.536 41.5995 11.728C41.8875 11.92 42.2155 12.016 42.5835 12.016ZM47.316 6.628C47.436 6.628 47.548 6.66 47.652 6.724C47.764 6.788 47.844 6.884 47.892 7.012L49.776 11.368L49.548 11.476L51.456 7.024C51.568 6.76 51.748 6.632 51.996 6.64C52.156 6.64 52.288 6.692 52.392 6.796C52.504 6.892 52.56 7.02 52.56 7.18C52.56 7.228 52.552 7.28 52.536 7.336C52.52 7.384 52.5 7.432 52.476 7.48L50.196 12.616C50.092 12.856 49.92 12.984 49.68 13C49.56 13.016 49.44 12.992 49.32 12.928C49.208 12.856 49.12 12.752 49.056 12.616L46.788 7.48C46.772 7.448 46.756 7.408 46.74 7.36C46.724 7.304 46.716 7.24 46.716 7.168C46.716 7.048 46.768 6.928 46.872 6.808C46.984 6.688 47.132 6.628 47.316 6.628ZM56.6628 13.12C55.9988 13.12 55.4228 12.984 54.9348 12.712C54.4468 12.432 54.0668 12.052 53.7948 11.572C53.5308 11.084 53.3988 10.528 53.3988 9.904C53.3988 9.2 53.5388 8.6 53.8188 8.104C54.1068 7.6 54.4788 7.216 54.9348 6.952C55.3908 6.68 55.8748 6.544 56.3868 6.544C56.7788 6.544 57.1508 6.624 57.5028 6.784C57.8548 6.936 58.1668 7.152 58.4388 7.432C58.7188 7.704 58.9388 8.028 59.0988 8.404C59.2588 8.772 59.3428 9.176 59.3508 9.616C59.3428 9.776 59.2788 9.908 59.1588 10.012C59.0388 10.116 58.8988 10.168 58.7388 10.168H54.0708L53.7828 9.148H58.2948L58.0668 9.364V9.064C58.0508 8.784 57.9588 8.54 57.7908 8.332C57.6228 8.116 57.4148 7.952 57.1668 7.84C56.9188 7.72 56.6588 7.66 56.3868 7.66C56.1468 7.66 55.9148 7.7 55.6908 7.78C55.4748 7.852 55.2788 7.972 55.1028 8.14C54.9348 8.308 54.7988 8.532 54.6948 8.812C54.5988 9.084 54.5508 9.424 54.5508 9.832C54.5508 10.272 54.6428 10.656 54.8268 10.984C55.0108 11.312 55.2588 11.568 55.5708 11.752C55.8828 11.928 56.2268 12.016 56.6028 12.016C56.8988 12.016 57.1428 11.988 57.3348 11.932C57.5268 11.868 57.6868 11.792 57.8148 11.704C57.9428 11.616 58.0548 11.532 58.1508 11.452C58.2708 11.38 58.3908 11.344 58.5108 11.344C58.6548 11.344 58.7748 11.396 58.8708 11.5C58.9668 11.596 59.0148 11.712 59.0148 11.848C59.0148 12.024 58.9268 12.184 58.7508 12.328C58.5348 12.536 58.2348 12.72 57.8508 12.88C57.4748 13.04 57.0788 13.12 56.6628 13.12ZM67.215 6.58C67.807 6.58 68.263 6.728 68.583 7.024C68.903 7.312 69.115 7.704 69.219 8.2L69.027 8.14L69.111 7.948C69.215 7.74 69.371 7.532 69.579 7.324C69.795 7.108 70.051 6.932 70.347 6.796C70.643 6.652 70.959 6.58 71.295 6.58C71.847 6.58 72.275 6.7 72.579 6.94C72.883 7.172 73.095 7.488 73.215 7.888C73.335 8.28 73.395 8.72 73.395 9.208V12.388C73.395 12.564 73.339 12.712 73.227 12.832C73.115 12.944 72.971 13 72.795 13C72.627 13 72.483 12.944 72.363 12.832C72.251 12.712 72.195 12.564 72.195 12.388V9.22C72.195 8.94 72.155 8.684 72.075 8.452C72.003 8.22 71.871 8.036 71.679 7.9C71.495 7.756 71.239 7.684 70.911 7.684C70.599 7.684 70.319 7.756 70.071 7.9C69.831 8.036 69.643 8.22 69.507 8.452C69.371 8.684 69.303 8.94 69.303 9.22V12.388C69.303 12.564 69.247 12.712 69.135 12.832C69.023 12.944 68.879 13 68.703 13C68.527 13 68.383 12.944 68.271 12.832C68.159 12.712 68.103 12.564 68.103 12.388V9.208C68.103 8.928 68.063 8.672 67.983 8.44C67.911 8.208 67.783 8.024 67.599 7.888C67.415 7.752 67.159 7.684 66.831 7.684C66.519 7.684 66.243 7.752 66.003 7.888C65.763 8.024 65.575 8.208 65.439 8.44C65.311 8.672 65.247 8.928 65.247 9.208V12.388C65.247 12.564 65.187 12.712 65.067 12.832C64.955 12.944 64.815 13 64.647 13C64.471 13 64.327 12.944 64.215 12.832C64.103 12.712 64.047 12.564 64.047 12.388V7.3C64.047 7.124 64.103 6.98 64.215 6.868C64.327 6.748 64.471 6.688 64.647 6.688C64.815 6.688 64.955 6.748 65.067 6.868C65.187 6.98 65.247 7.124 65.247 7.3V8.008L65.019 8.14C65.075 7.964 65.167 7.784 65.295 7.6C65.423 7.416 65.583 7.248 65.775 7.096C65.975 6.944 66.195 6.82 66.435 6.724C66.675 6.628 66.935 6.58 67.215 6.58ZM81.1224 9.844C81.1224 10.484 80.9824 11.052 80.7024 11.548C80.4224 12.036 80.0424 12.42 79.5624 12.7C79.0824 12.98 78.5424 13.12 77.9424 13.12C77.3424 13.12 76.8024 12.98 76.3224 12.7C75.8424 12.42 75.4584 12.036 75.1704 11.548C74.8904 11.052 74.7504 10.484 74.7504 9.844C74.7504 9.196 74.8904 8.628 75.1704 8.14C75.4584 7.644 75.8424 7.256 76.3224 6.976C76.8024 6.688 77.3424 6.544 77.9424 6.544C78.5424 6.544 79.0824 6.688 79.5624 6.976C80.0424 7.256 80.4224 7.644 80.7024 8.14C80.9824 8.628 81.1224 9.196 81.1224 9.844ZM79.9224 9.844C79.9224 9.404 79.8344 9.024 79.6584 8.704C79.4824 8.376 79.2424 8.12 78.9384 7.936C78.6424 7.744 78.3104 7.648 77.9424 7.648C77.5744 7.648 77.2384 7.744 76.9344 7.936C76.6304 8.12 76.3904 8.376 76.2144 8.704C76.0384 9.024 75.9504 9.404 75.9504 9.844C75.9504 10.268 76.0384 10.644 76.2144 10.972C76.3904 11.3 76.6304 11.556 76.9344 11.74C77.2384 11.924 77.5744 12.016 77.9424 12.016C78.3104 12.016 78.6424 11.924 78.9384 11.74C79.2424 11.556 79.4824 11.3 79.6584 10.972C79.8344 10.644 79.9224 10.268 79.9224 9.844ZM83.0806 13C82.9046 13 82.7606 12.944 82.6486 12.832C82.5366 12.712 82.4806 12.564 82.4806 12.388V7.3C82.4806 7.124 82.5366 6.98 82.6486 6.868C82.7606 6.748 82.9046 6.688 83.0806 6.688C83.2486 6.688 83.3886 6.748 83.5006 6.868C83.6206 6.98 83.6806 7.124 83.6806 7.3V8.644L83.5606 8.128C83.6246 7.904 83.7206 7.696 83.8486 7.504C83.9846 7.312 84.1446 7.144 84.3286 7C84.5126 6.856 84.7166 6.744 84.9406 6.664C85.1726 6.584 85.4126 6.544 85.6606 6.544C85.8686 6.544 86.0486 6.6 86.2006 6.712C86.3526 6.824 86.4286 6.964 86.4286 7.132C86.4286 7.348 86.3726 7.508 86.2606 7.612C86.1486 7.708 86.0246 7.756 85.8886 7.756C85.7686 7.756 85.6526 7.732 85.5406 7.684C85.4286 7.628 85.2966 7.6 85.1446 7.6C84.9766 7.6 84.8046 7.644 84.6286 7.732C84.4526 7.82 84.2926 7.952 84.1486 8.128C84.0046 8.296 83.8886 8.496 83.8006 8.728C83.7206 8.96 83.6806 9.22 83.6806 9.508V12.388C83.6806 12.564 83.6206 12.712 83.5006 12.832C83.3886 12.944 83.2486 13 83.0806 13ZM90.1667 13.12C89.5027 13.12 88.9267 12.984 88.4387 12.712C87.9507 12.432 87.5707 12.052 87.2987 11.572C87.0347 11.084 86.9027 10.528 86.9027 9.904C86.9027 9.2 87.0427 8.6 87.3227 8.104C87.6107 7.6 87.9827 7.216 88.4387 6.952C88.8947 6.68 89.3787 6.544 89.8907 6.544C90.2827 6.544 90.6547 6.624 91.0067 6.784C91.3587 6.936 91.6707 7.152 91.9427 7.432C92.2227 7.704 92.4427 8.028 92.6027 8.404C92.7627 8.772 92.8467 9.176 92.8547 9.616C92.8467 9.776 92.7827 9.908 92.6627 10.012C92.5427 10.116 92.4027 10.168 92.2427 10.168H87.5747L87.2867 9.148H91.7987L91.5707 9.364V9.064C91.5547 8.784 91.4627 8.54 91.2947 8.332C91.1267 8.116 90.9187 7.952 90.6707 7.84C90.4227 7.72 90.1627 7.66 89.8907 7.66C89.6507 7.66 89.4187 7.7 89.1947 7.78C88.9787 7.852 88.7827 7.972 88.6067 8.14C88.4387 8.308 88.3027 8.532 88.1987 8.812C88.1027 9.084 88.0547 9.424 88.0547 9.832C88.0547 10.272 88.1467 10.656 88.3307 10.984C88.5147 11.312 88.7627 11.568 89.0747 11.752C89.3867 11.928 89.7307 12.016 90.1067 12.016C90.4027 12.016 90.6467 11.988 90.8387 11.932C91.0307 11.868 91.1907 11.792 91.3187 11.704C91.4467 11.616 91.5587 11.532 91.6547 11.452C91.7747 11.38 91.8947 11.344 92.0147 11.344C92.1587 11.344 92.2787 11.396 92.3747 11.5C92.4707 11.596 92.5187 11.712 92.5187 11.848C92.5187 12.024 92.4307 12.184 92.2547 12.328C92.0387 12.536 91.7387 12.72 91.3547 12.88C90.9787 13.04 90.5827 13.12 90.1667 13.12ZM100.731 6.544C101.291 6.544 101.787 6.684 102.219 6.964C102.659 7.244 103.007 7.632 103.263 8.128C103.519 8.616 103.647 9.18 103.647 9.82C103.647 10.46 103.519 11.028 103.263 11.524C103.007 12.02 102.663 12.412 102.231 12.7C101.799 12.98 101.311 13.12 100.767 13.12C100.463 13.12 100.175 13.072 99.9029 12.976C99.6309 12.872 99.3909 12.744 99.1829 12.592C98.9749 12.432 98.8029 12.264 98.6669 12.088C98.5389 11.912 98.4589 11.748 98.4269 11.596L98.7509 11.44V12.484C98.7509 12.652 98.6909 12.796 98.5709 12.916C98.4589 13.028 98.3189 13.084 98.1509 13.084C97.9749 13.084 97.8309 13.028 97.7189 12.916C97.6069 12.804 97.5509 12.66 97.5509 12.484V4.732C97.5509 4.556 97.6069 4.412 97.7189 4.3C97.8309 4.18 97.9749 4.12 98.1509 4.12C98.3189 4.12 98.4589 4.18 98.5709 4.3C98.6909 4.412 98.7509 4.556 98.7509 4.732V8.104L98.5589 7.996C98.5829 7.844 98.6589 7.688 98.7869 7.528C98.9149 7.36 99.0749 7.2 99.2669 7.048C99.4669 6.896 99.6909 6.776 99.9389 6.688C100.195 6.592 100.459 6.544 100.731 6.544ZM100.599 7.648C100.215 7.648 99.8789 7.744 99.5909 7.936C99.3109 8.128 99.0909 8.388 98.9309 8.716C98.7709 9.036 98.6909 9.404 98.6909 9.82C98.6909 10.236 98.7709 10.612 98.9309 10.948C99.0909 11.276 99.3109 11.536 99.5909 11.728C99.8789 11.92 100.215 12.016 100.599 12.016C100.975 12.016 101.303 11.92 101.583 11.728C101.863 11.536 102.083 11.272 102.243 10.936C102.411 10.6 102.495 10.228 102.495 9.82C102.495 9.404 102.411 9.036 102.243 8.716C102.083 8.388 101.863 8.128 101.583 7.936C101.303 7.744 100.975 7.648 100.599 7.648ZM109.696 6.64C109.872 6.64 110.016 6.7 110.128 6.82C110.24 6.932 110.296 7.076 110.296 7.252V12.412C110.296 13.116 110.16 13.688 109.888 14.128C109.624 14.568 109.264 14.888 108.808 15.088C108.36 15.296 107.852 15.4 107.284 15.4C106.996 15.4 106.708 15.372 106.42 15.316C106.132 15.268 105.896 15.196 105.712 15.1C105.52 15.012 105.384 14.904 105.304 14.776C105.224 14.648 105.212 14.508 105.268 14.356C105.324 14.164 105.42 14.032 105.556 13.96C105.692 13.896 105.832 13.892 105.976 13.948C106.112 14.004 106.292 14.076 106.516 14.164C106.74 14.252 106.996 14.296 107.284 14.296C107.676 14.296 108.008 14.232 108.28 14.104C108.552 13.976 108.756 13.776 108.892 13.504C109.036 13.232 109.108 12.88 109.108 12.448V11.62L109.3 11.908C109.172 12.172 109.004 12.392 108.796 12.568C108.588 12.744 108.34 12.88 108.052 12.976C107.772 13.072 107.46 13.12 107.116 13.12C106.676 13.12 106.296 13.024 105.976 12.832C105.664 12.632 105.424 12.36 105.256 12.016C105.088 11.664 105.004 11.264 105.004 10.816V7.252C105.004 7.076 105.06 6.932 105.172 6.82C105.284 6.7 105.428 6.64 105.604 6.64C105.772 6.64 105.912 6.7 106.024 6.82C106.144 6.932 106.204 7.076 106.204 7.252V10.492C106.204 11.02 106.32 11.408 106.552 11.656C106.784 11.896 107.128 12.016 107.584 12.016C107.888 12.016 108.152 11.952 108.376 11.824C108.6 11.696 108.776 11.52 108.904 11.296C109.032 11.064 109.096 10.796 109.096 10.492V7.252C109.096 7.076 109.152 6.932 109.264 6.82C109.384 6.7 109.528 6.64 109.696 6.64ZM115.917 13C115.741 13 115.597 12.944 115.485 12.832C115.373 12.712 115.317 12.564 115.317 12.388V7.3C115.317 7.124 115.373 6.98 115.485 6.868C115.597 6.748 115.741 6.688 115.917 6.688C116.085 6.688 116.225 6.748 116.337 6.868C116.457 6.98 116.517 7.124 116.517 7.3V8.644L116.397 8.128C116.461 7.904 116.557 7.696 116.685 7.504C116.821 7.312 116.981 7.144 117.165 7C117.349 6.856 117.553 6.744 117.777 6.664C118.009 6.584 118.249 6.544 118.497 6.544C118.705 6.544 118.885 6.6 119.037 6.712C119.189 6.824 119.265 6.964 119.265 7.132C119.265 7.348 119.209 7.508 119.097 7.612C118.985 7.708 118.861 7.756 118.725 7.756C118.605 7.756 118.489 7.732 118.377 7.684C118.265 7.628 118.133 7.6 117.981 7.6C117.813 7.6 117.641 7.644 117.465 7.732C117.289 7.82 117.129 7.952 116.985 8.128C116.841 8.296 116.725 8.496 116.637 8.728C116.557 8.96 116.517 9.22 116.517 9.508V12.388C116.517 12.564 116.457 12.712 116.337 12.832C116.225 12.944 116.085 13 115.917 13ZM123.003 13.12C122.339 13.12 121.763 12.984 121.275 12.712C120.787 12.432 120.407 12.052 120.135 11.572C119.871 11.084 119.739 10.528 119.739 9.904C119.739 9.2 119.879 8.6 120.159 8.104C120.447 7.6 120.819 7.216 121.275 6.952C121.731 6.68 122.215 6.544 122.727 6.544C123.119 6.544 123.491 6.624 123.843 6.784C124.195 6.936 124.507 7.152 124.779 7.432C125.059 7.704 125.279 8.028 125.439 8.404C125.599 8.772 125.683 9.176 125.691 9.616C125.683 9.776 125.619 9.908 125.499 10.012C125.379 10.116 125.239 10.168 125.079 10.168H120.411L120.123 9.148H124.635L124.407 9.364V9.064C124.391 8.784 124.299 8.54 124.131 8.332C123.963 8.116 123.755 7.952 123.507 7.84C123.259 7.72 122.999 7.66 122.727 7.66C122.487 7.66 122.255 7.7 122.031 7.78C121.815 7.852 121.619 7.972 121.443 8.14C121.275 8.308 121.139 8.532 121.035 8.812C120.939 9.084 120.891 9.424 120.891 9.832C120.891 10.272 120.983 10.656 121.167 10.984C121.351 11.312 121.599 11.568 121.911 11.752C122.223 11.928 122.567 12.016 122.943 12.016C123.239 12.016 123.483 11.988 123.675 11.932C123.867 11.868 124.027 11.792 124.155 11.704C124.283 11.616 124.395 11.532 124.491 11.452C124.611 11.38 124.731 11.344 124.851 11.344C124.995 11.344 125.115 11.396 125.211 11.5C125.307 11.596 125.355 11.712 125.355 11.848C125.355 12.024 125.267 12.184 125.091 12.328C124.875 12.536 124.575 12.72 124.191 12.88C123.815 13.04 123.419 13.12 123.003 13.12ZM126.963 6.76H129.783C129.943 6.76 130.075 6.816 130.179 6.928C130.291 7.032 130.347 7.164 130.347 7.324C130.347 7.476 130.291 7.604 130.179 7.708C130.075 7.812 129.943 7.864 129.783 7.864H126.963C126.803 7.864 126.667 7.812 126.555 7.708C126.451 7.596 126.399 7.464 126.399 7.312C126.399 7.152 126.451 7.02 126.555 6.916C126.667 6.812 126.803 6.76 126.963 6.76ZM128.223 5.2C128.399 5.2 128.543 5.26 128.655 5.38C128.767 5.492 128.823 5.636 128.823 5.812V11.38C128.823 11.524 128.847 11.64 128.895 11.728C128.943 11.816 129.007 11.876 129.087 11.908C129.175 11.94 129.263 11.956 129.351 11.956C129.439 11.956 129.515 11.94 129.579 11.908C129.651 11.876 129.735 11.86 129.831 11.86C129.927 11.86 130.015 11.904 130.095 11.992C130.175 12.08 130.215 12.2 130.215 12.352C130.215 12.544 130.111 12.7 129.903 12.82C129.695 12.94 129.471 13 129.231 13C129.095 13 128.935 12.988 128.751 12.964C128.567 12.94 128.387 12.88 128.211 12.784C128.043 12.688 127.903 12.536 127.791 12.328C127.679 12.112 127.623 11.812 127.623 11.428V5.812C127.623 5.636 127.679 5.492 127.791 5.38C127.911 5.26 128.055 5.2 128.223 5.2ZM136.38 6.688C136.548 6.688 136.688 6.748 136.8 6.868C136.92 6.98 136.98 7.124 136.98 7.3V10.456C136.98 11.288 136.748 11.94 136.284 12.412C135.82 12.876 135.164 13.108 134.316 13.108C133.476 13.108 132.824 12.876 132.36 12.412C131.904 11.94 131.676 11.288 131.676 10.456V7.3C131.676 7.124 131.732 6.98 131.844 6.868C131.956 6.748 132.1 6.688 132.276 6.688C132.444 6.688 132.584 6.748 132.696 6.868C132.816 6.98 132.876 7.124 132.876 7.3V10.456C132.876 10.976 132.996 11.364 133.236 11.62C133.484 11.876 133.844 12.004 134.316 12.004C134.796 12.004 135.16 11.876 135.408 11.62C135.656 11.364 135.78 10.976 135.78 10.456V7.3C135.78 7.124 135.836 6.98 135.948 6.868C136.06 6.748 136.204 6.688 136.38 6.688ZM139.249 13C139.073 13 138.929 12.944 138.817 12.832C138.705 12.712 138.649 12.564 138.649 12.388V7.3C138.649 7.124 138.705 6.98 138.817 6.868C138.929 6.748 139.073 6.688 139.249 6.688C139.417 6.688 139.557 6.748 139.669 6.868C139.789 6.98 139.849 7.124 139.849 7.3V8.644L139.729 8.128C139.793 7.904 139.889 7.696 140.017 7.504C140.153 7.312 140.313 7.144 140.497 7C140.681 6.856 140.885 6.744 141.109 6.664C141.341 6.584 141.581 6.544 141.829 6.544C142.037 6.544 142.217 6.6 142.369 6.712C142.521 6.824 142.597 6.964 142.597 7.132C142.597 7.348 142.541 7.508 142.429 7.612C142.317 7.708 142.193 7.756 142.057 7.756C141.937 7.756 141.821 7.732 141.709 7.684C141.597 7.628 141.465 7.6 141.313 7.6C141.145 7.6 140.973 7.644 140.797 7.732C140.621 7.82 140.461 7.952 140.317 8.128C140.173 8.296 140.057 8.496 139.969 8.728C139.889 8.96 139.849 9.22 139.849 9.508V12.388C139.849 12.564 139.789 12.712 139.669 12.832C139.557 12.944 139.417 13 139.249 13ZM146.916 6.544C147.484 6.544 147.924 6.664 148.236 6.904C148.548 7.136 148.764 7.452 148.884 7.852C149.012 8.244 149.076 8.684 149.076 9.172V12.388C149.076 12.564 149.016 12.712 148.896 12.832C148.784 12.944 148.644 13 148.476 13C148.3 13 148.156 12.944 148.044 12.832C147.932 12.712 147.876 12.564 147.876 12.388V9.184C147.876 8.896 147.836 8.64 147.756 8.416C147.676 8.184 147.536 8 147.336 7.864C147.144 7.72 146.872 7.648 146.52 7.648C146.192 7.648 145.904 7.72 145.656 7.864C145.408 8 145.212 8.184 145.068 8.416C144.932 8.64 144.864 8.896 144.864 9.184V12.388C144.864 12.564 144.804 12.712 144.684 12.832C144.572 12.944 144.432 13 144.264 13C144.088 13 143.944 12.944 143.832 12.832C143.72 12.712 143.664 12.564 143.664 12.388V7.3C143.664 7.124 143.72 6.98 143.832 6.868C143.944 6.748 144.088 6.688 144.264 6.688C144.432 6.688 144.572 6.748 144.684 6.868C144.804 6.98 144.864 7.124 144.864 7.3V7.972L144.648 8.092C144.704 7.916 144.8 7.74 144.936 7.564C145.08 7.38 145.252 7.212 145.452 7.06C145.652 6.9 145.876 6.776 146.124 6.688C146.372 6.592 146.636 6.544 146.916 6.544ZM151.87 12.388C151.87 12.564 151.814 12.712 151.702 12.832C151.59 12.944 151.446 13 151.27 13C151.102 13 150.958 12.944 150.838 12.832C150.726 12.712 150.67 12.564 150.67 12.388V7.252C150.67 7.076 150.726 6.932 150.838 6.82C150.958 6.7 151.102 6.64 151.27 6.64C151.446 6.64 151.59 6.7 151.702 6.82C151.814 6.932 151.87 7.076 151.87 7.252V12.388ZM151.258 5.848C151.026 5.848 150.858 5.808 150.754 5.728C150.65 5.64 150.598 5.496 150.598 5.296V5.104C150.598 4.904 150.654 4.764 150.766 4.684C150.878 4.604 151.046 4.564 151.27 4.564C151.51 4.564 151.682 4.608 151.786 4.696C151.89 4.776 151.942 4.912 151.942 5.104V5.296C151.942 5.504 151.886 5.648 151.774 5.728C151.67 5.808 151.498 5.848 151.258 5.848ZM156.737 6.544C157.305 6.544 157.745 6.664 158.057 6.904C158.369 7.136 158.585 7.452 158.705 7.852C158.833 8.244 158.897 8.684 158.897 9.172V12.388C158.897 12.564 158.837 12.712 158.717 12.832C158.605 12.944 158.465 13 158.297 13C158.121 13 157.977 12.944 157.865 12.832C157.753 12.712 157.697 12.564 157.697 12.388V9.184C157.697 8.896 157.657 8.64 157.577 8.416C157.497 8.184 157.357 8 157.157 7.864C156.965 7.72 156.693 7.648 156.341 7.648C156.013 7.648 155.725 7.72 155.477 7.864C155.229 8 155.033 8.184 154.889 8.416C154.753 8.64 154.685 8.896 154.685 9.184V12.388C154.685 12.564 154.625 12.712 154.505 12.832C154.393 12.944 154.253 13 154.085 13C153.909 13 153.765 12.944 153.653 12.832C153.541 12.712 153.485 12.564 153.485 12.388V7.3C153.485 7.124 153.541 6.98 153.653 6.868C153.765 6.748 153.909 6.688 154.085 6.688C154.253 6.688 154.393 6.748 154.505 6.868C154.625 6.98 154.685 7.124 154.685 7.3V7.972L154.469 8.092C154.525 7.916 154.621 7.74 154.757 7.564C154.901 7.38 155.073 7.212 155.273 7.06C155.473 6.9 155.697 6.776 155.945 6.688C156.193 6.592 156.457 6.544 156.737 6.544ZM163.191 6.544C163.535 6.544 163.851 6.6 164.139 6.712C164.427 6.824 164.675 6.968 164.883 7.144C165.099 7.312 165.267 7.488 165.387 7.672C165.507 7.856 165.567 8.016 165.567 8.152L165.291 8.164V7.204C165.291 7.036 165.347 6.892 165.459 6.772C165.571 6.652 165.715 6.592 165.891 6.592C166.067 6.592 166.211 6.652 166.323 6.772C166.435 6.884 166.491 7.028 166.491 7.204V12.496C166.491 13.176 166.347 13.728 166.059 14.152C165.771 14.584 165.387 14.9 164.907 15.1C164.435 15.3 163.915 15.4 163.347 15.4C163.147 15.4 162.911 15.372 162.639 15.316C162.367 15.268 162.115 15.208 161.883 15.136C161.659 15.064 161.503 14.992 161.415 14.92C161.231 14.824 161.107 14.712 161.043 14.584C160.987 14.456 160.987 14.328 161.043 14.2C161.123 14.024 161.231 13.916 161.367 13.876C161.503 13.836 161.659 13.848 161.835 13.912C161.915 13.936 162.039 13.98 162.207 14.044C162.375 14.108 162.563 14.164 162.771 14.212C162.979 14.268 163.175 14.296 163.359 14.296C163.999 14.296 164.479 14.148 164.799 13.852C165.127 13.556 165.291 13.152 165.291 12.64V11.56L165.423 11.644C165.399 11.812 165.323 11.984 165.195 12.16C165.075 12.328 164.915 12.484 164.715 12.628C164.515 12.772 164.283 12.892 164.019 12.988C163.763 13.076 163.499 13.12 163.227 13.12C162.659 13.12 162.151 12.98 161.703 12.7C161.255 12.412 160.899 12.024 160.635 11.536C160.371 11.04 160.239 10.472 160.239 9.832C160.239 9.192 160.371 8.628 160.635 8.14C160.899 7.644 161.251 7.256 161.691 6.976C162.139 6.688 162.639 6.544 163.191 6.544ZM163.371 7.648C162.979 7.648 162.635 7.744 162.339 7.936C162.043 8.128 161.811 8.388 161.643 8.716C161.475 9.044 161.391 9.416 161.391 9.832C161.391 10.248 161.475 10.62 161.643 10.948C161.811 11.276 162.043 11.536 162.339 11.728C162.635 11.92 162.979 12.016 163.371 12.016C163.763 12.016 164.107 11.924 164.403 11.74C164.699 11.548 164.931 11.288 165.099 10.96C165.267 10.624 165.351 10.248 165.351 9.832C165.351 9.416 165.267 9.044 165.099 8.716C164.931 8.38 164.699 8.12 164.403 7.936C164.107 7.744 163.763 7.648 163.371 7.648ZM35.636 22.544C36.068 22.544 36.452 22.592 36.788 22.688C37.124 22.776 37.384 22.904 37.568 23.072C37.76 23.232 37.856 23.42 37.856 23.636C37.856 23.772 37.816 23.9 37.736 24.02C37.656 24.132 37.536 24.188 37.376 24.188C37.264 24.188 37.168 24.168 37.088 24.128C37.016 24.088 36.948 24.04 36.884 23.984C36.82 23.928 36.74 23.872 36.644 23.816C36.556 23.768 36.424 23.728 36.248 23.696C36.08 23.664 35.928 23.648 35.792 23.648C35.368 23.648 35 23.744 34.688 23.936C34.384 24.128 34.144 24.388 33.968 24.716C33.8 25.044 33.716 25.416 33.716 25.832C33.716 26.248 33.8 26.62 33.968 26.948C34.144 27.276 34.38 27.536 34.676 27.728C34.98 27.92 35.332 28.016 35.732 28.016C35.972 28.016 36.168 28 36.32 27.968C36.472 27.928 36.604 27.88 36.716 27.824C36.836 27.752 36.936 27.68 37.016 27.608C37.104 27.528 37.224 27.488 37.376 27.488C37.552 27.488 37.684 27.544 37.772 27.656C37.868 27.76 37.916 27.892 37.916 28.052C37.916 28.228 37.808 28.4 37.592 28.568C37.384 28.728 37.104 28.86 36.752 28.964C36.4 29.068 36.012 29.12 35.588 29.12C34.964 29.12 34.42 28.976 33.956 28.688C33.5 28.4 33.144 28.008 32.888 27.512C32.64 27.016 32.516 26.456 32.516 25.832C32.516 25.2 32.648 24.64 32.912 24.152C33.176 23.656 33.544 23.264 34.016 22.976C34.488 22.688 35.028 22.544 35.636 22.544ZM44.2347 22.592C44.4107 22.592 44.5547 22.652 44.6667 22.772C44.7787 22.884 44.8347 23.028 44.8347 23.204V28.388C44.8347 28.564 44.7787 28.712 44.6667 28.832C44.5547 28.944 44.4107 29 44.2347 29C44.0667 29 43.9227 28.944 43.8027 28.832C43.6907 28.712 43.6347 28.564 43.6347 28.388V27.524L43.8867 27.56C43.8867 27.704 43.8267 27.864 43.7067 28.04C43.5947 28.216 43.4387 28.388 43.2387 28.556C43.0387 28.716 42.8027 28.852 42.5307 28.964C42.2587 29.068 41.9667 29.12 41.6547 29.12C41.1027 29.12 40.6067 28.98 40.1667 28.7C39.7267 28.412 39.3787 28.02 39.1227 27.524C38.8667 27.028 38.7387 26.464 38.7387 25.832C38.7387 25.184 38.8667 24.616 39.1227 24.128C39.3787 23.632 39.7227 23.244 40.1547 22.964C40.5947 22.684 41.0827 22.544 41.6187 22.544C41.9627 22.544 42.2787 22.6 42.5667 22.712C42.8627 22.824 43.1187 22.968 43.3347 23.144C43.5507 23.32 43.7147 23.508 43.8267 23.708C43.9467 23.9 44.0067 24.084 44.0067 24.26L43.6347 24.296V23.204C43.6347 23.036 43.6907 22.892 43.8027 22.772C43.9227 22.652 44.0667 22.592 44.2347 22.592ZM41.7867 28.016C42.1627 28.016 42.4947 27.92 42.7827 27.728C43.0707 27.536 43.2947 27.276 43.4547 26.948C43.6147 26.612 43.6947 26.24 43.6947 25.832C43.6947 25.416 43.6147 25.044 43.4547 24.716C43.2947 24.388 43.0707 24.128 42.7827 23.936C42.4947 23.744 42.1627 23.648 41.7867 23.648C41.4187 23.648 41.0907 23.744 40.8027 23.936C40.5227 24.128 40.2987 24.388 40.1307 24.716C39.9707 25.044 39.8907 25.416 39.8907 25.832C39.8907 26.24 39.9707 26.612 40.1307 26.948C40.2987 27.276 40.5227 27.536 40.8027 27.728C41.0907 27.92 41.4187 28.016 41.7867 28.016ZM46.1438 28.016C46.0718 27.904 46.0398 27.776 46.0478 27.632C46.0558 27.48 46.1398 27.352 46.2998 27.248C46.4118 27.176 46.5278 27.148 46.6478 27.164C46.7758 27.172 46.8958 27.232 47.0078 27.344C47.2318 27.592 47.4798 27.788 47.7518 27.932C48.0318 28.076 48.3678 28.148 48.7598 28.148C48.9198 28.14 49.0838 28.116 49.2518 28.076C49.4198 28.028 49.5638 27.948 49.6838 27.836C49.8038 27.716 49.8638 27.544 49.8638 27.32C49.8638 27.12 49.7998 26.96 49.6718 26.84C49.5438 26.72 49.3758 26.624 49.1678 26.552C48.9598 26.472 48.7358 26.4 48.4958 26.336C48.2398 26.264 47.9798 26.184 47.7158 26.096C47.4598 26.008 47.2278 25.896 47.0198 25.76C46.8118 25.616 46.6398 25.432 46.5038 25.208C46.3758 24.984 46.3118 24.708 46.3118 24.38C46.3118 24.004 46.4158 23.68 46.6238 23.408C46.8398 23.136 47.1158 22.924 47.4518 22.772C47.7958 22.62 48.1678 22.544 48.5678 22.544C48.7998 22.544 49.0438 22.576 49.2998 22.64C49.5558 22.696 49.8038 22.788 50.0438 22.916C50.2838 23.044 50.4918 23.212 50.6678 23.42C50.7478 23.524 50.7918 23.648 50.7998 23.792C50.8158 23.936 50.7518 24.064 50.6078 24.176C50.5118 24.256 50.3958 24.292 50.2598 24.284C50.1238 24.276 50.0118 24.232 49.9238 24.152C49.7718 23.96 49.5758 23.812 49.3358 23.708C49.0958 23.596 48.8238 23.54 48.5198 23.54C48.3678 23.54 48.2078 23.564 48.0398 23.612C47.8798 23.652 47.7438 23.728 47.6318 23.84C47.5198 23.952 47.4638 24.116 47.4638 24.332C47.4638 24.532 47.5278 24.692 47.6558 24.812C47.7918 24.932 47.9678 25.032 48.1838 25.112C48.3998 25.192 48.6358 25.264 48.8918 25.328C49.1398 25.392 49.3838 25.468 49.6238 25.556C49.8718 25.644 50.0918 25.76 50.2838 25.904C50.4838 26.04 50.6438 26.22 50.7638 26.444C50.8918 26.66 50.9558 26.936 50.9558 27.272C50.9558 27.664 50.8398 28 50.6078 28.28C50.3838 28.552 50.0958 28.76 49.7438 28.904C49.3998 29.048 49.0358 29.12 48.6518 29.12C48.1958 29.12 47.7398 29.04 47.2838 28.88C46.8358 28.712 46.4558 28.424 46.1438 28.016ZM55.4263 22.58C55.9783 22.58 56.4063 22.7 56.7103 22.94C57.0143 23.172 57.2263 23.488 57.3463 23.888C57.4743 24.288 57.5383 24.728 57.5383 25.208V28.388C57.5383 28.564 57.4783 28.712 57.3583 28.832C57.2463 28.944 57.1063 29 56.9383 29C56.7623 29 56.6183 28.944 56.5063 28.832C56.3943 28.712 56.3383 28.564 56.3383 28.388V25.208C56.3383 24.928 56.2983 24.672 56.2183 24.44C56.1463 24.208 56.0143 24.024 55.8223 23.888C55.6383 23.752 55.3783 23.684 55.0423 23.684C54.7303 23.684 54.4503 23.752 54.2023 23.888C53.9623 24.024 53.7743 24.208 53.6383 24.44C53.5103 24.672 53.4463 24.928 53.4463 25.208V28.388C53.4463 28.564 53.3863 28.712 53.2663 28.832C53.1543 28.944 53.0143 29 52.8463 29C52.6703 29 52.5263 28.944 52.4143 28.832C52.3023 28.712 52.2463 28.564 52.2463 28.388V20.732C52.2463 20.556 52.3023 20.412 52.4143 20.3C52.5263 20.18 52.6703 20.12 52.8463 20.12C53.0143 20.12 53.1543 20.18 53.2663 20.3C53.3863 20.412 53.4463 20.556 53.4463 20.732V24.008L53.2303 24.128C53.2863 23.952 53.3783 23.772 53.5063 23.588C53.6423 23.404 53.8063 23.236 53.9983 23.084C54.1983 22.932 54.4183 22.812 54.6583 22.724C54.8983 22.628 55.1543 22.58 55.4263 22.58ZM62.3872 22.544C62.9472 22.544 63.4432 22.684 63.8752 22.964C64.3152 23.244 64.6632 23.632 64.9192 24.128C65.1752 24.616 65.3032 25.18 65.3032 25.82C65.3032 26.46 65.1752 27.028 64.9192 27.524C64.6632 28.02 64.3192 28.412 63.8872 28.7C63.4552 28.98 62.9672 29.12 62.4232 29.12C62.1192 29.12 61.8312 29.072 61.5592 28.976C61.2872 28.872 61.0472 28.744 60.8392 28.592C60.6312 28.432 60.4592 28.264 60.3232 28.088C60.1952 27.912 60.1152 27.748 60.0832 27.596L60.4072 27.44V28.484C60.4072 28.652 60.3472 28.796 60.2272 28.916C60.1152 29.028 59.9752 29.084 59.8072 29.084C59.6312 29.084 59.4872 29.028 59.3752 28.916C59.2632 28.804 59.2072 28.66 59.2072 28.484V20.732C59.2072 20.556 59.2632 20.412 59.3752 20.3C59.4872 20.18 59.6312 20.12 59.8072 20.12C59.9752 20.12 60.1152 20.18 60.2272 20.3C60.3472 20.412 60.4072 20.556 60.4072 20.732V24.104L60.2152 23.996C60.2392 23.844 60.3152 23.688 60.4432 23.528C60.5712 23.36 60.7312 23.2 60.9232 23.048C61.1232 22.896 61.3472 22.776 61.5952 22.688C61.8512 22.592 62.1152 22.544 62.3872 22.544ZM62.2552 23.648C61.8712 23.648 61.5352 23.744 61.2472 23.936C60.9672 24.128 60.7472 24.388 60.5872 24.716C60.4272 25.036 60.3472 25.404 60.3472 25.82C60.3472 26.236 60.4272 26.612 60.5872 26.948C60.7472 27.276 60.9672 27.536 61.2472 27.728C61.5352 27.92 61.8712 28.016 62.2552 28.016C62.6312 28.016 62.9592 27.92 63.2392 27.728C63.5192 27.536 63.7392 27.272 63.8992 26.936C64.0672 26.6 64.1512 26.228 64.1512 25.82C64.1512 25.404 64.0672 25.036 63.8992 24.716C63.7392 24.388 63.5192 24.128 63.2392 23.936C62.9592 23.744 62.6312 23.648 62.2552 23.648ZM71.8323 22.592C72.0083 22.592 72.1523 22.652 72.2643 22.772C72.3763 22.884 72.4323 23.028 72.4323 23.204V28.388C72.4323 28.564 72.3763 28.712 72.2643 28.832C72.1523 28.944 72.0083 29 71.8323 29C71.6643 29 71.5203 28.944 71.4003 28.832C71.2883 28.712 71.2323 28.564 71.2323 28.388V27.524L71.4843 27.56C71.4843 27.704 71.4243 27.864 71.3043 28.04C71.1923 28.216 71.0363 28.388 70.8363 28.556C70.6363 28.716 70.4003 28.852 70.1283 28.964C69.8563 29.068 69.5643 29.12 69.2523 29.12C68.7003 29.12 68.2043 28.98 67.7643 28.7C67.3243 28.412 66.9763 28.02 66.7203 27.524C66.4643 27.028 66.3363 26.464 66.3363 25.832C66.3363 25.184 66.4643 24.616 66.7203 24.128C66.9763 23.632 67.3203 23.244 67.7523 22.964C68.1923 22.684 68.6803 22.544 69.2163 22.544C69.5603 22.544 69.8763 22.6 70.1643 22.712C70.4603 22.824 70.7163 22.968 70.9323 23.144C71.1483 23.32 71.3123 23.508 71.4243 23.708C71.5443 23.9 71.6043 24.084 71.6043 24.26L71.2323 24.296V23.204C71.2323 23.036 71.2883 22.892 71.4003 22.772C71.5203 22.652 71.6643 22.592 71.8323 22.592ZM69.3843 28.016C69.7603 28.016 70.0923 27.92 70.3803 27.728C70.6683 27.536 70.8923 27.276 71.0523 26.948C71.2123 26.612 71.2923 26.24 71.2923 25.832C71.2923 25.416 71.2123 25.044 71.0523 24.716C70.8923 24.388 70.6683 24.128 70.3803 23.936C70.0923 23.744 69.7603 23.648 69.3843 23.648C69.0163 23.648 68.6883 23.744 68.4003 23.936C68.1203 24.128 67.8963 24.388 67.7283 24.716C67.5683 25.044 67.4883 25.416 67.4883 25.832C67.4883 26.24 67.5683 26.612 67.7283 26.948C67.8963 27.276 68.1203 27.536 68.4003 27.728C68.6883 27.92 69.0163 28.016 69.3843 28.016ZM76.9094 22.544C77.3414 22.544 77.7254 22.592 78.0614 22.688C78.3974 22.776 78.6574 22.904 78.8414 23.072C79.0334 23.232 79.1294 23.42 79.1294 23.636C79.1294 23.772 79.0894 23.9 79.0094 24.02C78.9294 24.132 78.8094 24.188 78.6494 24.188C78.5374 24.188 78.4414 24.168 78.3614 24.128C78.2894 24.088 78.2214 24.04 78.1574 23.984C78.0934 23.928 78.0134 23.872 77.9174 23.816C77.8294 23.768 77.6974 23.728 77.5214 23.696C77.3534 23.664 77.2014 23.648 77.0654 23.648C76.6414 23.648 76.2734 23.744 75.9614 23.936C75.6574 24.128 75.4174 24.388 75.2414 24.716C75.0734 25.044 74.9894 25.416 74.9894 25.832C74.9894 26.248 75.0734 26.62 75.2414 26.948C75.4174 27.276 75.6534 27.536 75.9494 27.728C76.2534 27.92 76.6054 28.016 77.0054 28.016C77.2454 28.016 77.4414 28 77.5934 27.968C77.7454 27.928 77.8774 27.88 77.9894 27.824C78.1094 27.752 78.2094 27.68 78.2894 27.608C78.3774 27.528 78.4974 27.488 78.6494 27.488C78.8254 27.488 78.9574 27.544 79.0454 27.656C79.1414 27.76 79.1894 27.892 79.1894 28.052C79.1894 28.228 79.0814 28.4 78.8654 28.568C78.6574 28.728 78.3774 28.86 78.0254 28.964C77.6734 29.068 77.2854 29.12 76.8614 29.12C76.2374 29.12 75.6934 28.976 75.2294 28.688C74.7734 28.4 74.4174 28.008 74.1614 27.512C73.9134 27.016 73.7894 26.456 73.7894 25.832C73.7894 25.2 73.9214 24.64 74.1854 24.152C74.4494 23.656 74.8174 23.264 75.2894 22.976C75.7614 22.688 76.3014 22.544 76.9094 22.544ZM81.0321 29C80.8641 29 80.7201 28.944 80.6001 28.832C80.4881 28.712 80.4321 28.564 80.4321 28.388V20.732C80.4321 20.556 80.4881 20.412 80.6001 20.3C80.7201 20.18 80.8641 20.12 81.0321 20.12C81.2081 20.12 81.3521 20.18 81.4641 20.3C81.5761 20.412 81.6321 20.556 81.6321 20.732V28.388C81.6321 28.564 81.5761 28.712 81.4641 28.832C81.3521 28.944 81.2081 29 81.0321 29ZM84.9441 22.664C85.0961 22.664 85.2281 22.728 85.3401 22.856C85.4521 22.984 85.5081 23.112 85.5081 23.24C85.5081 23.4 85.4321 23.548 85.2801 23.684L81.5241 27.044L81.4761 25.664L84.5001 22.856C84.6281 22.728 84.7761 22.664 84.9441 22.664ZM85.0881 28.988C84.9201 28.988 84.7761 28.92 84.6561 28.784L82.2561 26.252L83.1681 25.412L85.5081 27.944C85.6361 28.08 85.7001 28.232 85.7001 28.4C85.7001 28.576 85.6281 28.72 85.4841 28.832C85.3481 28.936 85.2161 28.988 85.0881 28.988ZM93.3073 20.132C93.4593 20.132 93.6153 20.152 93.7753 20.192C93.9353 20.232 94.0673 20.3 94.1713 20.396C94.2833 20.484 94.3393 20.608 94.3393 20.768C94.3393 20.928 94.2913 21.06 94.1953 21.164C94.0993 21.26 93.9873 21.308 93.8593 21.308C93.7793 21.308 93.6713 21.292 93.5353 21.26C93.3993 21.22 93.2633 21.2 93.1273 21.2C92.9433 21.2 92.7953 21.244 92.6833 21.332C92.5713 21.412 92.4913 21.516 92.4433 21.644C92.3953 21.764 92.3713 21.884 92.3713 22.004V28.388C92.3713 28.564 92.3113 28.712 92.1913 28.832C92.0793 28.944 91.9393 29 91.7713 29C91.5953 29 91.4513 28.944 91.3393 28.832C91.2273 28.712 91.1713 28.564 91.1713 28.388V22.016C91.1713 21.464 91.3513 21.012 91.7113 20.66C92.0793 20.308 92.6113 20.132 93.3073 20.132ZM93.5473 22.796C93.7073 22.796 93.8393 22.848 93.9433 22.952C94.0473 23.056 94.0993 23.188 94.0993 23.348C94.0993 23.508 94.0473 23.64 93.9433 23.744C93.8393 23.848 93.7073 23.9 93.5473 23.9H90.4393C90.2873 23.9 90.1553 23.848 90.0433 23.744C89.9393 23.64 89.8873 23.508 89.8873 23.348C89.8873 23.188 89.9393 23.056 90.0433 22.952C90.1553 22.848 90.2873 22.796 90.4393 22.796H93.5473ZM100.962 25.844C100.962 26.484 100.822 27.052 100.542 27.548C100.262 28.036 99.8822 28.42 99.4022 28.7C98.9222 28.98 98.3822 29.12 97.7822 29.12C97.1822 29.12 96.6422 28.98 96.1622 28.7C95.6822 28.42 95.2982 28.036 95.0102 27.548C94.7302 27.052 94.5902 26.484 94.5902 25.844C94.5902 25.196 94.7302 24.628 95.0102 24.14C95.2982 23.644 95.6822 23.256 96.1622 22.976C96.6422 22.688 97.1822 22.544 97.7822 22.544C98.3822 22.544 98.9222 22.688 99.4022 22.976C99.8822 23.256 100.262 23.644 100.542 24.14C100.822 24.628 100.962 25.196 100.962 25.844ZM99.7622 25.844C99.7622 25.404 99.6742 25.024 99.4982 24.704C99.3222 24.376 99.0822 24.12 98.7782 23.936C98.4822 23.744 98.1502 23.648 97.7822 23.648C97.4142 23.648 97.0782 23.744 96.7742 23.936C96.4702 24.12 96.2302 24.376 96.0542 24.704C95.8782 25.024 95.7902 25.404 95.7902 25.844C95.7902 26.268 95.8782 26.644 96.0542 26.972C96.2302 27.3 96.4702 27.556 96.7742 27.74C97.0782 27.924 97.4142 28.016 97.7822 28.016C98.1502 28.016 98.4822 27.924 98.7782 27.74C99.0822 27.556 99.3222 27.3 99.4982 26.972C99.6742 26.644 99.7622 26.268 99.7622 25.844ZM102.92 29C102.744 29 102.6 28.944 102.488 28.832C102.376 28.712 102.32 28.564 102.32 28.388V23.3C102.32 23.124 102.376 22.98 102.488 22.868C102.6 22.748 102.744 22.688 102.92 22.688C103.088 22.688 103.228 22.748 103.34 22.868C103.46 22.98 103.52 23.124 103.52 23.3V24.644L103.4 24.128C103.464 23.904 103.56 23.696 103.688 23.504C103.824 23.312 103.984 23.144 104.168 23C104.352 22.856 104.556 22.744 104.78 22.664C105.012 22.584 105.252 22.544 105.5 22.544C105.708 22.544 105.888 22.6 106.04 22.712C106.192 22.824 106.268 22.964 106.268 23.132C106.268 23.348 106.212 23.508 106.1 23.612C105.988 23.708 105.864 23.756 105.728 23.756C105.608 23.756 105.492 23.732 105.38 23.684C105.268 23.628 105.136 23.6 104.984 23.6C104.816 23.6 104.644 23.644 104.468 23.732C104.292 23.82 104.132 23.952 103.988 24.128C103.844 24.296 103.728 24.496 103.64 24.728C103.56 24.96 103.52 25.22 103.52 25.508V28.388C103.52 28.564 103.46 28.712 103.34 28.832C103.228 28.944 103.088 29 102.92 29ZM113.616 29.12C112.952 29.12 112.376 28.984 111.888 28.712C111.4 28.432 111.02 28.052 110.748 27.572C110.484 27.084 110.352 26.528 110.352 25.904C110.352 25.2 110.492 24.6 110.772 24.104C111.06 23.6 111.432 23.216 111.888 22.952C112.344 22.68 112.828 22.544 113.34 22.544C113.732 22.544 114.104 22.624 114.456 22.784C114.808 22.936 115.12 23.152 115.392 23.432C115.672 23.704 115.892 24.028 116.052 24.404C116.212 24.772 116.296 25.176 116.304 25.616C116.296 25.776 116.232 25.908 116.112 26.012C115.992 26.116 115.852 26.168 115.692 26.168H111.024L110.736 25.148H115.248L115.02 25.364V25.064C115.004 24.784 114.912 24.54 114.744 24.332C114.576 24.116 114.368 23.952 114.12 23.84C113.872 23.72 113.612 23.66 113.34 23.66C113.1 23.66 112.868 23.7 112.644 23.78C112.428 23.852 112.232 23.972 112.056 24.14C111.888 24.308 111.752 24.532 111.648 24.812C111.552 25.084 111.504 25.424 111.504 25.832C111.504 26.272 111.596 26.656 111.78 26.984C111.964 27.312 112.212 27.568 112.524 27.752C112.836 27.928 113.18 28.016 113.556 28.016C113.852 28.016 114.096 27.988 114.288 27.932C114.48 27.868 114.64 27.792 114.768 27.704C114.896 27.616 115.008 27.532 115.104 27.452C115.224 27.38 115.344 27.344 115.464 27.344C115.608 27.344 115.728 27.396 115.824 27.5C115.92 27.596 115.968 27.712 115.968 27.848C115.968 28.024 115.88 28.184 115.704 28.328C115.488 28.536 115.188 28.72 114.804 28.88C114.428 29.04 114.032 29.12 113.616 29.12ZM122.879 22.592C123.055 22.592 123.199 22.652 123.311 22.772C123.423 22.884 123.479 23.028 123.479 23.204V28.388C123.479 28.564 123.423 28.712 123.311 28.832C123.199 28.944 123.055 29 122.879 29C122.711 29 122.567 28.944 122.447 28.832C122.335 28.712 122.279 28.564 122.279 28.388V27.524L122.531 27.56C122.531 27.704 122.471 27.864 122.351 28.04C122.239 28.216 122.083 28.388 121.883 28.556C121.683 28.716 121.447 28.852 121.175 28.964C120.903 29.068 120.611 29.12 120.299 29.12C119.747 29.12 119.251 28.98 118.811 28.7C118.371 28.412 118.023 28.02 117.767 27.524C117.511 27.028 117.383 26.464 117.383 25.832C117.383 25.184 117.511 24.616 117.767 24.128C118.023 23.632 118.367 23.244 118.799 22.964C119.239 22.684 119.727 22.544 120.263 22.544C120.607 22.544 120.923 22.6 121.211 22.712C121.507 22.824 121.763 22.968 121.979 23.144C122.195 23.32 122.359 23.508 122.471 23.708C122.591 23.9 122.651 24.084 122.651 24.26L122.279 24.296V23.204C122.279 23.036 122.335 22.892 122.447 22.772C122.567 22.652 122.711 22.592 122.879 22.592ZM120.431 28.016C120.807 28.016 121.139 27.92 121.427 27.728C121.715 27.536 121.939 27.276 122.099 26.948C122.259 26.612 122.339 26.24 122.339 25.832C122.339 25.416 122.259 25.044 122.099 24.716C121.939 24.388 121.715 24.128 121.427 23.936C121.139 23.744 120.807 23.648 120.431 23.648C120.063 23.648 119.735 23.744 119.447 23.936C119.167 24.128 118.943 24.388 118.775 24.716C118.615 25.044 118.535 25.416 118.535 25.832C118.535 26.24 118.615 26.612 118.775 26.948C118.943 27.276 119.167 27.536 119.447 27.728C119.735 27.92 120.063 28.016 120.431 28.016ZM127.956 22.544C128.388 22.544 128.772 22.592 129.108 22.688C129.444 22.776 129.704 22.904 129.888 23.072C130.08 23.232 130.176 23.42 130.176 23.636C130.176 23.772 130.136 23.9 130.056 24.02C129.976 24.132 129.856 24.188 129.696 24.188C129.584 24.188 129.488 24.168 129.408 24.128C129.336 24.088 129.268 24.04 129.204 23.984C129.14 23.928 129.06 23.872 128.964 23.816C128.876 23.768 128.744 23.728 128.568 23.696C128.4 23.664 128.248 23.648 128.112 23.648C127.688 23.648 127.32 23.744 127.008 23.936C126.704 24.128 126.464 24.388 126.288 24.716C126.12 25.044 126.036 25.416 126.036 25.832C126.036 26.248 126.12 26.62 126.288 26.948C126.464 27.276 126.7 27.536 126.996 27.728C127.3 27.92 127.652 28.016 128.052 28.016C128.292 28.016 128.488 28 128.64 27.968C128.792 27.928 128.924 27.88 129.036 27.824C129.156 27.752 129.256 27.68 129.336 27.608C129.424 27.528 129.544 27.488 129.696 27.488C129.872 27.488 130.004 27.544 130.092 27.656C130.188 27.76 130.236 27.892 130.236 28.052C130.236 28.228 130.128 28.4 129.912 28.568C129.704 28.728 129.424 28.86 129.072 28.964C128.72 29.068 128.332 29.12 127.908 29.12C127.284 29.12 126.74 28.976 126.276 28.688C125.82 28.4 125.464 28.008 125.208 27.512C124.96 27.016 124.836 26.456 124.836 25.832C124.836 25.2 124.968 24.64 125.232 24.152C125.496 23.656 125.864 23.264 126.336 22.976C126.808 22.688 127.348 22.544 127.956 22.544ZM134.563 22.58C135.115 22.58 135.543 22.7 135.847 22.94C136.151 23.172 136.363 23.488 136.483 23.888C136.611 24.288 136.675 24.728 136.675 25.208V28.388C136.675 28.564 136.615 28.712 136.495 28.832C136.383 28.944 136.243 29 136.075 29C135.899 29 135.755 28.944 135.643 28.832C135.531 28.712 135.475 28.564 135.475 28.388V25.208C135.475 24.928 135.435 24.672 135.355 24.44C135.283 24.208 135.151 24.024 134.959 23.888C134.775 23.752 134.515 23.684 134.179 23.684C133.867 23.684 133.587 23.752 133.339 23.888C133.099 24.024 132.911 24.208 132.775 24.44C132.647 24.672 132.583 24.928 132.583 25.208V28.388C132.583 28.564 132.523 28.712 132.403 28.832C132.291 28.944 132.151 29 131.983 29C131.807 29 131.663 28.944 131.551 28.832C131.439 28.712 131.383 28.564 131.383 28.388V20.732C131.383 20.556 131.439 20.412 131.551 20.3C131.663 20.18 131.807 20.12 131.983 20.12C132.151 20.12 132.291 20.18 132.403 20.3C132.523 20.412 132.583 20.556 132.583 20.732V24.008L132.367 24.128C132.423 23.952 132.515 23.772 132.643 23.588C132.779 23.404 132.943 23.236 133.135 23.084C133.335 22.932 133.555 22.812 133.795 22.724C134.035 22.628 134.291 22.58 134.563 22.58ZM147.732 25.844C147.732 26.484 147.592 27.052 147.312 27.548C147.032 28.036 146.652 28.42 146.172 28.7C145.692 28.98 145.152 29.12 144.552 29.12C143.952 29.12 143.412 28.98 142.932 28.7C142.452 28.42 142.068 28.036 141.78 27.548C141.5 27.052 141.36 26.484 141.36 25.844C141.36 25.196 141.5 24.628 141.78 24.14C142.068 23.644 142.452 23.256 142.932 22.976C143.412 22.688 143.952 22.544 144.552 22.544C145.152 22.544 145.692 22.688 146.172 22.976C146.652 23.256 147.032 23.644 147.312 24.14C147.592 24.628 147.732 25.196 147.732 25.844ZM146.532 25.844C146.532 25.404 146.444 25.024 146.268 24.704C146.092 24.376 145.852 24.12 145.548 23.936C145.252 23.744 144.92 23.648 144.552 23.648C144.184 23.648 143.848 23.744 143.544 23.936C143.24 24.12 143 24.376 142.824 24.704C142.648 25.024 142.56 25.404 142.56 25.844C142.56 26.268 142.648 26.644 142.824 26.972C143 27.3 143.24 27.556 143.544 27.74C143.848 27.924 144.184 28.016 144.552 28.016C144.92 28.016 145.252 27.924 145.548 27.74C145.852 27.556 146.092 27.3 146.268 26.972C146.444 26.644 146.532 26.268 146.532 25.844ZM149.69 29C149.514 29 149.37 28.944 149.258 28.832C149.146 28.712 149.09 28.564 149.09 28.388V23.3C149.09 23.124 149.146 22.98 149.258 22.868C149.37 22.748 149.514 22.688 149.69 22.688C149.858 22.688 149.998 22.748 150.11 22.868C150.23 22.98 150.29 23.124 150.29 23.3V24.644L150.17 24.128C150.234 23.904 150.33 23.696 150.458 23.504C150.594 23.312 150.754 23.144 150.938 23C151.122 22.856 151.326 22.744 151.55 22.664C151.782 22.584 152.022 22.544 152.27 22.544C152.478 22.544 152.658 22.6 152.81 22.712C152.962 22.824 153.038 22.964 153.038 23.132C153.038 23.348 152.982 23.508 152.87 23.612C152.758 23.708 152.634 23.756 152.498 23.756C152.378 23.756 152.262 23.732 152.15 23.684C152.038 23.628 151.906 23.6 151.754 23.6C151.586 23.6 151.414 23.644 151.238 23.732C151.062 23.82 150.902 23.952 150.758 24.128C150.614 24.296 150.498 24.496 150.41 24.728C150.33 24.96 150.29 25.22 150.29 25.508V28.388C150.29 28.564 150.23 28.712 150.11 28.832C149.998 28.944 149.858 29 149.69 29ZM159.008 20.12C159.184 20.12 159.328 20.176 159.44 20.288C159.552 20.4 159.608 20.548 159.608 20.732V28.388C159.608 28.564 159.552 28.712 159.44 28.832C159.328 28.944 159.184 29 159.008 29C158.84 29 158.696 28.944 158.576 28.832C158.464 28.712 158.408 28.564 158.408 28.388V27.524L158.66 27.536C158.66 27.68 158.6 27.844 158.48 28.028C158.368 28.204 158.212 28.376 158.012 28.544C157.812 28.712 157.576 28.852 157.304 28.964C157.032 29.068 156.74 29.12 156.428 29.12C155.876 29.12 155.38 28.98 154.94 28.7C154.5 28.412 154.152 28.024 153.896 27.536C153.64 27.04 153.512 26.472 153.512 25.832C153.512 25.192 153.64 24.628 153.896 24.14C154.152 23.644 154.496 23.256 154.928 22.976C155.368 22.688 155.856 22.544 156.392 22.544C156.728 22.544 157.04 22.6 157.328 22.712C157.624 22.824 157.88 22.968 158.096 23.144C158.312 23.32 158.48 23.508 158.6 23.708C158.72 23.9 158.78 24.084 158.78 24.26L158.408 24.296V20.732C158.408 20.556 158.464 20.412 158.576 20.3C158.696 20.18 158.84 20.12 159.008 20.12ZM156.56 28.016C156.944 28.016 157.276 27.92 157.556 27.728C157.844 27.536 158.068 27.276 158.228 26.948C158.388 26.62 158.468 26.248 158.468 25.832C158.468 25.416 158.388 25.044 158.228 24.716C158.068 24.388 157.844 24.128 157.556 23.936C157.268 23.744 156.936 23.648 156.56 23.648C156.192 23.648 155.864 23.744 155.576 23.936C155.296 24.128 155.072 24.388 154.904 24.716C154.744 25.044 154.664 25.416 154.664 25.832C154.664 26.248 154.744 26.62 154.904 26.948C155.072 27.276 155.296 27.536 155.576 27.728C155.864 27.92 156.192 28.016 156.56 28.016ZM164.229 29.12C163.565 29.12 162.989 28.984 162.501 28.712C162.013 28.432 161.633 28.052 161.361 27.572C161.097 27.084 160.965 26.528 160.965 25.904C160.965 25.2 161.105 24.6 161.385 24.104C161.673 23.6 162.045 23.216 162.501 22.952C162.957 22.68 163.441 22.544 163.953 22.544C164.345 22.544 164.717 22.624 165.069 22.784C165.421 22.936 165.733 23.152 166.005 23.432C166.285 23.704 166.505 24.028 166.665 24.404C166.825 24.772 166.909 25.176 166.917 25.616C166.909 25.776 166.845 25.908 166.725 26.012C166.605 26.116 166.465 26.168 166.305 26.168H161.637L161.349 25.148H165.861L165.633 25.364V25.064C165.617 24.784 165.525 24.54 165.357 24.332C165.189 24.116 164.981 23.952 164.733 23.84C164.485 23.72 164.225 23.66 163.953 23.66C163.713 23.66 163.481 23.7 163.257 23.78C163.041 23.852 162.845 23.972 162.669 24.14C162.501 24.308 162.365 24.532 162.261 24.812C162.165 25.084 162.117 25.424 162.117 25.832C162.117 26.272 162.209 26.656 162.393 26.984C162.577 27.312 162.825 27.568 163.137 27.752C163.449 27.928 163.793 28.016 164.169 28.016C164.465 28.016 164.709 27.988 164.901 27.932C165.093 27.868 165.253 27.792 165.381 27.704C165.509 27.616 165.621 27.532 165.717 27.452C165.837 27.38 165.957 27.344 166.077 27.344C166.221 27.344 166.341 27.396 166.437 27.5C166.533 27.596 166.581 27.712 166.581 27.848C166.581 28.024 166.493 28.184 166.317 28.328C166.101 28.536 165.801 28.72 165.417 28.88C165.041 29.04 164.645 29.12 164.229 29.12ZM168.874 29C168.698 29 168.554 28.944 168.442 28.832C168.33 28.712 168.274 28.564 168.274 28.388V23.3C168.274 23.124 168.33 22.98 168.442 22.868C168.554 22.748 168.698 22.688 168.874 22.688C169.042 22.688 169.182 22.748 169.294 22.868C169.414 22.98 169.474 23.124 169.474 23.3V24.644L169.354 24.128C169.418 23.904 169.514 23.696 169.642 23.504C169.778 23.312 169.938 23.144 170.122 23C170.306 22.856 170.51 22.744 170.734 22.664C170.966 22.584 171.206 22.544 171.454 22.544C171.662 22.544 171.842 22.6 171.994 22.712C172.146 22.824 172.222 22.964 172.222 23.132C172.222 23.348 172.166 23.508 172.054 23.612C171.942 23.708 171.818 23.756 171.682 23.756C171.562 23.756 171.446 23.732 171.334 23.684C171.222 23.628 171.09 23.6 170.938 23.6C170.77 23.6 170.598 23.644 170.422 23.732C170.246 23.82 170.086 23.952 169.942 24.128C169.798 24.296 169.682 24.496 169.594 24.728C169.514 24.96 169.474 25.22 169.474 25.508V28.388C169.474 28.564 169.414 28.712 169.294 28.832C169.182 28.944 169.042 29 168.874 29Z" fill="#070706"/>
</svg>
